<?xml version="1.0" standalone="no"?>
<!DOCTYPE svg PUBLIC "-//W3C//DTD SVG 1.1//EN" "http://www.w3.org/Graphics/SVG/1.1/DTD/svg11.dtd" >
<svg xmlns="http://www.w3.org/2000/svg" xmlns:xlink="http://www.w3.org/1999/xlink" version="1.1">
<metadata></metadata>
<defs>
<font id="serif_gothic_blackregular" horiz-adv-x="926" >
<font-face units-per-em="2048" ascent="1638" descent="-410" />
<missing-glyph horiz-adv-x="395" />
<glyph unicode="&#xd;" horiz-adv-x="395" />
<glyph unicode=" "  horiz-adv-x="395" />
<glyph unicode="&#x09;" horiz-adv-x="395" />
<glyph unicode="&#xa0;" horiz-adv-x="395" />
<glyph unicode="!" horiz-adv-x="816" d="M56 1605h688l-17 -17q-10 -12 -21 -30q-14 -25 -25 -80q-5 -22 -13 -79l-86 -712q-1 -9 -1 -14q0 -19 3.5 -39t12 -38t25.5 -39h-437l24 42q9 18 13.5 41.5t1.5 43.5l-93 704q-8 66 -21.5 114t-22.5 58t-18 25t-13 20zM130 239q0 110 75.5 188.5t183.5 78.5 q110 0 189.5 -73.5t79.5 -179.5q0 -113 -77.5 -196t-187.5 -83q-108 0 -185.5 78t-77.5 187z" />
<glyph unicode="&#x22;" horiz-adv-x="789" d="M66 1561h309l-16 -21q-6 -9 -11 -31t-7 -40l-39 -321q-3 -22 6.5 -38.5t12.5 -19.5h-197l11 18q8 19 6 39l-41 316q-4 34 -9 53t-12 25q-8 13 -13 20zM410 1561h309q-12 -9 -17.5 -20t-9.5 -30t-8 -42l-37 -321q-3 -25 5.5 -40t12.5 -18h-197l10 18q3 5 5.5 18t1.5 21 l-42 316q-4 34 -9 53t-11 25z" />
<glyph unicode="#" horiz-adv-x="2022" d="M71 485l129 328q12 -10 16 -15q8 -5 21 -11q31 -13 68 -13h304l62 149h-351l-40 -4q-19 -3 -44 -13l128 316q5 -5 15 -12.5t25.5 -15t30.5 -10t36 -2.5h303l106 263q5 12 9 34.5t4 34.5t-3 23t-11 21h360q-10 -10 -18.5 -19t-21 -26.5t-19.5 -31.5t-17 -38l-100 -261h159 l105 254q8 21 14.5 55.5t3.5 43.5l-13 23h354l-18 -18t-17 -20q-23 -38 -33 -55q-14 -26 -21 -42l-93 -241h334q16 0 31.5 2t25.5 3l54 15l-123 -314q-29 23 -59 31q-9 3 -23 3t-21 1h-16h-306l-58 -149h334h26h20q13 3 20 2l41 7l-126 -315q-5 5 -18 15t-17 12 q-21 10 -45 13.5t-47 3.5h-292l-123 -310q-3 -8 -4 -17t-1 -16v-12q3 -5 2 -7q6 -19 17 -36h-346q23 30 40 61l28 65l102 272h-159l-121 -305q-8 -22 -8 -44q0 -10 2 -19.5t15 -29.5h-377q27 18 50 44q17 21 25 34t16 34l111 286h-355q-13 0 -24.5 -4t-24 -8t-33.5 -15z M900 774h160l63 149h-165z" />
<glyph unicode="$" horiz-adv-x="1195" d="M71 1209q0 132 100 256.5t233 149.5l52 9q3 13 3 33q0 17 -2.5 35t-11.5 38q-4 10 -9 17q-3 4 -13 16h322v-145l30 -6q6 0 19.5 -3.5t30 -7t43.5 -8.5q10 0 24 2t18 3q8 3 28 14v-515l-32 42q-21 29 -56 60q-49 44 -83.5 54t-58.5 10q-44 0 -71.5 -19.5t-24.5 -54.5 q5 -49 40 -77q64 -39 121 -75q185 -115 264 -237q88 -135 88 -332q0 -154 -89 -279q-82 -113 -206 -163l-61 -26v-44q0 -23 2 -47t9 -41l24 -31h-323v140q-17 0 -81 8.5t-120 14.5q-17 1 -31 3t-35 2q-26 0 -53 -8q-13 -4 -22 -9t-25 -17v656q21 -30 66 -71q35 -31 90 -75 q49 -38 96 -58t107 -28q6 -1 20 -1q47 0 73 22t30 65q0 91 -98 161q-97 60 -193 119q-118 84 -176 199.5t-58 248.5z" />
<glyph unicode="%" horiz-adv-x="1953" d="M74 1216q0 163 120.5 281t285.5 118q169 0 286 -125t117 -297q0 -166 -121.5 -281t-288.5 -115q-165 0 -282 124t-117 295zM257 -21q29 17 42 29q21 16 38 36q32 43 45 62q30 44 72 113l709 1183q34 54 44.5 87.5t5.5 47.5q-3 10 -8 22.5t-14 24.5h549q-34 -23 -48 -34 q-30 -22 -54 -44q-35 -30 -94 -111q-49 -67 -86 -129l-693 -1162q-12 -19 -15 -38t-3 -44q0 -13 4 -25q1 -5 9 -18h-503zM388 1202q0 -9 1 -15q6 -32 29 -54t55 -22q38 0 69 29.5t31 67.5q0 9 -1 14q-6 35 -33 54.5t-66 19.5q-36 0 -60.5 -28.5t-24.5 -65.5zM1062 367 q0 166 123.5 284.5t288.5 118.5q170 0 288.5 -126.5t118.5 -300.5q0 -165 -124.5 -281t-293.5 -116q-166 0 -283.5 125.5t-117.5 295.5zM1377 353q0 -10 1 -16q6 -34 29 -55t56 -21q39 0 69 28.5t30 66.5q0 10 -1 15q-5 34 -33 55t-65 21q-38 0 -62 -28.5t-24 -65.5z" />
<glyph unicode="&#x26;" horiz-adv-x="1502" d="M61 543q0 127 25 217t89 160l45 52l-14 35q-10 25 -16 60.5t-6 74.5q0 49 10 99t30 97q58 128 185.5 209t264.5 81q35 0 94.5 -14t86.5 -14q9 0 23 2.5t23 4.5q22 6 43 17v-522l-33 32q-22 19 -68.5 39t-89.5 20q-17 0 -35 -4q-41 -10 -62.5 -32t-38.5 -73q-3 -10 -3 -15 q-1 -10 -1 -24q0 -35 11 -63.5t42 -46.5l59 -35l-44 -17q-70 -26 -109 -88q-34 -54 -34 -118v-16q3 -10 3 -15q10 -66 63 -117q58 -56 132 -56q92 0 148 47q61 52 74 142q1 6 1 21q0 52 -28.5 98t-78.5 84l-44 32h373q62 0 91 2t55 8t46 17t40 26v-477h-103l-6 -41 q-16 -104 -76 -203t-146 -155q-74 -48 -145 -70q-99 -31 -228 -31q-280 0 -464 166t-184 404z" />
<glyph unicode="'" horiz-adv-x="443" d="M66 1561h309l-16 -21q-6 -9 -11 -31t-7 -40l-39 -321q-3 -22 6.5 -38.5t12.5 -19.5h-197l11 18q8 19 6 39l-41 316q-4 34 -9 53t-12 25q-8 13 -13 20z" />
<glyph unicode="(" horiz-adv-x="946" d="M74 862q0 175 72.5 363t196.5 319q41 44 175 157q57 48 74 67q13 14 30 43q13 21 29 52l241 -420l-81 -52q-143 -92 -216 -201q-97 -143 -97 -337q0 -222 111 -385q86 -126 223 -202l53 -30l-269 -428q-9 29 -23 58.5t-20 37.5q-17 21 -60 57q-108 91 -138 123 q-159 170 -235 377q-66 183 -66 401z" />
<glyph unicode=")" horiz-adv-x="952" d="M71 228l82 52q141 91 215 201q97 144 97 337q0 220 -111 385q-86 127 -223 202l-53 30l271 428q8 -27 22.5 -59.5t19.5 -38.5q18 -22 60 -57q106 -89 137 -121q161 -171 236 -378q66 -182 66 -400q0 -175 -72.5 -363t-196.5 -319q-52 -54 -141 -130q-95 -80 -109.5 -95.5 t-32 -43t-30.5 -50.5z" />
<glyph unicode="*" horiz-adv-x="1062" d="M66 1116l40 -4q18 0 41.5 4t44.5 12l132 44l-136 49q-13 4 -37 9t-38 5q-25 0 -39 -1l168 305q1 -5 6.5 -15.5t11.5 -21t19 -23.5q8 -9 17 -17l128 -110l-35 166q-3 12 -9.5 26.5t-11 27t-11 21t-8.5 12.5h356l-17 -25q-6 -13 -11.5 -28t-7.5 -28l-36 -176l107 104 q12 10 24 25t19 23l25 36l185 -306l-36 -1l-73 -18l-139 -53l127 -41q19 -5 40 -9.5t34 -4.5h31q12 0 18 1l-178 -315q-3 12 -6 19q-1 3 -8.5 15t-24.5 28.5t-20 19.5l-112 114l35 -150q4 -16 10 -32t10.5 -26.5t10.5 -18.5q3 -4 16 -19h-373q5 6 12.5 17t9.5 18 q16 32 31 111l21 101l-87 -79q-17 -13 -36.5 -35.5t-27 -38.5t-12 -30.5t-7.5 -17.5z" />
<glyph unicode="+" horiz-adv-x="1271" d="M67 498l2 141h499v504h135v-505h500v-140h-506v-503h-129v503h-501z" />
<glyph unicode="," horiz-adv-x="750" d="M70 -185l96 479q4 22 4 51q0 31 -8 51t-14.5 30t-17.5 21h547l-297 -533q-6 -10 -10 -29t-4 -29q-1 -19 5 -41h-301z" />
<glyph unicode="-" d="M62 412v408h683q17 0 32 3t33 12t35 27v-399h-649q-23 0 -49 -5.5t-50 -16.5q-12 -6 -18 -12z" />
<glyph unicode="." horiz-adv-x="651" d="M61 245q0 106 77.5 181.5t186.5 75.5q110 0 186 -82.5t76 -196.5q0 -109 -82 -179.5t-194 -70.5q-106 0 -178 81t-72 191z" />
<glyph unicode="/" horiz-adv-x="1945" d="M70 -489q34 30 61 63q48 60 105 162l979 1694q16 26 21.5 47t5.5 41q0 16 -2.5 25t-5.5 18.5t-7.5 18.5t-15.5 25h636q-19 -13 -38 -30q-10 -9 -34 -34q-58 -54 -115 -150l-941 -1640q-39 -67 -58 -114q-14 -35 -14 -53v-12q3 -5 2 -6q3 -13 5.5 -27.5t9.5 -27.5h-594z " />
<glyph unicode="0" horiz-adv-x="1421" d="M73 813q0 245 53 392q62 172 219 291q78 58 174.5 88.5t199.5 30.5q105 0 202 -30.5t177 -92.5q156 -119 211 -270q48 -130 48 -376q0 -189 -17 -300q-22 -146 -79 -254q-62 -118 -177 -201q-171 -122 -367 -122q-206 0 -377 132q-157 121 -218 305q-49 150 -49 407z M579 665q0 -66 9.5 -107t40.5 -76.5t84 -35.5q62 0 101 52q22 30 30.5 74t8.5 101q0 21 -1.5 65t-1.5 67q0 21 1.5 63.5t1.5 63.5q0 61 -9 100.5t-36 69.5q-36 40 -94 40q-53 0 -89 -38q-26 -27 -35 -73t-9 -116v-58t1 -57q0 -23 -1.5 -68.5t-1.5 -66.5z" />
<glyph unicode="1" horiz-adv-x="1208" d="M58 1053q30 8 55.5 23t43.5 31q5 5 36 39l434 459h472q-16 -19 -25.5 -35t-16 -36.5t-7.5 -31.5t-1 -31v-24v-1295q0 -41 4.5 -64.5t16 -46.5t32.5 -41h-615q9 10 17 22t13 23q17 36 23.5 65.5t6.5 65.5v749l-111 -150z" />
<glyph unicode="2" horiz-adv-x="1411" d="M60 0l247 294l353 427q148 179 157 192q44 66 44 108q0 64 -45.5 97t-105.5 33q-52 0 -91.5 -42t-39.5 -97q0 -9 3 -24l10 -51h-500q0 1 16 25q9 14 9 26q0 236 125 399q145 189 418 218q34 4 65 4q159 0 303 -85q130 -76 201 -192q54 -88 77.5 -169t23.5 -160 q0 -66 -15 -124.5t-40 -109.5q-41 -84 -98 -153q-36 -43 -97 -99l-87 -79h166h14q30 0 46 1.5t39.5 7t36 11t30.5 16.5v-474h-1265z" />
<glyph unicode="3" horiz-adv-x="1394" d="M66 674h534l-10 -49q-3 -13 -3 -25q0 -58 33 -101q43 -57 123 -57q44 0 84.5 41t40.5 98q0 14 -1 22q-10 61 -58 90q-35 22 -70 23q-32 0 -51 -4l-334 239q16 5 25.5 10.5t18.5 11.5q16 12 34 32q13 13 31 36l76 98h-256q-16 0 -32 -0.5t-30.5 -5.5t-23 -9.5t-17.5 -12.5 v494h1101l-323 -507l45 -16q127 -45 219 -159q110 -136 110 -310q0 -264 -176 -451t-433 -187q-156 0 -285.5 75.5t-231.5 221.5q-35 49 -59 126.5t-41 189.5q-3 18 -22 55q-9 16 -18 31z" />
<glyph unicode="4" horiz-adv-x="1621" d="M66 656q5 4 28.5 13t32.5 14q26 17 42 33q5 5 31 37l674 852h539q-32 -32 -38 -39q-13 -16 -19.5 -32t-10 -38t-3.5 -34v-787h79q56 0 98 24l31 18v-442h-208v-123q0 -41 4.5 -64.5t16 -46.5t32.5 -41h-626q13 12 21 21.5t16.5 26t20.5 36.5q13 34 13 86v105h-462z M662 675h219v278z" />
<glyph unicode="5" horiz-adv-x="1297" d="M66 251l360 367l21 -63q16 -47 67.5 -82.5t98.5 -35.5q58 0 104 44.5t46 108.5q0 74 -50 114q-44 35 -102 35h-13q-9 -3 -13 -3q-44 -8 -73.5 -26t-35.5 -33l-318 141q5 8 11.5 17.5t10.5 21t8 41t6 52.5l72 655h846v-472q-14 12 -28.5 19.5t-29 14t-33.5 9t-35 2.5h-44 h-245v-10l42 -3q89 0 179 -42q70 -34 116 -80q95 -89 146 -193q57 -117 57 -252q-1 -45 -6 -81q-30 -233 -204 -386.5t-422 -153.5q-141 0 -272 68q-113 60 -190 156q-9 10 -34 25q-32 18 -43 25z" />
<glyph unicode="6" horiz-adv-x="1371" d="M74 588q0 108 19.5 180.5t63.5 151.5q16 30 100 161q45 71 119 176q79 113 101 145q45 67 57 105q3 6 3 20q0 18 -13 41q-18 32 -20 37h685q-19 -18 -41.5 -48.5t-37.5 -51.5l-166 -237l-86 -123l34 -8q51 -9 106 -34q76 -34 123 -80q76 -78 123 -183q53 -121 53 -249 q0 -21 -1 -43t-5 -44q-36 -229 -208 -380t-402 -151q-244 0 -425.5 184t-181.5 431zM542 591q0 -54 42 -92.5t99 -38.5q56 0 96.5 38t40.5 94q0 62 -41 104t-102 42q-57 0 -96 -45t-39 -102z" />
<glyph unicode="7" horiz-adv-x="1358" d="M52 0q19 13 35 26q5 4 31 28q32 32 62 85q43 73 83 177l315 825h-350q-34 0 -59.5 -4.5t-51.5 -14.5t-53 -29v512h1226q-19 -44 -47 -108q-36 -84 -53 -127q-8 -21 -153 -380q-80 -198 -109 -273q-41 -109 -115 -311q-41 -102 -64 -162q-43 -113 -43 -148q0 -40 11 -62 q16 -23 22 -34h-687z" />
<glyph unicode="8" horiz-adv-x="1357" d="M60 596q0 101 28.5 177.5t74.5 124.5l31 31l-22 48q-25 58 -24 130q0 58 13 110t39 103q71 137 191 212t278 75q143 0 262 -70q130 -76 203 -220q29 -56 41 -111t12 -104q0 -31 -3 -55t-11 -50l-21 -66l28 -37q60 -89 80.5 -150t20.5 -135v-45q-5 -34 -6 -52 q-19 -227 -198.5 -383t-411.5 -156q-231 0 -406.5 164.5t-196.5 401.5q-1 19 -1.5 33.5t-0.5 23.5zM516 596q0 -67 46.5 -112.5t112.5 -45.5q64 0 108 46.5t44 110.5q0 62 -46.5 109t-110.5 47t-109 -45.5t-45 -109.5zM565 1046q0 -41 30.5 -68t70.5 -27q41 0 73 30.5 t32 73.5q0 44 -33.5 72t-76.5 28q-39 0 -67.5 -31t-28.5 -78z" />
<glyph unicode="9" horiz-adv-x="1364" d="M54 1042q0 233 181 410t427 177q226 0 400 -137q183 -145 217 -376q9 -56 9 -111q0 -89 -22.5 -166.5t-66.5 -157.5q-26 -47 -91 -148q-29 -44 -106 -158q-96 -141 -112 -166q-52 -82 -60 -114q-4 -14 -4 -24q0 -19 13 -39q19 -30 20 -32h-683q12 12 30 39q30 45 61 91 q23 31 70.5 99t85.5 124l75 111l-30 8q-61 18 -113.5 42.5t-84.5 50.5q-92 69 -144 165q-71 131 -72 312zM529 1011q0 -54 45.5 -92t98.5 -38q61 0 100.5 39.5t39.5 99.5q0 56 -43 98.5t-106 42.5q-64 0 -99.5 -45t-35.5 -105z" />
<glyph unicode=":" horiz-adv-x="658" d="M64 236q0 113 75 189.5t188 76.5q106 0 185 -75t79 -188q0 -115 -80.5 -190.5t-194.5 -75.5q-106 0 -179 75.5t-73 187.5zM66 840q0 113 75 189.5t188 76.5q106 0 185.5 -75t79.5 -188q0 -117 -80 -191.5t-194 -74.5q-108 0 -181 75.5t-73 187.5z" />
<glyph unicode=";" horiz-adv-x="747" d="M70 -185l96 479q4 22 4 51q0 31 -8 51t-14.5 30t-17.5 21h547l-297 -533q-6 -10 -10 -29t-4 -29q-1 -19 5 -41h-301zM118 840q0 113 75 189.5t188 76.5q108 0 186.5 -76t78.5 -187q0 -117 -80 -191.5t-194 -74.5q-108 0 -181 75.5t-73 187.5z" />
<glyph unicode="&#x3c;" horiz-adv-x="989" d="M62 577v140l708 421l136 -215l-511 -281l530 -278l-143 -211z" />
<glyph unicode="=" horiz-adv-x="931" d="M69 347v245h793v-245h-793zM69 682v245h793v-245h-793z" />
<glyph unicode="&#x3e;" horiz-adv-x="989" d="M41 364l531 278l-510 281l135 215l708 -421v-140l-720 -424z" />
<glyph unicode="?" horiz-adv-x="909" d="M69 1097v515q5 -3 27 -11.5t36 -8.5q5 0 100 13q57 8 96 7q227 0 380 -178q137 -161 137 -353q0 -205 -115 -362q-132 -180 -350 -180q-56 0 -119 7t-65 7q-31 -3 -50.5 -9.5t-43.5 -21.5v466l30 -24q29 -21 52 -26.5t57 -5.5q51 0 88.5 39t37.5 93q0 60 -45 95.5 t-104 30.5q-35 0 -65 -17q-21 -12 -48 -40zM82 233q0 113 73.5 191.5t190.5 78.5q115 0 191 -81t76 -196q0 -108 -78.5 -182t-191.5 -74q-109 0 -185 78t-76 185z" />
<glyph unicode="@" horiz-adv-x="1740" d="M105 770q0 358 236 581q227 214 564 214q324 0 534 -195q197 -183 197 -438q0 -245 -176 -433q-163 -174 -341 -174q-57 0 -82 34q-17 23 -17 62q0 13 1 22q0 3 3 9q-41 -48 -126 -85q-73 -32 -140 -33q-157 0 -246 112q-82 101 -82 254q0 191 121 333q127 149 310 149 q118 0 195 -58q57 -61 60 -64l21 105h197l-105 -622q-1 -4 -1 -14q0 -13 5.5 -22t19.5 -9q69 0 146 130t77 255q0 232 -159 381t-424 149q-264 0 -446.5 -179.5t-182.5 -455.5q0 -277 175 -458q184 -189 490 -189q127 0 224 44.5t195 142.5h192q-117 -169 -275 -254 t-350 -85q-373 0 -597 231q-213 219 -213 560zM656 717q0 -86 47.5 -142.5t123.5 -56.5q99 0 161 87q58 82 58 193q0 83 -31 133q-39 62 -118 62q-104 0 -172.5 -83t-68.5 -193z" />
<glyph unicode="A" horiz-adv-x="1917" d="M56 0q17 13 35.5 30t33 41.5t35.5 73.5t34 87l406 1132q26 73 34 105.5t6 50.5q-4 27 -16 47.5t-29 37.5h601l498 -1346q17 -44 49 -114q26 -54 41 -80q24 -46 53 -65h-669q12 16 18.5 30t8 25.5t1.5 28.5q0 27 -5 46t-8 29l-18 69h-425l-21 -66q-5 -17 -7.5 -40 t-2.5 -43q0 -21 3.5 -31t8.5 -22.5t14 -25.5h-679zM844 609h206l-104 349z" />
<glyph unicode="B" horiz-adv-x="1433" d="M102 0q8 10 15 20.5t13.5 25.5t13 37.5t6.5 40.5v1508q13 -8 59 -27q22 -12 31.5 -16t25.5 -4q34 0 188 34.5t224 34.5q205 0 365 -108.5t194 -286.5q15 -79 15 -137v-7q0 -54 -9 -94.5t-28 -83.5q53 -61 84.5 -126t45.5 -145q8 -49 8 -100q0 -130 -55 -248t-151.5 -192 t-224.5 -104q-95 -22 -222 -22h-598zM647 476q9 -3 19 -5q6 -1 18 -2q8 0 29 3q70 12 122 70t52 133q0 20 -4 39q-13 56 -44 96q-35 45 -95 70l-40 17l49 28q67 40 67 121q0 12 -1 18q-8 52 -41.5 87.5t-80.5 35.5q-10 1 -15 2h-13q-13 0 -22 -6v-707z" />
<glyph unicode="C" horiz-adv-x="1289" d="M76 815q0 183 75.5 346.5t219.5 282.5q109 91 215 136q130 56 275 56q75 0 138.5 -9t133.5 -18q16 0 27 3q5 1 48 23v-665l-44 37q-61 52 -115 74q-62 26 -139 26h-25q-17 -3 -26 -3q-99 -9 -177.5 -99t-78.5 -204q0 -130 83 -215q89 -92 243 -92q74 0 143 36 q38 19 86 61l53 45v-668q-32 23 -50 32q-27 16 -41 12q-65 -18 -126 -28.5t-116 -10.5q-180 0 -337 86t-286 246q-89 111 -134 241.5t-45 268.5z" />
<glyph unicode="D" horiz-adv-x="1565" d="M109 0q16 16 19 21q6 9 12 24t11.5 32.5t5.5 46.5v1496q40 -16 62 -22t37.5 -8t23.5 -2h18q34 0 208 34q82 16 142 16h7q364 0 609 -241q234 -230 234 -544q0 -267 -108 -455q-89 -153 -261 -266q-101 -67 -240 -102q-115 -30 -219 -30h-561zM669 506q9 -1 26 -2 q41 0 81.5 12.5t77.5 34.5q60 34 101.5 105.5t41.5 158.5q0 122 -71.5 205t-187.5 104q-9 3 -23 4t-23 1q-17 0 -23 -4v-619z" />
<glyph unicode="E" horiz-adv-x="1228" d="M121 0q21 17 36 43q8 16 10 28.5t2 39.5v1384q0 23 -2 37t-10 31q-14 23 -36 42h1047v-503q-14 13 -26 21q-16 12 -27 14q-45 13 -114 13h-319v-148h186q34 0 48.5 2t37 12.5t40.5 26.5v-462q-23 22 -42.5 28.5t-40.5 9t-35 2.5h-26h-168v-153h319q44 0 63.5 1.5t38 7 t35 15.5t30.5 20v-512h-1047z" />
<glyph unicode="F" horiz-adv-x="1228" d="M124 0q25 18 37 43q8 14 10.5 31.5t2.5 36.5v1384q0 27 -2 38.5t-11 29.5q-14 26 -37 42h1036l1 -517q-25 34 -57 46q-18 8 -36.5 10.5t-44.5 2.5h-336v-154h152q27 0 47.5 2.5t42.5 8.5t29 8l30 20v-456q-27 22 -53 29.5t-40 9t-36 1.5h-23h-149v-505q0 -25 1.5 -39 t9.5 -28.5t16 -24t21 -19.5h-611z" />
<glyph unicode="G" horiz-adv-x="1595" d="M64 811q0 183 71 347t210 281q115 96 224 146q137 64 277 64q71 0 125 -6.5t115 -14.5q13 0 18 1q12 1 26.5 7t52.5 27v-617l-28 16q-41 22 -91 37q-74 23 -142 24q-25 0 -44.5 -1.5t-40.5 -6.5q-117 -23 -184.5 -101.5t-67.5 -191.5q0 -139 85 -226q80 -82 214 -98 q6 -1 21 -2q25 0 59 8.5t44 11.5v110h-159q-25 1 -39 1q-27 0 -58 -7q-9 -3 -20 -8q-5 -3 -18 -11v437q10 -6 25 -14.5t31.5 -12t51.5 -7t83 -3.5h575v-652q0 -31 4.5 -52t8 -34t14.5 -30q8 -11 17 -23q-29 -14 -45 -23q-34 -17 -48 -29q-117 -93 -266 -139t-320 -46 q-163 0 -324 84q-169 88 -289 246q-82 106 -125 239t-43 269z" />
<glyph unicode="H" horiz-adv-x="1581" d="M99 0q9 6 15 14q4 5 21 29q9 13 11 29t2 39v1384v15q0 13 -3.5 28t-10.5 25.5t-15.5 22t-19.5 19.5h610q-13 -9 -19 -16.5t-17 -25.5q-8 -16 -10 -29.5t-2 -38.5v-470h241v470q0 23 -2 37t-10 31q-14 26 -36 42h611q-8 -5 -20 -20q-4 -5 -17 -22q-6 -9 -8.5 -24.5 t-2.5 -28.5v-15v-1384q0 -17 0.5 -35.5t12 -35.5t14.5 -19q11 -13 21 -21h-611q25 18 36 43q8 16 10 28.5t2 39.5v497h-241v-497q0 -25 1.5 -39t10 -28.5t16 -24t20.5 -19.5h-610z" />
<glyph unicode="I" horiz-adv-x="852" d="M122 0q9 6 15 14q4 5 21 29q9 13 11 29t2 39v1384v15q0 13 -3 28t-10.5 25.5t-15.5 22t-20 19.5h610q-13 -9 -18.5 -16.5t-17.5 -25.5q-8 -16 -10 -29.5t-2 -38.5v-1384q0 -25 1.5 -39t10 -28.5t16 -24t20.5 -19.5h-610z" />
<glyph unicode="J" horiz-adv-x="1034" d="M62 -62v516l13 -11q32 -26 65.5 -39t60.5 -13q9 0 22 3q65 13 87 71q15 38 15 115v10v44v861v15q0 18 -2 30t-9.5 23t-16 22.5t-20.5 19.5h611q-13 -9 -19 -16.5t-17 -25.5q-8 -16 -10 -29.5t-2 -38.5v-861q0 -163 -4 -213q-9 -111 -41 -186q-39 -89 -122 -155.5 t-191 -91.5q-75 -17 -197 -17q-25 0 -47.5 1t-44.5 1q-35 0 -54.5 -2t-35.5 -8t-24.5 -11.5t-16.5 -13.5z" />
<glyph unicode="K" horiz-adv-x="1690" d="M124 0q9 6 16 14q4 5 21 29q9 13 11 29t2 39v1384v15q0 13 -3.5 28t-10.5 25.5t-15.5 22t-20.5 19.5h611q-13 -9 -19 -16.5t-17 -25.5q-8 -16 -10 -29.5t-2 -38.5v-317l171 219q38 48 51 72q19 34 19 64q0 38 -25 72h722q-14 -12 -40 -43q-21 -25 -54 -69l-97 -124 l-401 -510q75 -40 160 -114q74 -65 128 -133q67 -84 119 -195q32 -70 68.5 -181.5t54.5 -152.5q10 -25 33 -50t31 -33h-633q5 23 7 35t2 29q0 79 -32.5 150t-99.5 149q-27 31 -70 63q-48 36 -88 54l-26 11v-380q0 -25 1.5 -39t9.5 -28.5t16 -24t21 -19.5h-611z" />
<glyph unicode="L" horiz-adv-x="1283" d="M118 0q9 6 16 14q4 5 20 29q6 9 9 24.5t3 28.5v15v1384v15q0 18 -2 30t-10 23t-16 22.5t-20 19.5h610q-22 -16 -36 -42q-8 -14 -10.5 -32t-2.5 -36v-1035h346q48 0 80 5.5t50.5 12.5t31 15.5t28.5 22.5v-516h-1097z" />
<glyph unicode="M" horiz-adv-x="2136" d="M57 0q6 6 18 16t18 18q36 58 43 79q17 54 27 132l151 1165q6 43 6 54.5v19.5q0 18 -4.5 41.5t-15.5 41.5t-32 38h595l204 -485l197 485h599q-21 -16 -28 -22q-17 -16 -25 -30t-12 -33.5t-4 -37.5q0 -25 4 -47l180 -1195q13 -86 19 -113q12 -54 26 -78q6 -13 18 -28 t20 -21h-646l35 41q19 23 26.5 46t7.5 45t-1 30q-3 6 -4 13l-80 560l-330 -801l-317 796l-77 -571q-3 -23 -2 -35q0 -27 4.5 -45.5t13 -35.5t13.5 -25q10 -13 14 -18h-661z" />
<glyph unicode="N" horiz-adv-x="1665" d="M104 0q9 6 15 14q4 5 21 29q9 13 11 29t2 39v1332q0 44 -3.5 64.5t-13.5 45.5q-5 14 -9.5 22.5t-22.5 29.5h477l402 -599v489v15q0 18 -2 30t-10 23t-16.5 22.5t-19.5 19.5h610q-13 -9 -19 -16.5t-17 -25.5q-8 -16 -10 -29.5t-2 -38.5v-1271q0 -71 5 -105q8 -32 12 -50 t11.5 -37.5t13.5 -31.5h-464l-409 603v-492q0 -25 1.5 -39t10 -28.5t16 -24t20.5 -19.5h-610z" />
<glyph unicode="O" horiz-adv-x="1782" d="M64 835q0 334 235.5 575t568.5 241q347 0 601.5 -245t254.5 -592t-239 -594t-588 -247q-346 0 -589.5 255t-243.5 607zM583 789q0 -119 90 -206.5t211 -87.5q128 0 221 88t93 212q0 137 -83 226q-88 95 -236 95q-137 0 -219 -97q-76 -91 -77 -230z" />
<glyph unicode="P" horiz-adv-x="1460" d="M111 0q21 17 37 43q8 16 9.5 28.5t1.5 39.5v1526q14 -10 37 -19q9 -4 48 -16q14 -5 28 -6.5t39 -1.5q53 0 145 15q210 32 239 32q213 0 381 -99t254 -290q22 -52 35 -113.5t13 -128.5q0 -92 -22 -175.5t-70 -160.5q-67 -106 -162 -174q-108 -78 -245 -101 q-27 -5 -49 -6.5t-50 -1.5h-37t-37 2l-33 2v-284q0 -29 2 -39.5t12 -32t35 -39.5h-611zM673 840q27 -9 52 -9q12 0 18 1q48 9 90 55q50 53 50 119q0 69 -42 109q-21 19 -62 37q-14 6 -37.5 9t-42.5 3q-21 0 -26 -3v-321z" />
<glyph unicode="Q" horiz-adv-x="1893" d="M65 817q0 338 234.5 581.5t567.5 243.5q355 0 610 -243t255 -585q0 -185 -59 -325q-47 -111 -155 -241l63 -85q40 -53 97.5 -115t98.5 -100q12 -12 25.5 -22t30.5 -22h-616q13 23 13 55q0 31 -6.5 43t-24.5 27l-32 -10q-58 -17 -116 -33q-73 -13 -163 -13 q-346 0 -584.5 247.5t-238.5 596.5zM590 787q0 -102 84 -195q78 -86 155 -86h2q-17 29 -67 91.5t-96 114.5l-48 58h493q-4 -8 -7 -23t-4 -21q-3 -23 12.5 -55.5t28.5 -36.5l11 19q25 45 31 75.5t6 82.5q0 126 -86.5 211.5t-220.5 85.5q-130 0 -212 -92.5t-82 -228.5z" />
<glyph unicode="R" horiz-adv-x="1691" d="M124 0q25 18 37 43q8 14 10.5 31.5t2.5 36.5v1517q10 -5 30 -16.5t44 -18.5q45 -12 93 -12q61 0 210 28.5t236 28.5q176 0 328.5 -113t201.5 -287q23 -80 23 -161q0 -132 -65 -250q-21 -38 -42 -66q-27 -35 -29 -38q41 -29 55 -39q47 -36 79 -75q69 -80 110 -184 q29 -70 56.5 -191t34 -143t24.5 -51q13 -21 27 -40h-592q4 31 4 64q0 70 -20 132t-67 118.5t-109 89.5q-60 23 -119 47v-340q0 -25 1.5 -39t9.5 -28.5t16 -24t21 -19.5h-611zM687 898q19 -4 34 -4q17 0 42 7q48 13 76 48t28 84q0 73 -52 112q-38 29 -77 29h-3q-13 1 -18 2 q-12 0 -18 -2q-9 -4 -12 -4v-272z" />
<glyph unicode="S" horiz-adv-x="1188" d="M64 1230q0 153 119 266q110 104 277 137q36 8 71 10.5t70 2.5q67 0 131 -11q64 -14 129 -28q16 3 34 7t29 6v-500l-39 47q-38 44 -85 73q-57 36 -107 37q-45 0 -76 -20t-31 -59q0 -10 1 -16q9 -51 125 -118q101 -58 151 -92q130 -87 197.5 -203t67.5 -265q0 -47 -8 -100 q-30 -211 -196 -324q-157 -107 -403 -107h-5q-40 0 -142.5 18t-150.5 18q-26 0 -45 -4t-38 -11t-34 -13v635l50 -46q66 -64 142.5 -111t138.5 -62q30 -8 54 -8q52 0 84.5 26t32.5 70q0 70 -69 126q-39 31 -191 115.5t-224 226.5q-60 117 -60 272v5z" />
<glyph unicode="T" horiz-adv-x="1287" d="M69 1094v511h1151v-511q-13 12 -28 26t-31 20.5t-34.5 8t-71.5 1.5h-149v-1039q0 -29 2 -39.5t9.5 -26.5t15 -25.5t21.5 -19.5h-611q13 10 19.5 18t16.5 23t12 31t2 39v1039h-160q-35 0 -64 -4.5t-47 -15.5q-27 -16 -53 -36z" />
<glyph unicode="U" horiz-adv-x="1555" d="M78 1605h610q-22 -16 -36 -42q-8 -14 -10.5 -32t-2.5 -36v-830q0 -88 19 -131q30 -63 106 -63h2q71 0 106 49q31 44 31 145v830v15q0 13 -3 28t-10 25q-10 16 -15 22q-9 12 -21 20h611q-13 -9 -19 -16.5t-18 -25.5q-8 -16 -9.5 -29.5t-1.5 -38.5v-830 q0 -167 -48.5 -295.5t-156.5 -229.5q-92 -86 -205 -130.5t-232 -44.5q-117 0 -223 39.5t-201 121.5q-122 106 -176 247q-49 126 -49 292v830v15q0 18 -2 30t-10 23t-16.5 22.5t-19.5 19.5z" />
<glyph unicode="V" horiz-adv-x="1889" d="M54 1605h689q-19 -31 -26.5 -57t-7.5 -51q0 -34 12 -71l211 -660l222 671q5 14 7.5 36t2.5 40q0 31 -5 45q-10 26 -29 47h686q-25 -19 -34 -29q-19 -19 -35 -43q-45 -74 -77 -171l-410 -1120q-27 -75 -30 -83q-14 -44 -14 -71q0 -25 9 -52.5t17 -35.5h-560l-490 1345 q-25 69 -39 103q-23 53 -47 89l-32 46q-12 16 -20 22z" />
<glyph unicode="W" horiz-adv-x="2619" d="M69 1605h726q-13 -12 -25 -36.5t-16.5 -40t-4.5 -30.5q0 -27 20 -89l167 -537l129 476q8 32 17 77.5t9 75.5q0 19 -5 38.5t-18.5 38t-20.5 27.5h537q-12 -12 -28.5 -34t-24 -37.5t-7.5 -36.5q0 -18 3 -33t15 -60l147 -541l167 508q16 49 23 80t7 60v15q-3 10 -3 15 q-6 31 -35 64h699q-13 -12 -28 -29.5t-29 -38.5q-35 -53 -54 -91t-42 -101l-411 -1114q-18 -48 -24 -72q-10 -36 -11 -68q0 -23 10.5 -51t22.5 -40h-502l-165 551l-114 -405q-4 -16 -7.5 -33.5t-3.5 -37.5q0 -8 3 -19.5t9 -27.5t16 -28h-486l-487 1340q-31 86 -55 129 q-14 26 -45 64q-14 21 -35 39q-14 13 -40 33z" />
<glyph unicode="X" horiz-adv-x="1958" d="M54 0q17 14 47 44q35 35 51 55q41 54 103 165q49 88 86 156l250 452l-277 476q-23 41 -52 82q-19 29 -88 110q-19 25 -39 43q-8 6 -25 22h755q-13 -14 -26 -34q-17 -25 -19 -37t-2 -25q0 -18 7.5 -39t28.5 -58l97 -177l114 197q12 22 25 44q12 25 12 47q-1 8 -2 12 q-4 22 -18 42q-9 14 -24 28h728q-14 -12 -46 -43.5t-54 -56.5q-69 -75 -199 -312l-177 -322l361 -614q29 -51 70 -105q5 -6 70 -87q21 -26 39 -43q5 -5 24 -22h-758q17 18 27 34q18 26 18 41q0 31 -6.5 54t-33.5 65l-163 264l-161 -286q-22 -39 -26 -49q-12 -27 -8 -52 q3 -21 20 -42q10 -13 27 -29h-756z" />
<glyph unicode="Y" horiz-adv-x="1827" d="M69 1605h707q-16 -18 -24 -31q-16 -25 -16 -44q0 -27 30 -72l32 -46l122 -190l130 199q19 31 31.5 62t12.5 57q0 21 -8.5 37t-20.5 28h702q-17 -12 -41 -39t-46 -56q-69 -93 -114 -159q-34 -49 -100 -151l-307 -473v-616q0 -29 2 -39.5t12 -32t35 -39.5h-610q9 6 15 14 q4 5 21 29q6 9 9 24.5t3 28.5v15v624l-382 613q-41 67 -75 115q-27 40 -59 79q-21 26 -38 42q-4 4 -23 21z" />
<glyph unicode="Z" horiz-adv-x="1616" d="M70 0l638 1137h-208q-31 0 -67 -1t-66 -7t-49 -17q-8 -5 -30 -21v514h1269l-647 -1137h329h16h17q25 0 59.5 1.5t63.5 8.5q35 12 74 39v-517h-1399z" />
<glyph unicode="[" horiz-adv-x="773" d="M100 -487q5 5 17 19q23 27 31.5 39.5t13 35t4.5 60.5v22v1848v26q0 23 -8.5 42.5t-22.5 34.5t-31 26h601v-358q-16 13 -26 17l-21 7t-37 6h-49v-1507h32q45 0 73 11l28 14v-343h-605z" />
<glyph unicode="\" horiz-adv-x="1946" d="M56 1668h635q-9 -13 -14.5 -25t-8.5 -22t-3 -14q-4 -18 -4 -28q0 -18 6 -40t20 -46l1016 -1757q57 -102 105 -162q25 -32 60 -63h-593q3 8 8 29.5t7 25.5q1 5 1 17q0 23 -13 56t-58 112l-979 1703q-51 89 -113 151q-22 21 -35 32q-21 18 -37 31z" />
<glyph unicode="]" horiz-adv-x="786" d="M69 -130q6 -4 13 -9q8 -5 20 -9.5t23 -7.5t29 -3h50v1506h-33q-47 0 -74 -11l-28 -14v344h606q-8 -8 -24.5 -28t-25.5 -32q-12 -19 -14.5 -48.5t-2.5 -68.5v-1848q0 -17 0.5 -33t9 -35.5t23 -35t29.5 -24.5h-601v357z" />
<glyph unicode="^" horiz-adv-x="865" d="M60 1233q45 34 72 59t53 50q32 30 153 160q12 13 95 103q38 -47 119.5 -131t161.5 -164q14 -14 43 -40q38 -34 44 -39h-321q9 18 7 30q-1 18 -33 56q-19 22 -30 26q-12 -4 -32 -33t-26 -47q-4 -9 0 -20q1 -4 5 -10h-311z" />
<glyph unicode="_" horiz-adv-x="1419" d="M0 -130h1430v-134h-1430v134z" />
<glyph unicode="`" horiz-adv-x="693" d="M64 1303l105 302q1 -6 14 -26t19.5 -28.5t22.5 -21t30 -22.5l387 -270l-466 73q-13 1 -22.5 2t-14.5 1q-10 0 -20.5 -1.5t-14.5 -1.5z" />
<glyph unicode="a" horiz-adv-x="1383" d="M69 581q0 277 176 446q170 163 433 163q149 0 281 -77q45 -26 206 -153q14 -12 57.5 -25.5t62.5 -16.5q-16 -17 -22 -24q-12 -12 -17 -23q-12 -21 -16.5 -39t-4.5 -56v-652q0 -19 4.5 -41t12.5 -42q3 -9 8 -16l20 -25h-396v76l-38 -24q-48 -31 -89 -48q-69 -27 -144 -27 q-231 0 -385 181q-149 176 -149 423zM483 586q0 -75 53.5 -128.5t127.5 -53.5q38 0 72.5 12.5t48.5 29.5l23 18v244l-26 24q-25 22 -58.5 32.5t-71.5 10.5q-70 0 -119.5 -57t-49.5 -132z" />
<glyph unicode="b" horiz-adv-x="1345" d="M79 205q1 5 14 18t20.5 26.5t12.5 33.5t5 49v1169v36q0 26 -3.5 38t-10.5 19l-11 11h442v-468q31 10 55 15q45 12 96 12q12 0 26.5 -1.5t23.5 -1.5q228 -23 376 -200.5t148 -419.5q0 -248 -174 -426.5t-404 -178.5q-174 0 -350 122q-79 56 -157 112q-17 10 -50.5 21 t-58.5 14zM548 424l25 -21q49 -40 132 -40q67 6 112.5 61.5t45.5 128.5q0 75 -55 129t-131 54q-35 0 -62.5 -13t-49.5 -35l-17 -17v-247z" />
<glyph unicode="c" horiz-adv-x="942" d="M61 594q0 241 162 409.5t395 168.5q56 0 100 -7t80 -13q18 0 37.5 8t27.5 10v-505l-26 25q-27 25 -61 41q-51 26 -99 26q-12 -1 -19 -1q-91 -8 -131.5 -59t-40.5 -133q0 -80 54.5 -133.5t134.5 -53.5q49 0 98 25q34 17 63 43l34 29v-521q-14 6 -29 13t-26 7 q-12 0 -70 -5.5t-80 -5.5q-17 0 -35 1.5t-38 5.5q-241 43 -386 212.5t-145 412.5z" />
<glyph unicode="d" horiz-adv-x="1326" d="M171 913.5q102 161.5 303 233.5q35 12 76 19t77 7q40 0 70.5 -4.5t77.5 -14.5v337q0 48 -12 77q-6 14 -10 21q-3 4 -13 16h453v-1250q0 -41 3.5 -64t12.5 -46q3 -6 16 -30q9 -16 12 -24q-43 -5 -70.5 -13t-41.5 -20q-113 -91 -124 -98q-74 -52 -149 -79q-91 -32 -201 -33 q-214 0 -392 161q-190 171 -190 414q0 229 102 390.5zM482 565q0 -75 47.5 -132.5t110.5 -57.5q16 -1 21 -2q29 0 54 10t41 23l19 15v278l-14 11q-19 16 -46.5 25.5t-58.5 9.5q-14 0 -22 -1q-61 -9 -106.5 -59t-45.5 -120z" />
<glyph unicode="e" horiz-adv-x="1348" d="M64 556q0 176 84 331q74 136 208.5 214.5t278.5 78.5q165 0 305 -74q156 -83 249 -244q48 -83 67 -210q13 -84 13 -187q0 -14 6 -28.5t11 -26.5h-747q30 -48 84.5 -75t121.5 -27q83 0 152 26q67 32 88 42v-402q-23 9 -38 14.5t-32 3.5q-74 -13 -137.5 -23t-111.5 -10 q-123 0 -232.5 46t-195.5 127.5t-130 193t-44 230.5zM509 688h321l-11 25q-18 40 -64 67.5t-97 27.5q-47 0 -88 -33q-36 -29 -52 -66z" />
<glyph unicode="f" horiz-adv-x="931" d="M75 769v368h135v89q0 127 66.5 226.5t184.5 141.5q41 14 94 23.5t122 9.5h40q32 0 44.5 3t27.5 8.5t42 15.5v-390q-13 10 -43 18.5t-54 8.5q-18 0 -29 -5q-40 -18 -59 -48t-19 -69v-32h206v-370q-9 5 -18 10.5t-31 8t-39 2.5h-17h-101v-677q0 -29 2 -39.5t10 -26.5 t15 -25.5t21 -19.5h-513q9 6 16 14q4 5 20 29q6 9 9 24.5t3 28.5v15v677h-57q-26 0 -37.5 -2t-18.5 -4q-10 -4 -22 -13z" />
<glyph unicode="g" horiz-adv-x="1354" d="M66 563q0 257 177 432t427 175q118 0 211 -33q76 -27 151 -81q64 -51 128 -99q12 -9 47 -19t79 -15q-3 -6 -29 -34q-16 -16 -20 -27q-12 -23 -15.5 -48t-3.5 -48v-705q0 -118 -31 -207t-102 -162q-88 -91 -181.5 -133t-226.5 -55q-12 -1 -22.5 -2t-25.5 -1 q-65 0 -163.5 17.5t-116.5 17.5q-21 0 -42 -10q-27 -17 -43 -25v463l72 -39q43 -25 113.5 -42t150.5 -17q83 0 140 46q51 40 51 88q-29 -12 -77 -21t-101 -9q-232 0 -389.5 175.5t-157.5 417.5zM487 560q0 -73 56 -127.5t131 -54.5q30 0 62 13q19 8 39 21l26 16v267l-26 21 q-39 31 -97 31q-9 0 -19.5 -1.5t-15.5 -1.5q-64 -8 -110 -60.5t-46 -123.5z" />
<glyph unicode="h" horiz-adv-x="1385" d="M89 0q9 6 16 14q4 5 21 29q9 13 11 29t2 39v1384v15q0 13 -3.5 28t-10.5 25.5t-15.5 22t-20.5 19.5h466v-470q47 23 104.5 32.5t135.5 9.5q118 0 233 -77q106 -70 168 -176q39 -67 52 -173q6 -53 7 -151v-489q0 -25 1 -39t9.5 -28.5t16.5 -24t21 -19.5h-514 q10 8 17.5 17.5t17 24t11.5 32t2 37.5v432v47q0 108 -33 142.5t-98 34.5q-43 0 -90 -27q-25 -14 -61 -43v-586q0 -29 2 -39.5t12 -32t35 -39.5h-515z" />
<glyph unicode="i" horiz-adv-x="745" d="M119 0q9 6 16 14q4 5 21 29q9 13 11 29t2 39v914v16q0 14 -3 28.5t-10.5 25.5t-16 22.5t-20.5 19.5h466v-1026q0 -29 1.5 -39.5t12 -32t35.5 -39.5h-515zM163 1414q0 87 60.5 151t145.5 64q89 0 154 -58.5t65 -147.5q0 -93 -62 -159t-154 -66q-87 0 -148 64.5t-61 151.5z " />
<glyph unicode="j" horiz-adv-x="784" d="M-106 -80q19 -18 54.5 -30t72.5 -12q26 0 45 5q64 16 88 94q17 54 17 142v906v16q0 19 -2 30t-9.5 23t-16 23.5t-20.5 19.5h465v-1026v-40q0 -104 -10 -160q-17 -93 -66 -165q-54 -79 -132 -130q-73 -47 -160 -66q-41 -9 -113 -10t-100.5 -5t-60.5 -15t-52 -19v419z M170 1422q0 89 60 154.5t146 65.5q104 0 171 -62t67 -155q0 -92 -67 -157t-161 -65q-88 0 -152 64t-64 155z" />
<glyph unicode="k" horiz-adv-x="1383" d="M111 0q9 6 16 14q4 5 21 29q6 9 8.5 24.5t2.5 28.5v15v1384v15q0 18 -1.5 30t-9.5 23t-16.5 22.5t-20.5 19.5h466v-726l137 126q26 22 41 40.5t16 35.5q1 12 -4 27.5t-14 28.5h621q-18 -14 -35 -29q-12 -10 -49 -45l-117 -113l-244 -244l26 -10q93 -38 155.5 -111 t92.5 -175q19 -65 27 -133q18 -162 23 -180q12 -36 26 -57q19 -23 31 -40h-517q1 4 5 34t4 57q0 115 -7 157q-14 75 -65 134q-32 39 -77.5 59t-75.5 20v-350q0 -25 1 -39t9.5 -28.5t16.5 -24t21 -19.5h-514z" />
<glyph unicode="l" horiz-adv-x="882" d="M197 0q9 6 16 14q4 5 20 29q6 9 9 24.5t3 28.5v15v1384v15q0 18 -2 30t-9.5 23t-16 22.5t-20.5 19.5h465v-1494q0 -25 1.5 -39t10 -28.5t16 -24t20.5 -19.5h-513z" />
<glyph unicode="m" horiz-adv-x="2031" d="M69 913q43 9 62 14t33.5 14t118.5 88q84 65 153 95q101 44 215 44q115 0 223 -31q76 -22 110 -46l70 -49l57 40q52 36 124 60q86 28 180 28h6q126 0 239 -58.5t178 -153.5q48 -69 67.5 -135.5t19.5 -152.5v-546q0 -29 2 -46t10 -38t20 -40h-481q9 13 12 19q4 8 10 22.5 t8.5 36.5t2.5 46v466q0 92 -34 131q-27 31 -88 39q-5 1 -16 1q-34 0 -74 -20q-17 -8 -53 -32v-585q0 -25 2 -44.5t10 -40t19 -39.5h-480q6 12 12 21.5t10.5 22t7 34.5t2.5 46v452q0 93 -32.5 145t-89.5 52q-9 -1 -14 -2q-48 -6 -89 -30.5t-54 -52.5v-564q0 -25 2 -44.5 t10 -40t19 -39.5h-480q14 19 20.5 36t9 42.5t2.5 45.5v624q0 49 -5 75t-27 57q-4 5 -14 15t-16 18z" />
<glyph unicode="n" horiz-adv-x="1331" d="M56 913q41 9 60.5 14t33.5 14q65 39 123 80q67 48 109 72q69 40 146 57.5t150 17.5q36 0 66 -4q249 -26 388 -240q43 -65 63 -172q14 -75 14 -152v-489q0 -27 2 -40t10 -27.5t15 -24t21 -19.5h-513q9 6 16 14q4 5 20 29q6 9 9 24.5t3 28.5v15v432v32.5t1 35.5 q0 92 -31.5 122t-91.5 30q-45 0 -84 -18q-27 -13 -52 -36v-598q0 -29 2 -39.5t9.5 -26.5t15 -25.5t21.5 -19.5h-513q9 6 15 14q4 5 21 29q6 9 9 24.5t3 28.5v15v619q0 43 -4 66q-8 45 -30 80z" />
<glyph unicode="o" horiz-adv-x="1348" d="M64 557q0 248 180 429.5t420 181.5q250 0 429 -175t179 -428q0 -249 -184.5 -421.5t-435.5 -172.5q-241 0 -414.5 172.5t-173.5 413.5zM487 564q0 -73 52 -126t123 -53q75 0 135 49t60 122q0 82 -56 139t-139 57q-69 0 -122 -57t-53 -131z" />
<glyph unicode="p" horiz-adv-x="1332" d="M66 929q18 0 57.5 11t57.5 24q66 48 134 96q80 54 148 81q86 33 186 33h6q244 0 422 -162q187 -169 187 -418q0 -268 -167 -448q-161 -173 -393 -173h-3q-58 0 -96 5q-31 6 -61 13v-324q0 -25 2 -38.5t10 -29.5q13 -27 36 -42h-513q10 6 18 16.5t17 24.5t11 30.5t2 38.5 v1061q0 43 -5 77.5t-22 72.5q-4 10 -17.5 26t-16.5 25zM544 441l17 -15q17 -14 47 -25.5t60 -11.5q10 0 15 1q75 10 122 58t47 122q0 71 -47.5 124t-113.5 59q-8 1 -22 1q-30 0 -52 -7.5t-47 -24.5l-26 -17v-264z" />
<glyph unicode="q" horiz-adv-x="1340" d="M251 1012q179 162 424 162q104 0 191 -32q67 -25 148 -80q66 -49 133 -98q18 -13 58.5 -24t58.5 -11q-3 -6 -16 -22.5t-18 -28.5q-10 -23 -18.5 -63t-8.5 -87v-1061q0 -16 0.5 -34.5t9.5 -31.5t17.5 -25t20.5 -19h-513q14 9 19.5 16.5t15.5 24.5t11 38t1 31v324 q-30 -6 -70.5 -12t-85.5 -6q-232 0 -396 173q-168 178 -168 445q0 252 186 421zM478 570q0 -73 47.5 -121t121.5 -59q5 -1 17 -1q29 0 58 11.5t47 25.5l16 15v264l-25 17q-23 16 -47.5 24t-54.5 8q-13 0 -19 -1q-66 -6 -113.5 -58.5t-47.5 -124.5z" />
<glyph unicode="r" horiz-adv-x="886" d="M62 916q45 10 72 17t40 15q67 65 130.5 108.5t153.5 72.5q49 17 145 20t118 12l62 33v-476q-48 26 -52 27q-30 12 -78 12q-36 0 -64.5 -16t-53.5 -49v-581q0 -25 1.5 -39t10 -28.5t16 -24t20.5 -19.5h-513q10 8 17.5 17.5t17 24t11.5 30.5t2 39v645q0 35 -8.5 67 t-23.5 58z" />
<glyph unicode="s" horiz-adv-x="1005" d="M74 854q0 141 108 241.5t278 100.5q40 0 57 -1.5t44 -7.5t79 -10t92 -4h29q10 3 13 3q14 1 29 9.5t28 14.5v-407l-39 26q-23 14 -69 35t-80.5 32t-70.5 11q-35 0 -56.5 -9.5t-24.5 -30.5v-7q0 -44 69 -69q75 -27 148 -51q121 -65 170 -139q57 -87 57 -233 q0 -158 -118 -262q-113 -99 -300 -123q-6 -1 -16 -1.5t-15 -0.5q-54 0 -146 16t-190 32q-39 0 -64 -19v476l60 -47q19 -17 69 -47q64 -39 112 -57q61 -23 106 -23q58 0 74 38q5 16 5 22q0 41 -130 94q-82 34 -123 60q-95 61 -137 132q-48 82 -48 206z" />
<glyph unicode="t" horiz-adv-x="978" d="M60 784l646 712v-359h203v-372q-6 4 -20.5 9.5t-25 7.5t-25 2h-21.5h-33h-78v-673q0 -25 1.5 -39t10 -28.5t16 -24t20.5 -19.5h-513q9 6 16 14q4 5 20 29q6 9 9 24.5t3 28.5v15v673h-229z" />
<glyph unicode="u" horiz-adv-x="1329" d="M62 1137h515q-12 -8 -19 -17t-17 -24t-11.5 -31t-1.5 -40v-431v-34q0 -86 18 -131q30 -76 110 -76q47 0 85 18q27 13 54 37v617q0 29 -2 40t-11 29q-13 27 -37 43h515q-9 -6 -20 -20q-5 -8 -15 -22t-12 -30t-2 -40v-618q0 -35 5.5 -85.5t17.5 -73.5q5 -12 10.5 -22.5 t19.5 -29.5q-34 -6 -56.5 -14t-42.5 -17q-53 -25 -98 -55q-100 -65 -130 -79q-71 -35 -149.5 -50.5t-147.5 -15.5q-35 0 -64 4q-126 13 -226.5 74.5t-171.5 165.5q-34 48 -50.5 126t-16.5 202v488q0 29 -1.5 40t-10.5 29q-13 27 -37 43z" />
<glyph unicode="v" horiz-adv-x="1577" d="M61 1137h596q-29 -26 -34.5 -45t-5.5 -34q0 -26 8.5 -58.5t22.5 -68.5l130 -310l133 333q18 44 25.5 69.5t3.5 41.5q-5 25 -22 45t-24 27h617q-19 -16 -37 -35q-13 -14 -17 -20q-12 -12 -36.5 -50t-33.5 -56l-376 -810q-16 -35 -19 -49q-8 -25 -8 -53q0 -21 6.5 -33 t28.5 -31h-424l-451 1010q-3 6 -20.5 36t-24.5 43z" />
<glyph unicode="w" horiz-adv-x="2222" d="M56 1137h627q-13 -13 -20.5 -25t-11.5 -22q-3 -5 -4 -19.5t-1 -16.5q0 -30 11 -64l114 -303l101 281q12 30 17 51t5 44q0 22 -4.5 39t-14.5 35h463q-25 -39 -25 -81q0 -29 6.5 -54t22.5 -64l99 -252l91 251q21 54 26 76.5t5 45.5q0 14 -2 27t-4.5 22t-11.5 29h618 q-29 -19 -50 -44q-16 -18 -33.5 -47.5t-34.5 -66.5l-342 -751q-23 -52 -34 -87.5t-11 -60.5q1 -9 1 -13q3 -17 11.5 -35t19.5 -32h-416l-167 428l-106 -285q-8 -22 -9 -29q-6 -23 -7 -47q0 -10 2 -20.5t8 -20.5t17 -26h-396l-442 960q-14 34 -40 78q-19 34 -35 52z" />
<glyph unicode="x" horiz-adv-x="1729" d="M69 0q23 17 49 39q10 9 33.5 31t39.5 39.5t41 48.5l356 438l-340 416q-12 16 -34 39q-16 17 -35 38q-10 13 -29 28q-12 9 -22 20h678q-17 -14 -22 -24t-5 -20q-1 -19 12.5 -49t27.5 -59l60 -113l78 118q17 30 24.5 49t7.5 29v22q0 23 -13 47h656q-25 -22 -44 -40 q-25 -26 -31 -33l-74 -88l-310 -381l369 -471q13 -17 34 -37q30 -31 36 -38q5 -6 19 -17q18 -15 44 -32h-676q16 18 25 45q3 13 3 19q0 21 -15 45q-5 9 -29 43l-107 150l-123 -159q-16 -21 -21 -30q-12 -21 -15 -38t-3 -23q0 -23 18 -52h-663z" />
<glyph unicode="y" horiz-adv-x="1558" d="M56 1137h612q-3 -4 -16 -23.5t-16 -25.5q-9 -21 -9 -56q0 -22 1.5 -33t9.5 -29l125 -336l118 295q16 41 23 64t7 48q0 14 -2.5 26.5t-11.5 32.5t-25 37h620q-30 -23 -52 -48q-17 -18 -27 -34q-21 -27 -48 -80q-9 -17 -78 -170l-496 -1103q-21 -45 -21 -91q0 -13 2 -23.5 t15 -31t27 -33.5h-623q25 17 40 31t36 39q40 44 66 101l210 458l-347 773q-10 25 -35 69q-32 58 -59 91z" />
<glyph unicode="z" horiz-adv-x="1455" d="M52 0l556 783l-217 2q-41 0 -71.5 -4.5t-52.5 -15.5q-12 -5 -19 -11q-5 -4 -17 -15v398h1153l-566 -786h333q16 0 28 -0.5t21 -0.5q16 0 30 2.5t33 11.5t38 30v-394h-1249z" />
<glyph unicode="{" horiz-adv-x="815" d="M60 563q91 13 145 86q25 32 32.5 68t7.5 85v37v426q0 82 15 136.5t61 99.5q38 36 82 48t108 12l256 1q-89 -22 -144 -100q-29 -40 -36.5 -79.5t-7.5 -103.5v-444q0 -67 -7 -101q-12 -51 -48 -94q-52 -58 -126 -76q45 -9 73 -24t54 -47q34 -41 45 -99q8 -39 8 -114v-473 q0 -49 8 -80.5t32 -66.5q63 -82 155 -98l-260 -4q-86 0 -161 44t-90 102q-6 26 -13 62.5t-7 68.5v492q0 56 -12 100t-39.5 73t-59 46t-71.5 17z" />
<glyph unicode="|" horiz-adv-x="457" d="M104 -442v2000h238v-2000h-238z" />
<glyph unicode="}" horiz-adv-x="829" d="M49 -438q53 9 87 31t68 67q23 32 31.5 66.5t8.5 80.5v473q0 80 8.5 124t44.5 89q25 31 54.5 47t72.5 24q-74 18 -126 76q-35 40 -45.5 86.5t-10.5 108.5v444q0 64 -7.5 103.5t-36.5 79.5q-54 78 -144 100l257 -1q69 0 109 -11t80 -49q47 -45 64 -105q13 -47 13 -131v-426 v-37q0 -54 6.5 -86t33 -67t62 -57.5t83.5 -28.5q-39 0 -72 -17t-59.5 -46t-39 -72.5t-12.5 -100.5v-492q0 -38 -3.5 -63t-16.5 -75t-90.5 -94.5t-160.5 -44.5z" />
<glyph unicode="~" horiz-adv-x="906" d="M58 1479q25 10 50 22q45 44 76 67q57 43 128 43q73 0 183 -65q53 -31 104 -31q25 0 43 26q6 9 27 56l167 -178q-23 -6 -38 -10.5t-23 -9.5q-67 -48 -78 -55q-45 -27 -96 -35q-18 -3 -28 -2q-54 0 -145 40t-120 40q-6 0 -19 -3q-27 -8 -39 -28q-13 -31 -22 -52z" />
<glyph unicode="&#xa1;" horiz-adv-x="795" d="M40 -468q13 12 21 22t15 25q14 25 26 80q5 22 13 79l86 712q1 10 1 15q0 17 -4 38.5t-11.5 38.5t-25.5 37h437l-24 -40q-9 -19 -13.5 -42.5t-1.5 -42.5l93 -705q8 -66 21.5 -114t22.5 -58t17.5 -25t13.5 -20h-687zM124 884q0 114 77.5 196.5t188.5 82.5 q108 0 185.5 -77.5t77.5 -185.5q0 -109 -75.5 -189t-183.5 -80q-109 0 -189.5 74t-80.5 179z" />
<glyph unicode="&#xa2;" horiz-adv-x="943" d="M58 809q0 191 133 350q122 145 289 196l33 9v111q0 22 -9 49q-3 13 -10 21t-12 13h302v-188l39 -4l42 -1v-485q-45 48 -96 73.5t-103 25.5q-78 0 -129 -54t-51 -132q0 -86 54.5 -137.5t132.5 -51.5q41 0 90 22q38 17 61 38l38 33v-501q-10 6 -17 9q-14 6 -30 6 q-21 0 -31 -2v-86q0 -19 0.5 -40t6.5 -42l10 -32h-293v205l-34 10q-185 61 -300.5 222.5t-115.5 362.5z" />
<glyph unicode="&#xa3;" horiz-adv-x="1550" d="M62 565v408h140v51q0 109 22 194q29 113 99.5 209t200.5 147q106 41 217 41q51 0 106 -6.5t110 -12.5q18 0 31 1t59 10v-516l-39 32q-38 27 -55 36q-32 16 -69 15q-18 0 -27 -1q-66 -8 -97.5 -48.5t-31.5 -103.5v-36h80q25 0 42 3.5t47 13.5q13 5 24 12t17 11v-409h-206 v-180q16 -4 38 -4q36 0 72 11.5t65 39.5t42 65t13 81h514q-19 -23 -27 -34q-16 -19 -21 -36q-31 -106 -61 -212q-43 -111 -141 -202q-82 -75 -194 -113q-96 -32 -195 -32h-670q16 21 23.5 41t9.5 42.5t2 40.5v485q-6 1 -19 2q-34 0 -73 -13q-10 -4 -23 -13q-6 -5 -25 -20z " />
<glyph unicode="&#xa5;" horiz-adv-x="1836" d="M56 1605h707q-18 -18 -29 -40.5t-11 -34.5q0 -26 30 -72q16 -23 31 -46l122 -190l130 199q21 31 33 61.5t12 57.5q0 21 -9 37.5t-21 27.5h701q-14 -12 -38.5 -39t-46.5 -56q-69 -93 -114 -159q-34 -49 -100 -151l-307 -429h238q13 0 20 3l18 9q21 8 39 28v-250h-315v-100 h238q17 0 39 10.5t38 30.5v-251h-315v-140q0 -29 2 -39.5t9.5 -26.5t15 -25.5t21.5 -19.5h-611q12 8 21 19q5 6 15 21.5t12 31.5t2 39v140h-225q-10 0 -17 -1q-4 -1 -24 -10q-10 -5 -18 -11q-5 -4 -17 -15v247h301v100h-225q-22 0 -41 -10q-27 -17 -35 -48v268h301l-382 577 q-41 67 -75 115q-27 40 -59 79q-21 26 -38 42q-4 4 -23 21z" />
<glyph unicode="&#xa7;" horiz-adv-x="1149" d="M64 688q0 97 45 170t133 127l56 33q-60 54 -85 113t-25 141q0 141 114 233.5t267 92.5q183 0 292 -116t109 -293h-125q1 12 1 32q0 75 -33 133.5t-100 90.5q-26 13 -62.5 21t-68.5 8q-88 0 -159.5 -43.5t-89.5 -120.5q-6 -29 -6 -49q0 -67 48 -131q43 -57 116 -101 l327 -202q128 -78 185 -145q78 -91 78 -205q0 -97 -49 -174q-44 -69 -134 -129l-66 -46q67 -53 99 -112t32 -142q0 -150 -111 -246.5t-279 -96.5q-181 0 -298 124q-111 119 -112 294h136q-1 -12 -1.5 -25t-0.5 -20q0 -105 74 -174q38 -34 94.5 -53t113.5 -19 q71 0 128.5 28.5t84.5 87.5q21 45 21 96q0 65 -32.5 122t-92.5 96l-456 303q-84 56 -126 128t-42 169zM185 713q0 -71 35 -125q31 -47 98 -90l440 -292l55 34q67 40 101 87q39 53 39 123q0 66 -29.5 113.5t-87.5 83.5l-464 297l-45 -26q-67 -36 -103 -83q-39 -52 -39 -122z " />
<glyph unicode="&#xa8;" horiz-adv-x="928" d="M66 1443q0 69 50 118.5t119 49.5q74 0 126 -50t52 -124q0 -69 -51.5 -119t-119.5 -50q-73 0 -124.5 50.5t-51.5 124.5zM517 1443q0 69 50 118.5t117 49.5q74 0 127.5 -49.5t53.5 -124.5q0 -70 -52 -120.5t-121 -50.5q-71 0 -123 52t-52 125z" />
<glyph unicode="&#xa9;" horiz-adv-x="1699" d="M67 782q0 319 195 538q218 245 587 245q371 0 587 -244q196 -220 196 -539q0 -318 -195 -537q-217 -245 -588 -245q-369 0 -586 244q-196 220 -196 538zM152 782q0 -284 173 -480q193 -218 524 -218q329 0 524 218q175 197 175 480q0 285 -174 481q-193 218 -525 217 q-329 0 -522 -217q-175 -197 -175 -481zM441 776q0 205 102 344q114 154 312 154q136 0 236 -67q106 -73 129 -197l6 -37h-93l-8 30q-19 89 -97.5 138t-173.5 49q-166 0 -250 -130q-71 -109 -71 -282q0 -175 53 -267q70 -122 246 -142q9 -1 27 -1q100 0 180.5 74t102.5 181 h93q-27 -150 -138.5 -240.5t-269.5 -90.5q-204 0 -303 151q-83 127 -83 333z" />
<glyph unicode="&#xaa;" horiz-adv-x="791" d="M58 1281q0 149 93 239t235 90q79 0 151 -42q23 -14 112 -83q9 -8 30 -15t34 -8l-21 -25q-8 -14 -9 -19q-3 -9 -2 -31v-353q0 -13 3.5 -26t5.5 -19q3 -6 15 -22h-214v41l-19 -14q-21 -13 -52.5 -22t-73.5 -9q-117 0 -202.5 94t-85.5 224zM66 787v115h648v-115h-648z M281 1283q0 -41 28.5 -69.5t68.5 -28.5q18 0 38.5 7.5t26.5 15.5l13 9v131l-14 14q-27 23 -70 24q-39 -4 -65 -34t-26 -69z" />
<glyph unicode="&#xab;" horiz-adv-x="1158" d="M65 506v224l456 338v-222l-324 -232l318 -225v-235zM636 506v224l458 338v-222l-324 -232l316 -225v-235z" />
<glyph unicode="&#xac;" horiz-adv-x="1699" d="M71 546v122h1567v-668h-129v546h-1438z" />
<glyph unicode="&#xad;" d="M62 412v408h683q17 0 32 3t33 12t35 27v-399h-649q-23 0 -49 -5.5t-50 -16.5q-12 -6 -18 -12z" />
<glyph unicode="&#xae;" horiz-adv-x="1699" d="M61 782q0 319 194 538q218 245 588 245q371 0 587 -244q196 -220 195 -539q0 -318 -194 -537q-217 -245 -588 -245q-369 0 -586 244q-196 220 -196 538zM145 782q0 -284 174 -480q193 -218 524 -218q329 0 523 218q175 197 175 480q0 285 -174 481q-193 218 -524 217 q-329 0 -523 -217q-175 -197 -175 -481zM526 302v938h345q153 0 233 -42q111 -60 112 -203q0 -86 -39.5 -142.5t-116.5 -90.5q44 -25 51 -30q25 -18 40.5 -47.5t21 -61.5t5.5 -70q0 -13 -1 -42.5t-1 -45.5q0 -32 4.5 -63t15.5 -65q4 -9 9.5 -18t11.5 -17h-97q-4 0 -8 1 q-18 38 -22.5 199.5t-79.5 202.5q-25 13 -49.5 17.5t-54.5 4.5h-38h-250v-425h-92zM618 806h263q106 0 166 34q78 44 78 145q0 99 -76 143q-60 35 -162 35h-269v-357z" />
<glyph unicode="&#xb0;" horiz-adv-x="528" d="M58 1356q0 16 2 23q8 87 67 136q53 44 128 44q80 0 139 -49q64 -54 64 -145q-1 -15 -2 -23q-8 -88 -66 -137q-53 -44 -129 -44q-80 0 -139 50q-64 54 -64 145zM127 1349q5 -57 41 -86.5t85 -29.5q53 0 91 33t38 91v14q-5 56 -42 86t-85 30q-52 0 -90 -33t-38 -90v-15z " />
<glyph unicode="&#xb1;" horiz-adv-x="998" d="M49 -3v83h873v-83h-873zM65 642l2 109h379v383h102v-385h383v-107h-385v-383h-100v383h-381z" />
<glyph unicode="&#xb4;" horiz-adv-x="694" d="M58 1259l367 254q36 26 46 33q16 13 29 30l26 36l105 -292q-8 0 -17 2q-27 8 -41 8h-29.5t-47.5 -5z" />
<glyph unicode="&#xb5;" horiz-adv-x="1354" d="M49 -369q0 83 29 162q35 96 37.5 127t4.5 44.5t2 34.5v1140h193v-785q0 -97 58.5 -170.5t148.5 -73.5q92 0 184 71q101 78 102 170v788h187v-886q0 -70 33.5 -129t86.5 -59q12 0 18 1q40 8 64 33t36 67l18 61h41l-14 -70q-18 -84 -104 -145q-79 -56 -153 -56q-13 0 -19 1 q-76 10 -136 74q-64 67 -64 153l-58 -58q-71 -71 -151 -116.5t-139 -45.5q-57 0 -129 32q-86 39 -132 103v-81q0 -67 25 -137q56 -159 55 -236q0 -58 -29 -101q-34 -48 -86 -48q-48 0 -78.5 40.5t-30.5 94.5z" />
<glyph unicode="&#xb6;" horiz-adv-x="1178" d="M57 1128q0 183 125.5 310t313.5 127l555 1v-2011h-146v1859h-272v-1861l-147 -4v1151q-175 0 -302 125.5t-127 302.5z" />
<glyph unicode="&#xb7;" horiz-adv-x="651" d="M61 887q0 106 77.5 181t186.5 75q110 0 186 -82t76 -196q0 -109 -82 -180t-194 -71q-106 0 -178 81t-72 192z" />
<glyph unicode="&#xba;" horiz-adv-x="785" d="M66 787v115h648v-115h-648zM66 1281q0 134 96.5 231.5t227.5 97.5q135 0 231.5 -94t96.5 -231q0 -135 -99 -228t-237 -93q-131 0 -223.5 93t-92.5 224zM294 1283q0 -39 28.5 -67.5t66.5 -28.5q41 0 73 26t32 66q0 44 -30.5 74.5t-74.5 30.5q-38 0 -66.5 -29.5 t-28.5 -71.5z" />
<glyph unicode="&#xbb;" horiz-adv-x="1152" d="M54 846v222l458 -338v-224l-451 -352v235l317 225zM627 846v222l457 -338v-224l-450 -352v235l317 225z" />
<glyph unicode="&#xbf;" horiz-adv-x="916" d="M66 52q0 205 115 361q132 180 350 181q44 0 89.5 -4.5t93.5 -8.5q26 0 47.5 7.5t47.5 22.5v-465l-31 23q-27 21 -50 26.5t-58 5.5q-51 0 -89 -38.5t-38 -93.5q0 -57 40 -91.5t98 -34.5h12q34 0 64 17q21 12 49 40l35 36v-516q-18 9 -33 15t-29 6q-5 0 -101 -13 q-57 -8 -96 -8q-226 0 -378 179q-137 161 -138 353zM297 907q0 108 79 182t192 74q108 0 184 -77.5t76 -185.5q0 -113 -73.5 -191.5t-190.5 -78.5q-115 0 -191 81t-76 196z" />
<glyph unicode="&#xc0;" horiz-adv-x="1909" d="M56 0q17 13 35.5 30t33 41.5t35.5 73.5t34 87l406 1132q26 73 34 105.5t6 50.5q-4 27 -16 47.5t-29 37.5h601l498 -1346q17 -44 49 -114q26 -54 41 -80q24 -46 53 -65h-669q12 16 18.5 30t8 25.5t1.5 28.5q0 27 -5 46t-8 29l-18 69h-425l-21 -66q-5 -17 -7.5 -40 t-2.5 -43q0 -21 3.5 -31t8.5 -22.5t14 -25.5h-679zM685 1860l105 302q1 -6 14 -26t19.5 -28.5t22.5 -21t30 -22.5l387 -270l-466 73q-13 1 -22.5 2t-14.5 1q-10 0 -20.5 -1.5t-14.5 -1.5zM844 609h206l-104 349z" />
<glyph unicode="&#xc1;" horiz-adv-x="1895" d="M56 0q17 13 35.5 30t33 41.5t35.5 73.5t34 87l406 1132q26 73 34 105.5t6 50.5q-4 27 -16 47.5t-29 37.5h601l498 -1346q17 -44 49 -114q26 -54 41 -80q24 -46 53 -65h-669q12 16 18.5 30t8 25.5t1.5 28.5q0 27 -5 46t-8 29l-18 69h-425l-21 -66q-5 -17 -7.5 -40 t-2.5 -43q0 -21 3.5 -31t8.5 -22.5t14 -25.5h-679zM630 1794l367 254q36 26 46 33q16 13 29 30l26 36l105 -292q-8 0 -17 2q-27 8 -41 8h-29.5t-47.5 -5zM844 609h206l-104 349z" />
<glyph unicode="&#xc2;" horiz-adv-x="1896" d="M56 0q17 13 35.5 30t33 41.5t35.5 73.5t34 87l406 1132q26 73 34 105.5t6 50.5q-4 27 -16 47.5t-29 37.5h601l498 -1346q17 -44 49 -114q26 -54 41 -80q24 -46 53 -65h-669q12 16 18.5 30t8 25.5t1.5 28.5q0 27 -5 46t-8 29l-18 69h-425l-21 -66q-5 -17 -7.5 -40 t-2.5 -43q0 -21 3.5 -31t8.5 -22.5t14 -25.5h-679zM559 1796q45 34 72 59t53 50q32 30 153 160q12 13 95 103q38 -47 119.5 -131t161.5 -164q14 -14 43 -40q38 -34 44 -39h-321q9 18 7 30q-1 18 -33 56q-19 22 -30 26q-12 -4 -32 -33t-26 -47q-4 -9 0 -20q1 -4 5 -10h-311z M844 609h206l-104 349z" />
<glyph unicode="&#xc3;" horiz-adv-x="1895" d="M43 0q17 13 35.5 30t33 41.5t35.5 73.5t34 87l406 1132q26 73 34 105.5t6 50.5q-4 27 -16 47.5t-29 37.5h601l498 -1346q17 -44 49 -114q26 -54 41 -80q24 -46 53 -65h-669q12 16 18.5 30t8 25.5t1.5 28.5q0 27 -5 46t-8 29l-18 69h-425l-21 -66q-5 -17 -7.5 -40 t-2.5 -43q0 -21 3.5 -31t8.5 -22.5t14 -25.5h-679zM556 1968q25 10 50 22q45 44 76 67q57 43 128 43q73 0 183 -65q53 -31 104 -31q25 0 43 26q6 9 27 56l167 -178q-23 -6 -38 -10.5t-23 -9.5q-67 -48 -78 -55q-45 -27 -96 -35q-18 -3 -28 -2q-54 0 -145 40t-120 40 q-6 0 -19 -3q-27 -8 -39 -28q-13 -31 -22 -52zM831 609h206l-104 349z" />
<glyph unicode="&#xc4;" horiz-adv-x="1918" d="M47 0q17 13 35.5 30t33 41.5t35.5 73.5t34 87l406 1132q26 73 34 105.5t6 50.5q-4 27 -16 47.5t-29 37.5h601l498 -1346q17 -44 49 -114q26 -54 41 -80q24 -46 53 -65h-669q12 16 18.5 30t8 25.5t1.5 28.5q0 27 -5 46t-8 29l-18 69h-425l-21 -66q-5 -17 -7.5 -40 t-2.5 -43q0 -21 3.5 -31t8.5 -22.5t14 -25.5h-679zM525 1977q0 69 50 118.5t119 49.5q74 0 126 -50t52 -124q0 -69 -51.5 -119t-119.5 -50q-73 0 -124.5 50.5t-51.5 124.5zM835 609h206l-104 349zM976 1977q0 69 50 118.5t117 49.5q74 0 127.5 -49.5t53.5 -124.5 q0 -70 -52 -120.5t-121 -50.5q-71 0 -123 52t-52 125z" />
<glyph unicode="&#xc5;" horiz-adv-x="1902" d="M56 0q17 13 35.5 30t33 41.5t35.5 73.5t34 87l406 1132q26 73 34 105.5t6 50.5q-4 27 -16 47.5t-29 37.5h601l498 -1346q17 -44 49 -114q26 -54 41 -80q24 -46 53 -65h-669q12 16 18.5 30t8 25.5t1.5 28.5q0 27 -5 46t-8 29l-18 69h-425l-21 -66q-5 -17 -7.5 -40 t-2.5 -43q0 -21 3.5 -31t8.5 -22.5t14 -25.5h-679zM744 1994q0 83 58.5 141t141.5 58t141 -58t58 -141t-58 -141.5t-141 -58.5t-141.5 58.5t-58.5 141.5zM844 609h206l-104 349zM863 1994q0 -34 23.5 -57.5t57.5 -23.5t57 23.5t23 57.5t-23.5 57t-56.5 23q-34 0 -57.5 -23.5 t-23.5 -56.5z" />
<glyph unicode="&#xc6;" horiz-adv-x="2381" d="M58 0q21 13 43 27q27 19 51 43q29 30 64 76q32 40 64 86l830 1132q56 79 59 84q30 45 38 72q4 16 4 29q0 18 -4.5 30.5t-13.5 25.5h1103v-503q-14 13 -26 21q-16 12 -28 14q-45 13 -114 13h-317v-148h185q34 0 48 2t37 12.5t41 26.5v-462q-23 22 -42.5 28.5t-40.5 9 t-35 2.5h-26h-167v-153h317q44 0 63.5 1.5t38.5 7t35 15.5t31 20v-512h-1128q22 21 32.5 33t19.5 30.5t14 41t9 54.5l8 69h-425l-44 -66q-51 -73 -51 -115v-18q0 -19 4 -29h-677zM1072 609h224v349z" />
<glyph unicode="&#xc7;" horiz-adv-x="1283" d="M70 815q0 183 75 346.5t219 282.5q109 91 215 136q127 54 275 55q75 0 138.5 -9.5t133.5 -18.5q17 0 37 8q26 13 39 18v-665l-44 38q-62 53 -116 75q-61 26 -140 26q-12 0 -26.5 -1.5t-23.5 -1.5q-99 -9 -177.5 -99t-78.5 -204q0 -131 83 -216q89 -92 244 -92 q74 0 142 36q39 21 86 62l53 44v-667q-31 21 -49 31q-29 16 -42 13q-62 -18 -106.5 -27.5t-75.5 -9.5l-26 -2l-64 -81q47 -4 91 -31.5t68.5 -65t24.5 -91.5q0 -175 -177 -202q-22 -4 -44 -4q-39 0 -66 9v156q5 -12 29.5 -20.5t43.5 -8.5q29 0 51 22.5t22 51.5q3 29 -21 50.5 t-57 21.5q-36 0 -61 -21l-85 69l107 155l-49 11q-162 35 -254 95.5t-215 215.5q-89 111 -134 241.5t-45 268.5z" />
<glyph unicode="&#xc8;" horiz-adv-x="1296" d="M121 0q21 17 36 43q8 16 10 28.5t2 39.5v1384q0 23 -2 37t-10 31q-14 23 -36 42h1047v-503q-14 13 -26 21q-16 12 -27 14q-45 13 -114 13h-319v-148h186q34 0 48.5 2t37 12.5t40.5 26.5v-462q-23 22 -42.5 28.5t-40.5 9t-35 2.5h-26h-168v-153h319q44 0 63.5 1.5t38 7 t35 15.5t30.5 20v-512h-1047zM354 1866l105 302q1 -6 14 -26t19.5 -28.5t22.5 -21t30 -22.5l387 -270l-466 73q-13 1 -22.5 2t-14.5 1q-10 0 -20.5 -1.5t-14.5 -1.5z" />
<glyph unicode="&#xc9;" horiz-adv-x="1237" d="M125 0q21 17 36 43q8 16 10 28.5t2 39.5v1384q0 23 -2 37t-10 31q-14 23 -36 42h1047v-503q-14 13 -26 21q-16 12 -27 14q-45 13 -114 13h-319v-148h186q34 0 48.5 2t37 12.5t40.5 26.5v-462q-23 22 -42.5 28.5t-40.5 9t-35 2.5h-26h-168v-153h319q44 0 63.5 1.5t38 7 t35 15.5t30.5 20v-512h-1047zM321 1793l367 254q36 26 46 33q16 13 29 30l26 36l105 -292q-8 0 -17 2q-27 8 -41 8h-29.5t-47.5 -5z" />
<glyph unicode="&#xca;" horiz-adv-x="1296" d="M121 0q21 17 36 43q8 16 10 28.5t2 39.5v1384q0 23 -2 37t-10 31q-14 23 -36 42h1047v-503q-14 13 -26 21q-16 12 -27 14q-45 13 -114 13h-319v-148h186q34 0 48.5 2t37 12.5t40.5 26.5v-462q-23 22 -42.5 28.5t-40.5 9t-35 2.5h-26h-168v-153h319q44 0 63.5 1.5t38 7 t35 15.5t30.5 20v-512h-1047zM296 1796q45 34 72 59t53 50q32 30 153 160q12 13 95 103q38 -47 119.5 -131t161.5 -164q14 -14 43 -40q38 -34 44 -39h-321q9 18 7 30q-1 18 -33 56q-19 22 -30 26q-12 -4 -32 -33t-26 -47q-4 -9 0 -20q1 -4 5 -10h-311z" />
<glyph unicode="&#xcb;" horiz-adv-x="1296" d="M121 0q21 17 36 43q8 16 10 28.5t2 39.5v1384q0 23 -2 37t-10 31q-14 23 -36 42h1047v-503q-14 13 -26 21q-16 12 -27 14q-45 13 -114 13h-319v-148h186q34 0 48.5 2t37 12.5t40.5 26.5v-462q-23 22 -42.5 28.5t-40.5 9t-35 2.5h-26h-168v-153h319q44 0 63.5 1.5t38 7 t35 15.5t30.5 20v-512h-1047zM266 1969q0 69 50 118.5t119 49.5q74 0 126 -50t52 -124q0 -69 -51.5 -119t-119.5 -50q-73 0 -124.5 50.5t-51.5 124.5zM717 1969q0 69 50 118.5t117 49.5q74 0 127.5 -49.5t53.5 -124.5q0 -70 -52 -120.5t-121 -50.5q-71 0 -123 52t-52 125z " />
<glyph unicode="&#xcc;" horiz-adv-x="807" d="M100 1866l105 302q1 -6 14 -26t19.5 -28.5t22.5 -21t30 -22.5l387 -270l-466 73q-13 1 -22.5 2t-14.5 1q-10 0 -20.5 -1.5t-14.5 -1.5zM122 0q9 6 15 14q4 5 21 29q9 13 11 29t2 39v1384v15q0 13 -3 28t-10.5 25.5t-15.5 22t-20 19.5h610q-13 -9 -18.5 -16.5t-17.5 -25.5 q-8 -16 -10 -29.5t-2 -38.5v-1384q0 -25 1.5 -39t10 -28.5t16 -24t20.5 -19.5h-610z" />
<glyph unicode="&#xcd;" horiz-adv-x="843" d="M122 0q9 6 15 14q4 5 21 29q9 13 11 29t2 39v1384v15q0 13 -3 28t-10.5 25.5t-15.5 22t-20 19.5h610q-13 -9 -18.5 -16.5t-17.5 -25.5q-8 -16 -10 -29.5t-2 -38.5v-1384q0 -25 1.5 -39t10 -28.5t16 -24t20.5 -19.5h-610zM140 1794l367 254q36 26 46 33q16 13 29 30l26 36 l105 -292q-8 0 -17 2q-27 8 -41 8h-29.5t-47.5 -5z" />
<glyph unicode="&#xce;" horiz-adv-x="816" d="M15 1796q45 34 72 59t53 50q32 30 153 160q12 13 95 103q38 -47 119.5 -131t161.5 -164q14 -14 43 -40q38 -34 44 -39h-321q9 18 7 30q-1 18 -33 56q-19 22 -30 26q-12 -4 -32 -33t-26 -47q-4 -9 0 -20q1 -4 5 -10h-311zM122 0q9 6 15 14q4 5 21 29q9 13 11 29t2 39v1384 v15q0 13 -3 28t-10.5 25.5t-15.5 22t-20 19.5h610q-13 -9 -18.5 -16.5t-17.5 -25.5q-8 -16 -10 -29.5t-2 -38.5v-1384q0 -25 1.5 -39t10 -28.5t16 -24t20.5 -19.5h-610z" />
<glyph unicode="&#xcf;" horiz-adv-x="807" d="M-7 1969q0 69 50 118.5t119 49.5q74 0 126 -50t52 -124q0 -69 -51.5 -119t-119.5 -50q-73 0 -124.5 50.5t-51.5 124.5zM122 0q9 6 15 14q4 5 21 29q9 13 11 29t2 39v1384v15q0 13 -3 28t-10.5 25.5t-15.5 22t-20 19.5h610q-13 -9 -18.5 -16.5t-17.5 -25.5 q-8 -16 -10 -29.5t-2 -38.5v-1384q0 -25 1.5 -39t10 -28.5t16 -24t20.5 -19.5h-610zM444 1969q0 69 50 118.5t117 49.5q74 0 127.5 -49.5t53.5 -124.5q0 -70 -52 -120.5t-121 -50.5q-71 0 -123 52t-52 125z" />
<glyph unicode="&#xd1;" horiz-adv-x="1655" d="M104 0q9 6 15 14q4 5 21 29q9 13 11 29t2 39v1332q0 44 -3.5 64.5t-13.5 45.5q-5 14 -9.5 22.5t-22.5 29.5h477l402 -599v489v15q0 18 -2 30t-10 23t-16.5 22.5t-19.5 19.5h610q-13 -9 -19 -16.5t-17 -25.5q-8 -16 -10 -29.5t-2 -38.5v-1271q0 -71 5 -105q8 -32 12 -50 t11.5 -37.5t13.5 -31.5h-464l-409 603v-492q0 -25 1.5 -39t10 -28.5t16 -24t20.5 -19.5h-610zM436 1974q25 10 50 22q45 44 76 67q57 43 128 43q73 0 183 -65q53 -31 104 -31q25 0 43 26q6 9 27 56l167 -178q-23 -6 -38 -10.5t-23 -9.5q-67 -48 -78 -55q-45 -27 -96 -35 q-18 -3 -28 -2q-54 0 -145 40t-120 40q-6 0 -19 -3q-27 -8 -39 -28q-13 -31 -22 -52z" />
<glyph unicode="&#xd2;" horiz-adv-x="1745" d="M64 835q0 334 235.5 575t568.5 241q347 0 601.5 -245t254.5 -592t-239 -594t-588 -247q-346 0 -589.5 255t-243.5 607zM583 789q0 -119 90 -206.5t211 -87.5q128 0 221 88t93 212q0 137 -83 226q-88 95 -236 95q-137 0 -219 -97q-76 -91 -77 -230zM617 1866l105 302 q1 -6 14 -26t19.5 -28.5t22.5 -21t30 -22.5l387 -270l-466 73q-13 1 -22.5 2t-14.5 1q-10 0 -20.5 -1.5t-14.5 -1.5z" />
<glyph unicode="&#xd3;" horiz-adv-x="1765" d="M64 835q0 334 235.5 575t568.5 241q347 0 601.5 -245t254.5 -592t-239 -594t-588 -247q-346 0 -589.5 255t-243.5 607zM583 789q0 -119 90 -206.5t211 -87.5q128 0 221 88t93 212q0 137 -83 226q-88 95 -236 95q-137 0 -219 -97q-76 -91 -77 -230zM593 1794l367 254 q36 26 46 33q16 13 29 30l26 36l105 -292q-8 0 -17 2q-27 8 -41 8h-29.5t-47.5 -5z" />
<glyph unicode="&#xd4;" horiz-adv-x="1765" d="M64 835q0 334 235.5 575t568.5 241q347 0 601.5 -245t254.5 -592t-239 -594t-588 -247q-346 0 -589.5 255t-243.5 607zM532 1796q45 34 72 59t53 50q32 30 153 160q12 13 95 103q38 -47 119.5 -131t161.5 -164q14 -14 43 -40q38 -34 44 -39h-321q9 18 7 30q-1 18 -33 56 q-19 22 -30 26q-12 -4 -32 -33t-26 -47q-4 -9 0 -20q1 -4 5 -10h-311zM583 789q0 -119 90 -206.5t211 -87.5q128 0 221 88t93 212q0 137 -83 226q-88 95 -236 95q-137 0 -219 -97q-76 -91 -77 -230z" />
<glyph unicode="&#xd5;" horiz-adv-x="1790" d="M64 835q0 334 235.5 575t568.5 241q347 0 601.5 -245t254.5 -592t-239 -594t-588 -247q-346 0 -589.5 255t-243.5 607zM516 1968q25 10 50 22q45 44 76 67q57 43 128 43q73 0 183 -65q53 -31 104 -31q25 0 43 26q6 9 27 56l167 -178q-23 -6 -38 -10.5t-23 -9.5 q-67 -48 -78 -55q-45 -27 -96 -35q-18 -3 -28 -2q-54 0 -145 40t-120 40q-6 0 -19 -3q-27 -8 -39 -28q-13 -31 -22 -52zM583 789q0 -119 90 -206.5t211 -87.5q128 0 221 88t93 212q0 137 -83 226q-88 95 -236 95q-137 0 -219 -97q-76 -91 -77 -230z" />
<glyph unicode="&#xd6;" horiz-adv-x="1795" d="M64 835q0 334 235.5 575t568.5 241q347 0 601.5 -245t254.5 -592t-239 -594t-588 -247q-346 0 -589.5 255t-243.5 607zM499 1977q0 69 50 118.5t119 49.5q74 0 126 -50t52 -124q0 -69 -51.5 -119t-119.5 -50q-73 0 -124.5 50.5t-51.5 124.5zM583 789q0 -119 90 -206.5 t211 -87.5q128 0 221 88t93 212q0 137 -83 226q-88 95 -236 95q-137 0 -219 -97q-76 -91 -77 -230zM950 1977q0 69 50 118.5t117 49.5q74 0 127.5 -49.5t53.5 -124.5q0 -70 -52 -120.5t-121 -50.5q-71 0 -123 52t-52 125z" />
<glyph unicode="&#xd8;" horiz-adv-x="1796" d="M52 823q0 334 236 575.5t569 241.5q64 0 109 -4.5t98 -17.5q6 23 7 48q0 10 -2 19.5t-2 12.5q-4 22 -16 44h401q-8 -8 -21.5 -24.5t-24.5 -32.5q-38 -52 -72 -133l-17 -43q178 -115 284 -298q111 -194 111 -409q0 -347 -239 -594t-588 -247q-91 0 -181 22 q-5 -18 -6.5 -27.5t-1.5 -20.5q0 -12 2 -22t2.5 -20t5.5 -23h-374q21 26 39 56q30 56 66 145l9 22q-183 117 -288.5 310t-105.5 420zM572 778q0 -52 20 -100.5t55 -89.5l210 516q-132 0 -211 -98q-74 -92 -74 -228zM903 485q117 0 200 89.5t83 208.5q0 131 -74 219z" />
<glyph unicode="&#xd9;" horiz-adv-x="1506" d="M78 1605h610q-22 -16 -36 -42q-8 -14 -10.5 -32t-2.5 -36v-830q0 -88 19 -131q30 -64 108 -63q71 0 106 49q31 44 31 145v830v15q0 13 -3 28t-10 25q-10 16 -15 22q-9 12 -21 20h611q-13 -9 -19 -16.5t-18 -25.5q-8 -16 -9.5 -29.5t-1.5 -38.5v-830q0 -167 -48.5 -295.5 t-156.5 -229.5q-92 -86 -205 -130.5t-232 -44.5q-117 0 -223 39.5t-201 121.5q-122 106 -176 247q-49 126 -49 292v830v15q0 18 -2 30t-10 23t-16.5 22.5t-19.5 19.5zM472 1866l105 302q1 -6 14 -26t19.5 -28.5t22.5 -21t30 -22.5l387 -270l-466 73q-13 1 -22.5 2t-14.5 1 q-10 0 -20.5 -1.5t-14.5 -1.5z" />
<glyph unicode="&#xda;" horiz-adv-x="1515" d="M78 1605h610q-22 -16 -36 -42q-8 -14 -10.5 -32t-2.5 -36v-830q0 -88 19 -131q30 -64 108 -63q71 0 106 49q31 44 31 145v830v15q0 13 -3 28t-10 25q-10 16 -15 22q-9 12 -21 20h611q-13 -9 -19 -16.5t-18 -25.5q-8 -16 -9.5 -29.5t-1.5 -38.5v-830q0 -167 -48.5 -295.5 t-156.5 -229.5q-92 -86 -205 -130.5t-232 -44.5q-117 0 -223 39.5t-201 121.5q-122 106 -176 247q-49 126 -49 292v830v15q0 18 -2 30t-10 23t-16.5 22.5t-19.5 19.5zM484 1785l367 254q36 26 46 33q16 13 29 30l26 36l105 -292q-8 0 -17 2q-27 8 -41 8h-29.5t-47.5 -5z" />
<glyph unicode="&#xdb;" horiz-adv-x="1506" d="M78 1605h610q-22 -16 -36 -42q-8 -14 -10.5 -32t-2.5 -36v-830q0 -88 19 -131q30 -64 108 -63q71 0 106 49q31 44 31 145v830v15q0 13 -3 28t-10 25q-10 16 -15 22q-9 12 -21 20h611q-13 -9 -19 -16.5t-18 -25.5q-8 -16 -9.5 -29.5t-1.5 -38.5v-830q0 -167 -48.5 -295.5 t-156.5 -229.5q-92 -86 -205 -130.5t-232 -44.5q-117 0 -223 39.5t-201 121.5q-122 106 -176 247q-49 126 -49 292v830v15q0 18 -2 30t-10 23t-16.5 22.5t-19.5 19.5zM423 1786q45 34 72 59t53 50q32 30 153 160q12 13 95 103q38 -47 119.5 -131t161.5 -164q14 -14 43 -40 q38 -34 44 -39h-321q9 18 7 30q-1 18 -33 56q-19 22 -30 26q-12 -4 -32 -33t-26 -47q-4 -9 0 -20q1 -4 5 -10h-311z" />
<glyph unicode="&#xdc;" horiz-adv-x="1552" d="M78 1605h610q-22 -16 -36 -42q-8 -14 -10.5 -32t-2.5 -36v-830q0 -88 19 -131q30 -64 108 -63q71 0 106 49q31 44 31 145v830v15q0 13 -3 28t-10 25q-10 16 -15 22q-9 12 -21 20h611q-13 -9 -19 -16.5t-18 -25.5q-8 -16 -9.5 -29.5t-1.5 -38.5v-830q0 -167 -48.5 -295.5 t-156.5 -229.5q-92 -86 -205 -130.5t-232 -44.5q-117 0 -223 39.5t-201 121.5q-122 106 -176 247q-49 126 -49 292v830v15q0 18 -2 30t-10 23t-16.5 22.5t-19.5 19.5zM372 1969q0 69 50 118.5t119 49.5q74 0 126 -50t52 -124q0 -69 -51.5 -119t-119.5 -50q-73 0 -124.5 50.5 t-51.5 124.5zM823 1969q0 69 50 118.5t117 49.5q74 0 127.5 -49.5t53.5 -124.5q0 -70 -52 -120.5t-121 -50.5q-71 0 -123 52t-52 125z" />
<glyph unicode="&#xdf;" horiz-adv-x="1392" d="M111 0q12 19 21 41q5 13 8 37t3 46v899q0 257 124 416q140 179 399 179q187 0 333 -96.5t200 -268.5q23 -74 23 -129q0 -62 -27 -132l-25 -64l23 -17q52 -44 85 -111q39 -77 39 -153q0 -162 -43 -279q-47 -127 -151 -228q-95 -89 -209 -122q-40 -10 -79 -19 q-71 -12 -143 -25q-17 -4 -34.5 -9t-28.5 -14v448q6 -4 20 -4q27 0 58 8t56 22q64 32 95.5 90t31.5 132q0 66 -64 129q-44 44 -100 72l-69 33l61 22q38 14 67 50q39 45 39 102q0 16 -4 34q-9 45 -54 80.5t-89 35.5q-53 0 -81 -35q-36 -47 -36 -159v-1011h-449z" />
<glyph unicode="&#xe0;" horiz-adv-x="1363" d="M69 581q0 277 176 446q170 163 433 163q149 0 281 -77q45 -26 206 -153q14 -12 57.5 -25.5t62.5 -16.5q-16 -17 -22 -24q-12 -12 -17 -23q-12 -21 -16.5 -39t-4.5 -56v-652q0 -19 4.5 -41t12.5 -42q3 -9 8 -16l20 -25h-396v76l-38 -24q-48 -31 -89 -48q-69 -27 -144 -27 q-231 0 -385 181q-149 176 -149 423zM397 1364l105 302q1 -6 14 -26t19.5 -28.5t22.5 -21t30 -22.5l387 -270l-466 73q-13 1 -22.5 2t-14.5 1q-10 0 -20.5 -1.5t-14.5 -1.5zM483 586q0 -75 53.5 -128.5t127.5 -53.5q38 0 72.5 12.5t48.5 29.5l23 18v244l-26 24 q-25 22 -58.5 32.5t-71.5 10.5q-70 0 -119.5 -57t-49.5 -132z" />
<glyph unicode="&#xe1;" horiz-adv-x="1357" d="M69 581q0 277 176 446q170 163 433 163q149 0 281 -77q45 -26 206 -153q14 -12 57.5 -25.5t62.5 -16.5q-16 -17 -22 -24q-12 -12 -17 -23q-12 -21 -16.5 -39t-4.5 -56v-652q0 -19 4.5 -41t12.5 -42q3 -9 8 -16l20 -25h-396v76l-38 -24q-48 -31 -89 -48q-69 -27 -144 -27 q-231 0 -385 181q-149 176 -149 423zM390 1297l367 254q36 26 46 33q16 13 29 30l26 36l105 -292q-8 0 -17 2q-27 8 -41 8h-29.5t-47.5 -5zM483 586q0 -75 53.5 -128.5t127.5 -53.5q38 0 72.5 12.5t48.5 29.5l23 18v244l-26 24q-25 22 -58.5 32.5t-71.5 10.5 q-70 0 -119.5 -57t-49.5 -132z" />
<glyph unicode="&#xe2;" horiz-adv-x="1364" d="M69 581q0 277 176 446q170 163 433 163q149 0 281 -77q45 -26 206 -153q14 -12 57.5 -25.5t62.5 -16.5q-16 -17 -22 -24q-12 -12 -17 -23q-12 -21 -16.5 -39t-4.5 -56v-652q0 -19 4.5 -41t12.5 -42q3 -9 8 -16l20 -25h-396v76l-38 -24q-48 -31 -89 -48q-69 -27 -144 -27 q-231 0 -385 181q-149 176 -149 423zM317 1295q45 34 72 59t53 50q32 30 153 160q12 13 95 103q38 -47 119.5 -131t161.5 -164q14 -14 43 -40q38 -34 44 -39h-321q9 18 7 30q-1 18 -33 56q-19 22 -30 26q-12 -4 -32 -33t-26 -47q-4 -9 0 -20q1 -4 5 -10h-311zM483 586 q0 -75 53.5 -128.5t127.5 -53.5q38 0 72.5 12.5t48.5 29.5l23 18v244l-26 24q-25 22 -58.5 32.5t-71.5 10.5q-70 0 -119.5 -57t-49.5 -132z" />
<glyph unicode="&#xe3;" horiz-adv-x="1350" d="M69 581q0 277 176 446q170 163 433 163q149 0 281 -77q45 -26 206 -153q14 -12 57.5 -25.5t62.5 -16.5q-16 -17 -22 -24q-12 -12 -17 -23q-12 -21 -16.5 -39t-4.5 -56v-652q0 -19 4.5 -41t12.5 -42q3 -9 8 -16l20 -25h-396v76l-38 -24q-48 -31 -89 -48q-69 -27 -144 -27 q-231 0 -385 181q-149 176 -149 423zM317 1470q25 10 50 22q45 44 76 67q57 43 128 43q73 0 183 -65q53 -31 104 -31q25 0 43 26q6 9 27 56l167 -178q-23 -6 -38 -10.5t-23 -9.5q-67 -48 -78 -55q-45 -27 -96 -35q-18 -3 -28 -2q-54 0 -145 40t-120 40q-6 0 -19 -3 q-27 -8 -39 -28q-13 -31 -22 -52zM483 586q0 -75 53.5 -128.5t127.5 -53.5q38 0 72.5 12.5t48.5 29.5l23 18v244l-26 24q-25 22 -58.5 32.5t-71.5 10.5q-70 0 -119.5 -57t-49.5 -132z" />
<glyph unicode="&#xe4;" horiz-adv-x="1350" d="M69 581q0 277 176 446q170 163 433 163q149 0 281 -77q45 -26 206 -153q14 -12 57.5 -25.5t62.5 -16.5q-16 -17 -22 -24q-12 -12 -17 -23q-12 -21 -16.5 -39t-4.5 -56v-652q0 -19 4.5 -41t12.5 -42q3 -9 8 -16l20 -25h-396v76l-38 -24q-48 -31 -89 -48q-69 -27 -144 -27 q-231 0 -385 181q-149 176 -149 423zM293 1470q0 69 50 118.5t119 49.5q74 0 126 -50t52 -124q0 -69 -51.5 -119t-119.5 -50q-73 0 -124.5 50.5t-51.5 124.5zM483 586q0 -75 53.5 -128.5t127.5 -53.5q38 0 72.5 12.5t48.5 29.5l23 18v244l-26 24q-25 22 -58.5 32.5 t-71.5 10.5q-70 0 -119.5 -57t-49.5 -132zM744 1470q0 69 50 118.5t117 49.5q74 0 127.5 -49.5t53.5 -124.5q0 -70 -52 -120.5t-121 -50.5q-71 0 -123 52t-52 125z" />
<glyph unicode="&#xe5;" horiz-adv-x="1364" d="M69 581q0 277 176 446q170 163 433 163q149 0 281 -77q45 -26 206 -153q14 -12 57.5 -25.5t62.5 -16.5q-16 -17 -22 -24q-12 -12 -17 -23q-12 -21 -16.5 -39t-4.5 -56v-652q0 -19 4.5 -41t12.5 -42q3 -9 8 -16l20 -25h-396v76l-38 -24q-48 -31 -89 -48q-69 -27 -144 -27 q-231 0 -385 181q-149 176 -149 423zM474 1542q0 83 58.5 141.5t141.5 58.5t141.5 -58.5t58.5 -141.5t-58.5 -141t-141.5 -58t-141.5 58.5t-58.5 140.5zM483 586q0 -75 53.5 -128.5t127.5 -53.5q38 0 72.5 12.5t48.5 29.5l23 18v244l-26 24q-25 22 -58.5 32.5t-71.5 10.5 q-70 0 -119.5 -57t-49.5 -132zM594 1542q0 -34 23 -57t57 -23t57 23t23 57t-23 57.5t-57 23.5t-57 -23.5t-23 -57.5z" />
<glyph unicode="&#xe6;" horiz-adv-x="2081" d="M56 581q0 277 176 446q170 163 432 163q143 0 267 -70q41 -23 96 -70q76 66 107 85q86 54 236 55q163 0 303 -74q156 -83 249 -244q47 -80 68 -210q14 -89 14 -186q0 -14 6 -29t11 -27h-747q30 -49 84 -75t122 -26q83 0 152 26q66 32 88 41v-373q-30 10 -45 14.5t-25 3.5 q-75 -18 -136.5 -32.5t-112.5 -14.5q-87 0 -185 48q-32 16 -81 48v-80h-274v76l-38 -24q-57 -36 -113.5 -50.5t-119.5 -14.5q-218 0 -376 176.5t-158 417.5zM468 590q0 -67 43 -118q26 -32 64 -49t80 -17q67 0 118 42q32 26 49 64.5t17 79.5q0 67 -43 118q-26 32 -64.5 49 t-79.5 17q-67 0 -118 -42q-32 -26 -49 -64.5t-17 -79.5zM1243 699h322l-11 24q-18 40 -64.5 67.5t-97.5 27.5q-45 0 -84.5 -30.5t-55.5 -68.5z" />
<glyph unicode="&#xe7;" horiz-adv-x="960" d="M66 603q0 240 162 408.5t395 168.5q48 0 95.5 -6.5t83.5 -12.5q14 0 33.5 6.5l31.5 10.5v-504l-26 23q-27 25 -61 42q-51 26 -99 26q-12 -1 -19 -2q-91 -8 -133 -62q-38 -47 -38 -129q0 -80 54 -133t134 -53q52 0 99 24q34 17 62 44l34 29v-521q-21 9 -30 12q-17 6 -27 7 q-9 1 -25 1q-19 0 -53 -4.5t-47 -4.5l-21 -2l-51 -75q45 -4 90.5 -31.5t70 -65.5t24.5 -91q0 -175 -179 -202q-10 -3 -23 -2.5t-20 0.5q-17 0 -36 2.5t-30 4.5v156q5 -12 30 -20.5t44 -8.5q30 0 51.5 23t21.5 55q0 29 -23.5 48.5t-55.5 19.5q-35 0 -60 -21l-87 68l106 156 l-32 9q-215 60 -330.5 213.5t-115.5 393.5z" />
<glyph unicode="&#xe8;" horiz-adv-x="1350" d="M64 556q0 176 84 331q74 136 208.5 214.5t278.5 78.5q165 0 305 -74q156 -83 249 -244q48 -83 67 -210q13 -84 13 -187q0 -14 6 -28.5t11 -26.5h-747q30 -48 84.5 -75t121.5 -27q83 0 152 26q67 32 88 42v-402q-23 9 -38 14.5t-32 3.5q-74 -13 -137.5 -23t-111.5 -10 q-123 0 -232.5 46t-195.5 127.5t-130 193t-44 230.5zM388 1361l105 302q1 -6 14 -26t19.5 -28.5t22.5 -21t30 -22.5l387 -270l-466 73q-13 1 -22.5 2t-14.5 1q-10 0 -20.5 -1.5t-14.5 -1.5zM509 688h321l-11 25q-18 40 -64 67.5t-97 27.5q-47 0 -88 -33q-36 -29 -52 -66z " />
<glyph unicode="&#xe9;" horiz-adv-x="1353" d="M64 556q0 176 84 331q74 136 208.5 214.5t278.5 78.5q165 0 305 -74q156 -83 249 -244q48 -83 67 -210q13 -84 13 -187q0 -14 6 -28.5t11 -26.5h-747q30 -48 84.5 -75t121.5 -27q83 0 152 26q67 32 88 42v-402q-23 9 -38 14.5t-32 3.5q-74 -13 -137.5 -23t-111.5 -10 q-123 0 -232.5 46t-195.5 127.5t-130 193t-44 230.5zM417 1302l367 254q36 26 46 33q16 13 29 30l26 36l105 -292q-8 0 -17 2q-27 8 -41 8h-29.5t-47.5 -5zM509 688h321l-11 25q-18 40 -64 67.5t-97 27.5q-47 0 -88 -33q-36 -29 -52 -66z" />
<glyph unicode="&#xea;" horiz-adv-x="1358" d="M64 556q0 176 84 331q74 136 208.5 214.5t278.5 78.5q165 0 305 -74q156 -83 249 -244q48 -83 67 -210q13 -84 13 -187q0 -14 6 -28.5t11 -26.5h-747q30 -48 84.5 -75t121.5 -27q83 0 152 26q67 32 88 42v-402q-23 9 -38 14.5t-32 3.5q-74 -13 -137.5 -23t-111.5 -10 q-123 0 -232.5 46t-195.5 127.5t-130 193t-44 230.5zM315 1303q45 34 72 59t53 50q32 30 153 160q12 13 95 103q38 -47 119.5 -131t161.5 -164q14 -14 43 -40q38 -34 44 -39h-321q9 18 7 30q-1 18 -33 56q-19 22 -30 26q-12 -4 -32 -33t-26 -47q-4 -9 0 -20q1 -4 5 -10h-311 zM509 688h321l-11 25q-18 40 -64 67.5t-97 27.5q-47 0 -88 -33q-36 -29 -52 -66z" />
<glyph unicode="&#xeb;" horiz-adv-x="1344" d="M64 556q0 176 84 331q74 136 208.5 214.5t278.5 78.5q165 0 305 -74q156 -83 249 -244q48 -83 67 -210q13 -84 13 -187q0 -14 6 -28.5t11 -26.5h-747q30 -48 84.5 -75t121.5 -27q83 0 152 26q67 32 88 42v-402q-23 9 -38 14.5t-32 3.5q-74 -13 -137.5 -23t-111.5 -10 q-123 0 -232.5 46t-195.5 127.5t-130 193t-44 230.5zM298 1477q0 69 50 118.5t119 49.5q74 0 126 -50t52 -124q0 -69 -51.5 -119t-119.5 -50q-73 0 -124.5 50.5t-51.5 124.5zM509 688h321l-11 25q-18 40 -64 67.5t-97 27.5q-47 0 -88 -33q-36 -29 -52 -66zM749 1477 q0 69 50 118.5t117 49.5q74 0 127.5 -49.5t53.5 -124.5q0 -70 -52 -120.5t-121 -50.5q-71 0 -123 52t-52 125z" />
<glyph unicode="&#xec;" horiz-adv-x="720" d="M74 1362l105 302q1 -6 14 -25.5t19.5 -28t22.5 -21.5t31 -22l386 -271l-465 74q-13 1 -23 2t-15 1q-10 0 -20.5 -1.5t-14.5 -1.5zM108 0q9 6 15 14q4 5 21 29q6 9 9 24.5t3 28.5v15v914v16q0 19 -2 30t-10 23t-16.5 23.5t-19.5 19.5h465v-1026q0 -25 1.5 -39t9.5 -28.5 t16 -24t21 -19.5h-513z" />
<glyph unicode="&#xed;" horiz-adv-x="736" d="M78 1294l367 254q36 26 45 33q16 13 30 30l26 36l105 -292q-8 0 -17 2q-27 8 -42 8h-29t-47 -5zM111 0q9 6 16 14q4 5 21 29q6 9 8.5 24.5t2.5 28.5v15v914v16q0 19 -1.5 30t-9.5 23t-16.5 23.5t-20.5 19.5h466v-1026q0 -25 1 -39t9.5 -28.5t16.5 -24t21 -19.5h-514z" />
<glyph unicode="&#xee;" horiz-adv-x="741" d="M-10 1303q45 34 72 59t53 50q32 30 153 160q12 13 95 103q38 -47 119.5 -131t161.5 -164q14 -14 43 -40q38 -34 44 -39h-321q9 18 7 30q-1 18 -33 56q-19 22 -30 26q-12 -4 -32 -33t-26 -48q-4 -9 0 -19q1 -4 5 -10h-311zM111 0q9 6 16 14q4 5 21 29q6 9 8.5 24.5 t2.5 28.5v15v914v16q0 19 -1.5 30t-9.5 23t-16.5 23.5t-20.5 19.5h466v-1026q0 -25 1 -39t9.5 -28.5t16.5 -24t21 -19.5h-514z" />
<glyph unicode="&#xef;" horiz-adv-x="731" d="M-34 1478q0 69 50 118.5t119 49.5q74 0 126.5 -50t52.5 -124q0 -69 -52 -119t-119 -50q-73 0 -125 50.5t-52 124.5zM117 0q9 6 15 14q4 5 21 29q6 9 9 24.5t3 28.5v15v914v16q0 19 -2 30t-10 23t-16.5 23.5t-19.5 19.5h465v-1026q0 -29 2 -39.5t9.5 -26.5t15 -25.5 t21.5 -19.5h-513zM417 1478q0 69 50 118.5t118 49.5q74 0 127 -49.5t53 -124.5q0 -70 -52 -120.5t-121 -50.5q-71 0 -123 52t-52 125z" />
<glyph unicode="&#xf1;" horiz-adv-x="1326" d="M56 913q41 9 60.5 14t33.5 14q65 39 123 80q67 48 109 72q69 40 146 57.5t150 17.5q36 0 66 -4q249 -26 388 -240q43 -65 63 -172q14 -75 14 -152v-489q0 -27 2 -40t10 -27.5t15 -24t21 -19.5h-513q9 6 16 14q4 5 20 29q6 9 9 24.5t3 28.5v15v432v32.5t1 35.5 q0 92 -31.5 122t-91.5 30q-45 0 -84 -18q-27 -13 -52 -36v-598q0 -29 2 -39.5t9.5 -26.5t15 -25.5t21.5 -19.5h-513q9 6 15 14q4 5 21 29q6 9 9 24.5t3 28.5v15v619q0 43 -4 66q-8 45 -30 80zM299 1471q25 10 50 22q45 44 76 67q57 43 128 43q73 0 183 -65q53 -31 104 -31 q25 0 43 26q6 9 27 56l167 -178q-23 -6 -38 -10.5t-23 -9.5q-67 -48 -78 -55q-45 -27 -96 -35q-18 -3 -28 -2q-54 0 -145 40t-120 40q-6 0 -19 -3q-27 -8 -39 -28q-13 -31 -22 -52z" />
<glyph unicode="&#xf2;" horiz-adv-x="1344" d="M64 557q0 248 180 429.5t420 181.5q250 0 429 -175t179 -428q0 -249 -184.5 -421.5t-435.5 -172.5q-241 0 -414.5 172.5t-173.5 413.5zM420 1361l105 302q1 -6 14 -26t19.5 -28.5t22.5 -21t30 -22.5l387 -270l-466 73q-13 1 -22.5 2t-14.5 1q-10 0 -20.5 -1.5t-14.5 -1.5 zM487 564q0 -73 52 -126t123 -53q75 0 135 49t60 122q0 82 -56 139t-139 57q-69 0 -122 -57t-53 -131z" />
<glyph unicode="&#xf3;" horiz-adv-x="1349" d="M64 557q0 248 180 429.5t420 181.5q250 0 429 -175t179 -428q0 -249 -184.5 -421.5t-435.5 -172.5q-241 0 -414.5 172.5t-173.5 413.5zM411 1295l367 254q36 26 46 33q16 13 29 30l26 36l105 -292q-8 0 -17 2q-27 8 -41 8h-29.5t-47.5 -5zM487 564q0 -73 52 -126t123 -53 q75 0 135 49t60 122q0 82 -56 139t-139 57q-69 0 -122 -57t-53 -131z" />
<glyph unicode="&#xf4;" horiz-adv-x="1342" d="M64 557q0 248 180 429.5t420 181.5q250 0 429 -175t179 -428q0 -249 -184.5 -421.5t-435.5 -172.5q-241 0 -414.5 172.5t-173.5 413.5zM295 1303q45 34 72 59t53 50q32 30 153 160q12 13 95 103q38 -47 119.5 -131t161.5 -164q14 -14 43 -40q38 -34 44 -39h-321 q9 18 7 30q-1 18 -33 56q-19 22 -30 26q-12 -4 -32 -33t-26 -47q-4 -9 0 -20q1 -4 5 -10h-311zM487 564q0 -73 52 -126t123 -53q75 0 135 49t60 122q0 82 -56 139t-139 57q-69 0 -122 -57t-53 -131z" />
<glyph unicode="&#xf5;" horiz-adv-x="1337" d="M64 557q0 248 180 429.5t420 181.5q250 0 429 -175t179 -428q0 -249 -184.5 -421.5t-435.5 -172.5q-241 0 -414.5 172.5t-173.5 413.5zM265 1470q25 10 50 22q45 44 76 67q57 43 128 43q73 0 183 -65q53 -31 104 -31q25 0 43 26q6 9 27 56l167 -178q-23 -6 -38 -10.5 t-23 -9.5q-67 -48 -78 -55q-45 -27 -96 -35q-18 -3 -28 -2q-54 0 -145 40t-120 40q-6 0 -19 -3q-27 -8 -39 -28q-13 -31 -22 -52zM487 564q0 -73 52 -126t123 -53q75 0 135 49t60 122q0 82 -56 139t-139 57q-69 0 -122 -57t-53 -131z" />
<glyph unicode="&#xf6;" horiz-adv-x="1344" d="M64 557q0 248 180 429.5t420 181.5q250 0 429 -175t179 -428q0 -249 -184.5 -421.5t-435.5 -172.5q-241 0 -414.5 172.5t-173.5 413.5zM267 1478q0 69 50 118.5t119 49.5q74 0 126 -50t52 -124q0 -69 -51.5 -119t-119.5 -50q-73 0 -124.5 50.5t-51.5 124.5zM487 564 q0 -73 52 -126t123 -53q75 0 135 49t60 122q0 82 -56 139t-139 57q-69 0 -122 -57t-53 -131zM718 1478q0 69 50 118.5t117 49.5q74 0 127.5 -49.5t53.5 -124.5q0 -70 -52 -120.5t-121 -50.5q-71 0 -123 52t-52 125z" />
<glyph unicode="&#xf7;" horiz-adv-x="1456" d="M65 474v144h1323v-144h-1323zM573 202q0 58 42 99t99 41q58 0 100.5 -42t42.5 -100t-43 -101t-102 -43q-57 0 -98 43.5t-41 102.5zM574 893q0 58 41.5 98.5t100.5 40.5q58 0 100 -42.5t42 -100.5t-43.5 -100t-101.5 -42q-57 0 -98 43t-41 103z" />
<glyph unicode="&#xf8;" horiz-adv-x="1340" d="M64 557q0 248 180 429.5t420 181.5q62 0 115 -9q5 12 7.5 28.5t2.5 25.5q0 14 -2 27l-11 34h269q-9 -10 -16 -19q-4 -5 -15.5 -24t-24 -44.5t-23.5 -58.5l-11 -30q143 -75 230 -218.5t87 -314.5q0 -249 -184.5 -421.5t-435.5 -172.5q-19 0 -38.5 2t-53.5 8 q-13 -38 -17 -54t-4 -28q0 -9 2 -13l6 -38h-250l26 43q13 27 26 61q8 21 18 49l14 40q-143 76 -228 210q-89 140 -89 306zM487 564q0 -61 41 -112l105 296q-61 -14 -103.5 -66.5t-42.5 -117.5zM704 389q62 12 107.5 58.5t45.5 108.5q0 79 -47 132z" />
<glyph unicode="&#xf9;" horiz-adv-x="1340" d="M62 1137h515q-12 -8 -19 -17t-17 -24t-11.5 -31t-1.5 -40v-431v-34q0 -86 18 -131q30 -76 110 -76q47 0 85 18q27 13 54 37v617q0 29 -2 40t-11 29q-13 27 -37 43h515q-9 -6 -20 -20q-5 -8 -15 -22t-12 -30t-2 -40v-618q0 -35 5.5 -85.5t17.5 -73.5q5 -12 10.5 -22.5 t19.5 -29.5q-34 -6 -56.5 -14t-42.5 -17q-53 -25 -98 -55q-100 -65 -130 -79q-71 -35 -149.5 -50.5t-147.5 -15.5q-35 0 -64 4q-126 13 -226.5 74.5t-171.5 165.5q-34 48 -50.5 126t-16.5 202v488q0 29 -1.5 40t-10.5 29q-13 27 -37 43zM433 1363l105 302q1 -6 14 -26 t19.5 -28.5t22.5 -21t30 -22.5l387 -270l-466 73q-13 1 -22.5 2t-14.5 1q-10 0 -20.5 -1.5t-14.5 -1.5z" />
<glyph unicode="&#xfa;" horiz-adv-x="1319" d="M35 1137h515q-12 -8 -19 -17t-17 -24t-11.5 -31t-1.5 -40v-431v-34q0 -86 18 -131q30 -76 110 -76q47 0 85 18q27 13 54 37v617q0 29 -2 40t-11 29q-13 27 -37 43h515q-9 -6 -20 -20q-5 -8 -15 -22t-12 -30t-2 -40v-618q0 -35 5.5 -85.5t17.5 -73.5q5 -12 10.5 -22.5 t19.5 -29.5q-34 -6 -56.5 -14t-42.5 -17q-53 -25 -98 -55q-100 -65 -130 -79q-71 -35 -149.5 -50.5t-147.5 -15.5q-35 0 -64 4q-126 13 -226.5 74.5t-171.5 165.5q-34 48 -50.5 126t-16.5 202v488q0 29 -1.5 40t-10.5 29q-13 27 -37 43zM434 1295l367 254q36 26 46 33 q16 13 29 30l26 36l105 -292q-8 0 -17 2q-27 8 -41 8h-29.5t-47.5 -5z" />
<glyph unicode="&#xfb;" horiz-adv-x="1327" d="M62 1137h515q-12 -8 -19 -17t-17 -24t-11.5 -31t-1.5 -40v-431v-34q0 -86 18 -131q30 -76 110 -76q47 0 85 18q27 13 54 37v617q0 29 -2 40t-11 29q-13 27 -37 43h515q-9 -6 -20 -20q-5 -8 -15 -22t-12 -30t-2 -40v-618q0 -35 5.5 -85.5t17.5 -73.5q5 -12 10.5 -22.5 t19.5 -29.5q-34 -6 -56.5 -14t-42.5 -17q-53 -25 -98 -55q-100 -65 -130 -79q-71 -35 -149.5 -50.5t-147.5 -15.5q-35 0 -64 4q-126 13 -226.5 74.5t-171.5 165.5q-34 48 -50.5 126t-16.5 202v488q0 29 -1.5 40t-10.5 29q-13 27 -37 43zM302 1302q45 34 72 59t53 50 q32 30 153 160q12 13 95 103q38 -47 119.5 -131t161.5 -164q14 -14 43 -40q38 -34 44 -39h-321q9 18 7 30q-1 18 -33 56q-19 22 -30 26q-12 -4 -32 -33t-26 -47q-4 -9 0 -20q1 -4 5 -10h-311z" />
<glyph unicode="&#xfc;" horiz-adv-x="1340" d="M62 1137h515q-12 -8 -19 -17t-17 -24t-11.5 -31t-1.5 -40v-431v-34q0 -86 18 -131q30 -76 110 -76q47 0 85 18q27 13 54 37v617q0 29 -2 40t-11 29q-13 27 -37 43h515q-9 -6 -20 -20q-5 -8 -15 -22t-12 -30t-2 -40v-618q0 -35 5.5 -85.5t17.5 -73.5q5 -12 10.5 -22.5 t19.5 -29.5q-34 -6 -56.5 -14t-42.5 -17q-53 -25 -98 -55q-100 -65 -130 -79q-71 -35 -149.5 -50.5t-147.5 -15.5q-35 0 -64 4q-126 13 -226.5 74.5t-171.5 165.5q-34 48 -50.5 126t-16.5 202v488q0 29 -1.5 40t-10.5 29q-13 27 -37 43zM268 1469q0 69 50 118.5t119 49.5 q74 0 126 -50t52 -124q0 -69 -51.5 -119t-119.5 -50q-73 0 -124.5 50.5t-51.5 124.5zM719 1469q0 69 50 118.5t117 49.5q74 0 127.5 -49.5t53.5 -124.5q0 -70 -52 -120.5t-121 -50.5q-71 0 -123 52t-52 125z" />
<glyph unicode="&#xfd;" horiz-adv-x="0" />
<glyph unicode="&#xff;" horiz-adv-x="1564" d="M56 1137h612q-3 -4 -16 -23.5t-16 -25.5q-9 -21 -9 -56q0 -22 1.5 -33t9.5 -29l125 -336l118 295q16 41 23 64t7 48q0 14 -2.5 26.5t-11.5 32.5t-25 37h620q-30 -23 -52 -48q-17 -18 -27 -34q-21 -27 -48 -80q-9 -17 -78 -170l-496 -1103q-21 -45 -21 -91q0 -13 2 -23.5 t15 -31t27 -33.5h-623q25 17 40 31t36 39q40 44 66 101l210 458l-347 773q-10 25 -35 69q-32 58 -59 91zM408 1474q0 69 50 118.5t119 49.5q74 0 126 -50t52 -124q0 -69 -51.5 -119t-119.5 -50q-73 0 -124.5 50.5t-51.5 124.5zM859 1474q0 69 50 118.5t117 49.5 q74 0 127.5 -49.5t53.5 -124.5q0 -70 -52 -120.5t-121 -50.5q-71 0 -123 52t-52 125z" />
<glyph unicode="&#x152;" horiz-adv-x="2281" d="M64 835q0 334 235.5 575t568.5 241q111 0 204 -23q30 -8 70 -23h1058v-503q-14 13 -26 21q-16 12 -27 14q-45 13 -115 13h-318v-148h186q34 0 48 2t37 12.5t41 26.5v-462q-23 22 -42.5 28.5t-40.5 9t-35 2.5h-26h-168v-153h318q44 0 63.5 1.5t38.5 7t35 15.5t31 20v-512 h-1052q-54 -9 -86 -13q-106 -14 -165 -14q-346 0 -589.5 255t-243.5 607zM583 789q0 -119 90 -206.5t211 -87.5q128 0 221 88t93 212q0 137 -83 226q-88 95 -236 95q-137 0 -219 -97q-76 -91 -77 -230z" />
<glyph unicode="&#x153;" horiz-adv-x="2151" d="M64 557q0 248 180 429.5t420 181.5q113 0 212.5 -35t181.5 -105q79 71 178.5 111.5t197.5 40.5q165 0 304 -74q156 -83 249 -244q48 -83 67 -210q13 -84 13 -187q0 -14 6 -28.5t11 -26.5h-746q30 -48 84 -75t122 -27q83 0 151 26q67 32 89 42v-402q-23 9 -38.5 14.5 t-31.5 3.5q-74 -13 -137.5 -23t-111.5 -10q-115 0 -220.5 41t-186.5 113q-169 -141 -406 -142q-241 0 -414.5 172.5t-173.5 413.5zM487 564q0 -73 52 -126t123 -53q75 0 135 49t60 122q0 82 -56 139t-139 57q-69 0 -122 -57t-53 -131zM1308 688h320l-10 25 q-18 40 -64.5 67.5t-96.5 27.5q-47 0 -88 -33q-36 -29 -52 -66z" />
<glyph unicode="&#x178;" horiz-adv-x="1815" d="M69 1605h707q-16 -18 -24 -31q-16 -25 -16 -44q0 -27 30 -72l32 -46l122 -190l130 199q19 31 31.5 62t12.5 57q0 21 -8.5 37t-20.5 28h702q-17 -12 -41 -39t-46 -56q-69 -93 -114 -159q-34 -49 -100 -151l-307 -473v-616q0 -29 2 -39.5t12 -32t35 -39.5h-610q9 6 15 14 q4 5 21 29q6 9 9 24.5t3 28.5v15v624l-382 613q-41 67 -75 115q-27 40 -59 79q-21 26 -38 42q-4 4 -23 21zM565 1969q0 69 50 118.5t119 49.5q74 0 126 -50t52 -124q0 -69 -51.5 -119t-119.5 -50q-73 0 -124.5 50.5t-51.5 124.5zM1016 1969q0 69 50 118.5t117 49.5 q74 0 127.5 -49.5t53.5 -124.5q0 -70 -52 -120.5t-121 -50.5q-71 0 -123 52t-52 125z" />
<glyph unicode="&#x2000;" horiz-adv-x="1096" />
<glyph unicode="&#x2001;" horiz-adv-x="2193" />
<glyph unicode="&#x2002;" horiz-adv-x="1096" />
<glyph unicode="&#x2003;" horiz-adv-x="2193" />
<glyph unicode="&#x2004;" horiz-adv-x="731" />
<glyph unicode="&#x2005;" horiz-adv-x="548" />
<glyph unicode="&#x2006;" horiz-adv-x="365" />
<glyph unicode="&#x2007;" horiz-adv-x="365" />
<glyph unicode="&#x2008;" horiz-adv-x="274" />
<glyph unicode="&#x2009;" horiz-adv-x="438" />
<glyph unicode="&#x200a;" horiz-adv-x="121" />
<glyph unicode="&#x2010;" d="M62 412v408h683q17 0 32 3t33 12t35 27v-399h-649q-23 0 -49 -5.5t-50 -16.5q-12 -6 -18 -12z" />
<glyph unicode="&#x2011;" d="M62 412v408h683q17 0 32 3t33 12t35 27v-399h-649q-23 0 -49 -5.5t-50 -16.5q-12 -6 -18 -12z" />
<glyph unicode="&#x2012;" d="M62 412v408h683q17 0 32 3t33 12t35 27v-399h-649q-23 0 -49 -5.5t-50 -16.5q-12 -6 -18 -12z" />
<glyph unicode="&#x2013;" horiz-adv-x="1364" d="M76 412v408h1101q17 0 32 3t29 10q25 12 39 29v-399h-1068q-22 0 -49.5 -6t-47 -16.5t-36.5 -28.5z" />
<glyph unicode="&#x2014;" horiz-adv-x="1733" d="M76 423v399l1437 1q21 0 48 5t47.5 15.5t36.5 30.5v-410l-1469 -1q-22 0 -31.5 -2t-31 -11t-37.5 -27z" />
<glyph unicode="&#x2018;" horiz-adv-x="744" d="M65 1558h549q-21 -23 -33 -54q-6 -19 -7 -44q0 -14 1 -24.5t4 -30.5l95 -487h-314q4 10 12 26t8 24q-1 16 -4.5 30t-11.5 29z" />
<glyph unicode="&#x2019;" horiz-adv-x="744" d="M71 918l96 487q4 22 4 51q0 31 -6 48q-13 31 -34 54h550l-300 -531q-6 -10 -10 -29t-4 -30q-1 -9 5 -22q12 -25 13 -28h-314z" />
<glyph unicode="&#x201a;" horiz-adv-x="744" d="M71 -353l96 488q4 22 4 50q0 31 -6 48q-13 31 -34 55h550l-300 -532q-6 -10 -10 -29t-4 -29q-1 -9 5 -22q12 -25 13 -29h-314z" />
<glyph unicode="&#x201c;" horiz-adv-x="1292" d="M54 1558h550q-21 -23 -34 -54q-6 -19 -6 -44q0 -14 0.5 -24.5t4.5 -30.5l95 -487h-314q4 10 11.5 26t7.5 24q-1 16 -4 30t-11 29zM627 1558h551q-10 -10 -19 -25t-13.5 -26t-6 -23.5t-1.5 -27.5q0 -29 4 -51l96 -487h-315q4 10 11.5 26t7.5 24q0 19 -3 31t-12 28z" />
<glyph unicode="&#x201d;" horiz-adv-x="1313" d="M78 918l96 487q4 22 4 51q0 31 -7 48q-13 31 -34 54h550l-299 -531q-6 -10 -10.5 -29t-4.5 -30q-1 -9 5 -22q12 -25 13 -28h-313zM651 918l96 487q3 17 4 23q1 10 1 28q0 29 -8.5 50t-15 30.5t-18.5 21.5h550l-300 -531q-6 -10 -10 -29t-4 -30q-1 -8 7.5 -24t12.5 -26 h-315z" />
<glyph unicode="&#x201e;" horiz-adv-x="1438" d="M71 -353l96 488q4 22 4 50q0 31 -6 48q-13 31 -34 55h550l-300 -532q-6 -10 -10 -29t-4 -29q-1 -9 5 -22q12 -25 13 -29h-314zM739 -353l96 488q4 22 4 50q0 31 -7 48q-13 31 -34 55h550l-299 -532q-6 -10 -10.5 -29t-4.5 -29q-1 -9 6 -22q12 -25 13 -29h-314z" />
<glyph unicode="&#x2022;" horiz-adv-x="664" d="M65 782q0 109 75 188t183 79t186.5 -75t78.5 -183q0 -109 -82.5 -184.5t-197.5 -75.5q-101 0 -172 74t-71 177z" />
<glyph unicode="&#x2026;" horiz-adv-x="2716" d="M54 245q0 106 78 181.5t187 75.5q110 0 186 -82.5t76 -196.5q0 -109 -82.5 -179.5t-193.5 -70.5q-106 0 -178.5 81t-72.5 191zM1086 245q0 106 78 181.5t187 75.5q110 0 185.5 -82.5t75.5 -196.5q0 -109 -82 -179.5t-194 -70.5q-106 0 -178 81t-72 191zM2122 250 q0 106 77.5 181.5t185.5 75.5q110 0 186 -82.5t76 -196.5q0 -110 -81 -180t-194 -70q-106 0 -178 81t-72 191z" />
<glyph unicode="&#x202f;" horiz-adv-x="438" />
<glyph unicode="&#x205f;" horiz-adv-x="548" />
<glyph unicode="&#x2122;" horiz-adv-x="1482" d="M60 1501v65h563v-66h-245v-717h-76v718h-242zM681 1562h119l246 -684l253 683h111v-778h-76v692l-258 -691h-69l-249 694v-695h-76z" />
<glyph unicode="&#x25fc;" horiz-adv-x="1134" d="M0 0v1134h1134v-1134h-1134z" />
</font>
</defs>
</svg>
