<svg width="100%" class="item-1"  height="100%" viewBox="0 0 549 497" version="1.1" xmlns="http://www.w3.org/2000/svg" xmlns:xlink="http://www.w3.org/1999/xlink" xml:space="preserve" xmlns:serif="http://www.serif.com/" style="fill-rule:evenodd;clip-rule:evenodd;stroke-linecap:round;stroke-linejoin:round;stroke-miterlimit:1.5;">
    <g transform="matrix(1,0,0,1,-965.747,-1135.83)">
        <g transform="matrix(-4.16667,0,0,4.16667,1922.05,736.883)">
            <circle cx="211.549" cy="141.491" r="15.964" style="fill:white;stroke:black;stroke-width:4px;"/>
        </g>
        <g transform="matrix(-4.16667,0,0,4.16667,2188.13,736.883)">
            <ellipse cx="243.478" cy="141.491" rx="15.965" ry="15.965" style="fill:white;stroke:black;stroke-width:4px;"/>
        </g>
        <g transform="matrix(-4.16667,0,0,4.16667,2055.09,505.391)">
            <circle cx="227.514" cy="169.27" r="15.965" style="fill:white;stroke:black;stroke-width:4px;"/>
        </g>
        <g transform="matrix(-4.16667,0,0,4.16667,2055.09,968.383)">
            <circle cx="227.514" cy="113.711" r="15.965" style="fill:white;stroke:black;stroke-width:4px;"/>
        </g>
        <g transform="matrix(-4.16667,0,0,4.16667,2454.21,736.883)">
            <circle cx="275.408" cy="141.491" r="15.965" style="fill:white;stroke:black;stroke-width:4px;"/>
        </g>
        <g transform="matrix(-4.16667,0,0,4.16667,2321.17,505.391)">
            <circle cx="259.443" cy="169.27" r="15.964" style="fill:white;stroke:black;stroke-width:4px;"/>
        </g>
        <g transform="matrix(-4.16667,0,0,4.16667,2321.17,968.383)">
            <circle cx="259.443" cy="113.711" r="15.964" style="fill:white;stroke:black;stroke-width:4px;"/>
        </g>
        <g transform="matrix(-4.16667,0,0,4.16667,2188.85,1199.91)">
            <ellipse cx="243.565" cy="85.927" rx="15.964" ry="15.965" style="fill:white;stroke:black;stroke-width:4px;"/>
        </g>
        <g transform="matrix(-4.16667,0,0,4.16667,2720.28,736.883)">
            <circle cx="307.337" cy="141.491" r="15.964" style="fill:white;stroke:black;stroke-width:4px;"/>
        </g>
        <g transform="matrix(-4.16667,0,0,4.16667,2587.25,505.391)">
            <ellipse cx="291.372" cy="169.27" rx="15.965" ry="15.964" style="fill:white;stroke:black;stroke-width:4px;"/>
        </g>
        <g transform="matrix(-4.16667,0,0,4.16667,2587.25,968.383)">
            <ellipse cx="291.372" cy="113.711" rx="15.965" ry="15.964" style="fill:white;stroke:black;stroke-width:4px;"/>
        </g>
        <g transform="matrix(-4.16667,0,0,4.16667,2454.93,1199.91)">
            <ellipse cx="275.494" cy="85.927" rx="15.965" ry="15.965" style="fill:white;stroke:black;stroke-width:4px;"/>
        </g>
    </g>
</svg>
