<?xml version="1.0" encoding="UTF-8" standalone="no"?>
<!DOCTYPE svg PUBLIC "-//W3C//DTD SVG 1.1//EN" "http://www.w3.org/Graphics/SVG/1.1/DTD/svg11.dtd">
<svg width="100%" height="100%" viewBox="0 0 6370 969" version="1.1" xmlns="http://www.w3.org/2000/svg" xmlns:xlink="http://www.w3.org/1999/xlink" xml:space="preserve" xmlns:serif="http://www.serif.com/" style="fill-rule:evenodd;clip-rule:evenodd;stroke-linejoin:round;stroke-miterlimit:2;">
    <g transform="matrix(1,0,0,1,-1142.35,-2880.31)">
        <g transform="matrix(4.16667,0,0,4.16667,808,2536)">
            <g transform="matrix(1,0,0,1,305.358,84.9616)">
                <path d="M0,227.796L80.437,227.796L59.865,95.421C58.299,84.464 52.532,76.146 42.583,70.392C32.633,64.66 19.041,61.786 1.818,61.786C-12.38,61.786 -24.142,63.904 -33.485,68.165C-42.829,72.426 -49.07,78.553 -52.22,86.528L-54.351,92.085L-71.027,140.795C-71.496,142.139 -73.397,142.145 -73.866,140.801L-92.415,87.554L-92.811,86.528C-96.081,78.553 -102.364,72.426 -111.648,68.165C-120.925,63.904 -132.657,61.786 -146.861,61.786C-164.078,61.786 -177.67,64.66 -187.62,70.392C-197.575,76.146 -203.396,84.464 -205.077,95.421L-225.114,227.796L-145.031,227.796L-135.417,132.934C-135.255,131.355 -133.065,131.079 -132.519,132.573L-129.033,142.091C-128.661,143.195 -128.294,144.233 -127.934,145.133L-127.262,146.928L-127.262,146.934L-103.36,210.682C-100.822,217.24 -96.987,222.132 -91.905,225.318C-86.792,228.528 -80.317,230.124 -72.419,230.124C-64.42,230.124 -57.867,228.528 -52.772,225.318C-47.671,222.132 -43.915,217.24 -41.497,210.682L-16.743,145.133C-16.659,144.875 -16.581,144.6 -16.502,144.341L-12.584,133.642C-12.038,132.148 -9.848,132.411 -9.686,133.995L0,227.796ZM1258.08,31.589L1258.08,21.166L1261.29,21.166C1265.77,21.166 1268.61,21.346 1269.74,21.682C1270.9,22.042 1271.79,22.642 1272.42,23.476C1273.04,24.292 1273.36,25.253 1273.36,26.308C1273.36,27.413 1273.01,28.379 1272.39,29.255C1271.75,30.107 1270.88,30.713 1269.77,31.049C1268.67,31.403 1265.85,31.589 1261.29,31.589L1258.08,31.589ZM1250.08,53.607L1258.08,53.607L1258.08,37.716L1260.12,37.716C1262.32,37.716 1264.14,38.262 1265.58,39.361C1267.01,40.441 1268.81,43.111 1270.98,47.33L1274.24,53.607L1284.1,53.607L1279.51,45.83C1277.86,43.063 1276.92,41.491 1276.62,41.119C1275.5,39.672 1274.63,38.682 1273.97,38.143C1273.35,37.638 1272.42,37.14 1271.23,36.708C1274.58,36.216 1277.13,34.998 1278.95,33.024C1280.8,31.049 1281.73,28.661 1281.73,25.882C1281.73,23.86 1281.24,21.994 1280.26,20.338C1279.29,18.693 1278.06,17.457 1276.6,16.647C1275.16,15.843 1273.1,15.357 1270.49,15.105C1269.59,15.063 1265.42,15.009 1258,15.009L1250.08,15.009L1250.08,53.607ZM1266.77,4.861C1271.84,4.861 1276.71,6.128 1281.39,8.636C1286.06,11.126 1289.72,14.721 1292.42,19.413C1295.06,24.088 1296.44,29.009 1296.44,34.146C1296.44,39.247 1295.11,44.101 1292.48,48.722C1289.85,53.331 1286.19,56.943 1281.52,59.547C1276.85,62.158 1271.93,63.436 1266.77,63.436C1261.64,63.436 1256.72,62.158 1252.03,59.547C1247.35,56.943 1243.7,53.331 1241.07,48.722C1238.46,44.101 1237.16,39.247 1237.16,34.146C1237.16,29.009 1238.49,24.088 1241.17,19.413C1243.85,14.721 1247.54,11.126 1252.19,8.636C1256.83,6.128 1261.68,4.861 1266.77,4.861M1266.72,-2.328C1260.42,-2.328 1254.37,-0.78 1248.55,2.347C1242.73,5.467 1238.16,9.956 1234.83,15.795C1231.52,21.64 1229.84,27.725 1229.84,34.128C1229.84,40.441 1231.48,46.502 1234.73,52.275C1238.01,58.024 1242.55,62.494 1248.37,65.723C1254.2,68.939 1260.32,70.56 1266.72,70.56C1273.17,70.56 1279.29,68.939 1285.12,65.723C1290.94,62.494 1295.47,58.024 1298.74,52.275C1301.98,46.502 1303.62,40.441 1303.62,34.128C1303.62,27.725 1301.95,21.64 1298.63,15.795C1295.31,9.956 1290.75,5.467 1284.95,2.347C1279.11,-0.78 1273.07,-2.328 1266.72,-2.328M1090.89,64.583L1009.86,64.583L1009.86,115.759C1009.86,129.207 1014.23,140.393 1023,149.34C1031.79,158.251 1045.37,165.345 1063.75,170.583L1063.75,227.796L1145.54,227.796L1145.54,170.583C1163.78,165.488 1177.28,158.474 1185.99,149.55C1194.69,140.627 1199.06,129.357 1199.06,115.759L1199.06,64.583L1118,64.583L1118,116.905C1118,120.392 1116.86,123.056 1114.57,124.88C1112.29,126.687 1108.98,127.629 1104.65,127.629C1100.17,127.629 1096.76,126.687 1094.4,124.88C1092.05,123.056 1090.89,120.392 1090.89,116.905L1090.89,64.583ZM786.616,227.796L869.405,227.796L869.405,156.499L881.023,156.499C890.246,156.499 896.584,157.688 900.01,160.033C903.455,162.399 905.177,166.881 905.177,173.494L905.177,227.796L990.648,227.796L990.648,179.2C990.648,163.353 987.21,148.122 981.161,141.406C970.678,129.765 953.965,128.775 953.965,128.775C953.965,128.775 959.617,124.526 967.965,111.81L996.26,64.583L910.488,64.583L889.335,103.265C887,107.921 884.216,111.324 881.023,113.478C877.837,115.656 873.966,116.827 869.405,116.965L869.405,64.583L786.616,64.583L786.616,227.796ZM558.1,227.796L640.901,227.796L640.901,156.499L652.513,156.499C661.736,156.499 668.073,157.688 671.5,160.033C674.95,162.399 676.667,166.881 676.667,173.494L676.667,227.796L762.133,227.796L762.133,179.2C762.133,163.353 758.7,148.122 752.657,141.406C742.167,129.765 725.454,128.775 725.454,128.775C725.454,128.775 731.107,124.526 739.455,111.81L767.755,64.583L681.978,64.583L660.824,103.265C658.49,107.921 655.706,111.324 652.513,113.478C649.326,115.656 645.456,116.827 640.901,116.965L640.901,64.583L558.1,64.583L558.1,227.796ZM395.036,64.583L395.036,169.845C395.036,189.612 402.711,204.213 418.056,213.658C433.395,223.08 457.116,227.796 489.227,227.796L541.363,227.796L541.363,179.614L500.665,179.614C492.204,179.614 485.891,178.324 481.714,175.678C477.549,173.073 475.461,169.059 475.461,163.67L475.461,64.583L395.036,64.583ZM171.885,70.847C171.885,75.408 174.58,79.249 179.962,82.405C185.351,85.544 192,87.122 199.916,87.122C207.951,87.122 214.6,85.592 219.845,82.507C225.102,79.429 227.73,75.546 227.73,70.847C227.73,66.365 224.994,62.5 219.551,59.278C214.108,56.055 207.567,54.441 199.916,54.441C192.378,54.441 185.843,56.073 180.269,59.332C174.682,62.608 171.885,66.437 171.885,70.847M239.078,71.334C239.078,75.894 241.76,79.729 247.137,82.898C252.514,86.03 259.097,87.609 266.88,87.609C274.927,87.609 281.594,86.078 286.923,82.994C292.24,79.909 294.893,76.032 294.893,71.334C294.893,66.851 292.174,62.986 286.725,59.764C281.282,56.542 274.663,54.927 266.88,54.927C259.373,54.927 252.838,56.559 247.335,59.812C241.826,63.094 239.078,66.923 239.078,71.334M94.215,162.38C94.215,171.423 97.768,180.053 104.842,188.22C111.941,196.4 122.119,203.708 135.405,210.159C148.704,216.605 163.772,221.513 180.641,224.941C197.503,228.324 215.2,230.035 233.767,230.035C252.436,230.035 270.157,228.324 286.893,224.941C303.624,221.513 318.638,216.605 331.93,210.159C345.103,203.775 355.202,196.501 362.205,188.322C369.232,180.143 372.737,171.483 372.737,162.38C372.737,153.307 369.28,144.732 362.307,136.612C355.352,128.511 345.216,121.213 331.93,114.769C318.638,108.342 303.624,103.433 286.893,100.054C270.157,96.664 252.436,94.984 233.767,94.984C215.086,94.984 197.305,96.664 180.442,100.054C163.58,103.433 148.571,108.275 135.405,114.595C122.119,121.046 111.941,128.36 104.842,136.565C97.768,144.774 94.215,153.372 94.215,162.38M180.887,162.23C180.887,154.879 186.029,148.62 196.327,143.453C206.613,138.298 219.088,135.693 233.767,135.693C248.319,135.693 260.669,138.275 270.835,143.411C280.988,148.554 286.065,154.813 286.065,162.23C286.065,169.659 280.959,175.948 270.733,181.163C260.519,186.336 248.187,188.928 233.767,188.928C219.088,188.928 206.613,186.336 196.327,181.163C186.029,175.948 180.887,169.659 180.887,162.23" style="fill-rule:nonzero;"/>
            </g>
        </g>
    </g>
</svg>
