<?xml version="1.0" standalone="no"?>
<!DOCTYPE svg PUBLIC "-//W3C//DTD SVG 20010904//EN"
 "http://www.w3.org/TR/2001/REC-SVG-20010904/DTD/svg10.dtd">
<svg version="1.0" xmlns="http://www.w3.org/2000/svg"
 width="1138.000000pt" height="1138.000000pt" viewBox="0 0 1138.000000 1138.000000"
 preserveAspectRatio="xMidYMid meet">
<metadata>
Created by potrace 1.14, written by Peter Selinger 2001-2017
</metadata>
<g transform="translate(0.000000,1138.000000) scale(0.100000,-0.100000)"
fill="#000000" stroke="none">
<path d="M3259 11376 c-2 -2 -44 -7 -94 -10 -49 -3 -103 -8 -120 -10 -16 -2
-57 -7 -90 -10 -239 -26 -539 -98 -760 -183 -356 -137 -637 -315 -885 -563
-53 -52 -114 -117 -135 -145 -22 -27 -48 -59 -58 -70 -34 -36 -184 -268 -230
-355 -93 -175 -209 -486 -234 -630 -2 -14 -8 -41 -13 -60 -5 -19 -14 -71 -20
-115 -6 -44 -14 -91 -16 -105 -11 -51 -13 -357 -3 -425 6 -38 25 -118 44 -176
43 -134 45 -145 52 -260 9 -149 -28 -307 -147 -639 -21 -58 -62 -170 -90 -250
-28 -80 -58 -158 -65 -175 -19 -44 -130 -375 -164 -487 -65 -219 -18 -344 154
-404 39 -13 80 -17 190 -16 77 1 153 3 170 4 24 2 32 -2 43 -25 22 -46 18 -82
-17 -125 -63 -80 -70 -132 -27 -213 21 -42 23 -49 10 -60 -38 -32 -51 -100
-29 -153 8 -18 34 -52 59 -76 24 -23 52 -57 62 -76 l18 -33 -32 -45 c-48 -66
-101 -184 -116 -257 -46 -219 47 -404 254 -509 53 -27 223 -83 285 -95 162
-30 243 -41 365 -51 36 -3 83 -7 105 -9 22 -3 155 -7 295 -11 282 -7 362 -18
473 -64 154 -64 278 -153 442 -315 145 -144 159 -160 282 -322 201 -266 393
-584 607 -1008 45 -88 82 -163 84 -167 2 -4 26 -56 53 -114 164 -351 371 -857
509 -1244 34 -96 66 -184 70 -195 5 -11 19 -49 30 -85 12 -36 26 -74 30 -85 5
-11 27 -78 50 -150 22 -71 47 -141 54 -155 8 -14 19 -45 26 -70 55 -207 300
-396 615 -474 135 -33 369 -48 495 -31 45 6 110 16 133 21 51 11 60 14 77 19
10 3 27 7 37 9 22 5 113 40 173 68 168 77 326 239 369 379 34 110 146 451 171
519 15 41 53 147 85 235 76 212 219 579 281 722 8 18 20 48 28 65 110 256 211
474 323 698 132 262 138 273 276 510 360 620 750 1039 1088 1170 121 47 186
58 341 60 199 3 456 14 553 24 17 2 64 7 105 11 41 4 77 9 80 10 3 2 26 6 50
10 181 26 388 96 479 160 77 54 159 175 176 260 29 139 -8 290 -107 443 -37
57 -39 65 -29 91 7 16 36 52 66 80 79 77 94 172 35 226 -18 16 -18 18 6 62 26
50 32 120 12 156 -6 12 -25 39 -41 59 -34 43 -39 94 -11 135 13 21 21 24 47
18 18 -4 80 -9 138 -10 198 -6 320 41 375 145 29 55 25 173 -10 285 -39 129
-101 311 -153 450 -25 66 -46 125 -47 130 -2 6 -6 17 -9 25 -94 245 -216 616
-236 720 -19 102 -21 115 -22 190 0 91 12 157 51 276 47 139 58 228 55 409 -3
154 -5 184 -25 305 -22 134 -24 143 -50 244 -128 493 -383 913 -756 1247 -96
86 -375 279 -403 279 -5 0 -11 3 -13 8 -3 7 -211 112 -222 112 -4 0 -25 9 -49
20 -94 43 -363 129 -487 156 -146 30 -339 61 -445 69 -38 4 -81 9 -95 13 -26
7 -4974 15 -4981 8z"/>
</g>
</svg>
