<?xml version="1.0" encoding="UTF-8" standalone="no"?>
<!DOCTYPE svg PUBLIC "-//W3C//DTD SVG 1.1//EN" "http://www.w3.org/Graphics/SVG/1.1/DTD/svg11.dtd">
<svg width="100%" height="100%" viewBox="0 0 829 201" version="1.1" xmlns="http://www.w3.org/2000/svg" xmlns:xlink="http://www.w3.org/1999/xlink" xml:space="preserve" xmlns:serif="http://www.serif.com/" style="fill-rule:evenodd;clip-rule:evenodd;stroke-linecap:round;stroke-linejoin:round;stroke-miterlimit:10;">
    <g transform="matrix(1,0,0,1,-1.17575,-4.44089e-16)">
        <g id="Tavola-da-disegno1" serif:id="Tavola da disegno1" transform="matrix(1.00368,0,0,0.726066,-74.3061,0)">
            <rect x="74.034" y="0" width="827.966" height="276" style="fill:none;"/>
            <clipPath id="_clip1">
                <rect x="74.034" y="0" width="827.966" height="276"/>
            </clipPath>
            <g clip-path="url(#_clip1)">
                <g transform="matrix(0.996333,0,0,1.37729,2.3449,0)">
                    <g transform="matrix(0.726266,0,0,0.726266,73.1283,-8.71407)">
                        <g>
                            <path d="M183.318,15.444C183.564,15.442 183.814,15.441 184.065,15.441C251.785,15.441 257.06,72.083 253.196,82.976C251.292,88.342 250.499,91.492 253.196,100.056C255.905,108.661 260.282,119.087 262.96,128.221C266.69,140.948 249.791,137.333 249.791,137.333C249.791,137.333 248.06,139.476 249.791,141.207C251.753,143.169 251.369,145.382 249.791,147.354C249.791,147.354 251.028,148.096 251.198,149.634C251.308,150.63 250.787,152.191 249.791,152.967C247.807,154.513 247.582,155.911 247.582,155.911C247.582,155.911 254.505,163.719 249.791,171.294C245.806,177.699 232.203,179.336 215.256,179.336C183.318,179.336 154.896,272.966 154.896,272.966L107.983,272.966C107.983,272.966 79.561,179.336 48.241,179.336C31.294,179.336 17.692,177.699 13.706,171.294C8.992,163.719 15.916,155.911 15.916,155.911C15.916,155.911 15.69,154.513 13.706,152.967C12.711,152.191 12.19,150.63 12.3,149.634C12.47,148.096 13.706,147.354 13.706,147.354C12.128,145.382 11.744,143.169 13.706,141.207C15.438,139.476 13.706,137.333 13.706,137.333C13.706,137.333 -3.193,140.948 0.538,128.221C3.215,119.087 7.592,108.661 10.302,100.056C12.999,91.492 12.205,88.342 10.302,82.976C6.438,72.083 11.713,15.441 79.432,15.441L183.318,15.441L183.318,15.444Z"/>
                        </g>
                    </g>
                    <g transform="matrix(-0.726266,0,0,0.726266,183.551,-104.252)">
                        <g>
                            <circle cx="76.021" cy="209.977" r="18.473" style="fill:white;stroke:black;stroke-width:4px;"/>
                        </g>
                    </g>
                    <g transform="matrix(-0.726266,0,0,0.726266,237.215,-104.252)">
                        <g>
                            <circle cx="112.966" cy="209.977" r="18.473" style="fill:white;stroke:black;stroke-width:4px;"/>
                        </g>
                    </g>
                    <g transform="matrix(-0.726266,0,0,0.726266,210.382,-150.941)">
                        <g>
                            <circle cx="94.493" cy="242.12" r="18.473" style="fill:white;stroke:black;stroke-width:4px;"/>
                        </g>
                    </g>
                    <g transform="matrix(-0.726266,0,0,0.726266,210.382,-57.5607)">
                        <g>
                            <circle cx="94.493" cy="177.832" r="18.473" style="fill:white;stroke:black;stroke-width:4px;"/>
                        </g>
                    </g>
                    <g transform="matrix(-0.726266,0,0,0.726266,290.88,-104.252)">
                        <g>
                            <circle cx="149.912" cy="209.977" r="18.473" style="fill:white;stroke:black;stroke-width:4px;"/>
                        </g>
                    </g>
                    <g transform="matrix(-0.726266,0,0,0.726266,264.048,-150.941)">
                        <g>
                            <circle cx="131.439" cy="242.12" r="18.473" style="fill:white;stroke:black;stroke-width:4px;"/>
                        </g>
                    </g>
                    <g transform="matrix(-0.726266,0,0,0.726266,264.048,-57.5607)">
                        <g>
                            <circle cx="131.439" cy="177.832" r="18.473" style="fill:white;stroke:black;stroke-width:4px;"/>
                        </g>
                    </g>
                    <g transform="matrix(-0.726266,0,0,0.726266,237.362,-10.8632)">
                        <g>
                            <circle cx="113.067" cy="145.683" r="18.473" style="fill:white;stroke:black;stroke-width:4px;"/>
                        </g>
                    </g>
                    <g transform="matrix(-0.726266,0,0,0.726266,344.545,-104.252)">
                        <g>
                            <circle cx="186.858" cy="209.977" r="18.473" style="fill:white;stroke:black;stroke-width:4px;"/>
                        </g>
                    </g>
                    <g transform="matrix(-0.726266,0,0,0.726266,317.713,-150.941)">
                        <g>
                            <circle cx="168.385" cy="242.12" r="18.473" style="fill:white;stroke:black;stroke-width:4px;"/>
                        </g>
                    </g>
                    <g transform="matrix(-0.726266,0,0,0.726266,317.713,-57.5607)">
                        <g>
                            <circle cx="168.385" cy="177.832" r="18.473" style="fill:white;stroke:black;stroke-width:4px;"/>
                        </g>
                    </g>
                    <g transform="matrix(-0.726266,0,0,0.726266,291.026,-10.8632)">
                        <g>
                            <circle cx="150.013" cy="145.683" r="18.473" style="fill:white;stroke:black;stroke-width:4px;"/>
                        </g>
                    </g>
                    <g transform="matrix(1,0,0,1,1,-177.509)">
                        <g>
                            <path d="M345.083,267.041L289.658,267.041C289.964,266.822 290.226,266.582 290.444,266.32C290.575,266.145 290.925,265.665 291.493,264.879C291.711,264.573 291.864,264.158 291.951,263.634C292.039,263.11 292.082,262.629 292.082,262.193L292.082,190.717C292.082,190.105 292.049,189.603 291.984,189.21C291.918,188.817 291.755,188.435 291.493,188.063C291.231,187.692 290.958,187.31 290.674,186.917C290.39,186.524 290.051,186.196 289.658,185.934L320.515,185.934C319.773,186.458 319.161,187.157 318.681,188.031C318.419,188.511 318.244,189.057 318.157,189.669C318.069,190.28 318.026,190.891 318.026,191.503L318.026,243.783L335.518,243.783C337.134,243.783 338.477,243.696 339.547,243.521C340.617,243.346 341.469,243.139 342.102,242.899C342.736,242.659 343.26,242.396 343.675,242.113C344.089,241.829 344.559,241.446 345.083,240.966L345.083,267.041Z" style="fill:white;fill-rule:nonzero;stroke:black;stroke-width:5px;stroke-linecap:butt;"/>
                        </g>
                    </g>
                    <g transform="matrix(1,0,0,1,1,-177.509)">
                        <g>
                            <path d="M420.79,267.041L386.985,267.041C387.378,266.517 387.683,266.014 387.902,265.534C388.12,265.053 388.262,264.617 388.328,264.224C388.393,263.83 388.426,263.35 388.426,262.782C388.426,261.865 388.339,261.09 388.164,260.456C387.989,259.823 387.858,259.332 387.771,258.982L386.854,255.51L365.365,255.51L364.317,258.851C364.142,259.419 364.011,260.096 363.924,260.882C363.836,261.669 363.793,262.389 363.793,263.044C363.793,263.743 363.847,264.267 363.956,264.617C364.066,264.966 364.208,265.348 364.382,265.763C364.557,266.178 364.797,266.604 365.103,267.041L330.774,267.041C331.341,266.604 331.942,266.102 332.575,265.534C333.208,264.966 333.765,264.267 334.246,263.437C334.726,262.608 335.327,261.363 336.047,259.703C336.768,258.043 337.347,256.58 337.784,255.314L358.289,198.12C359.163,195.674 359.731,193.894 359.993,192.78C360.255,191.667 360.364,190.804 360.32,190.193C360.189,189.275 359.916,188.478 359.501,187.801C359.087,187.124 358.595,186.502 358.027,185.934L388.426,185.934L413.583,253.938C414.151,255.423 414.981,257.345 416.073,259.703C416.946,261.537 417.623,262.891 418.104,263.765C418.934,265.294 419.829,266.386 420.79,267.041ZM381.023,236.249L375.782,218.626L370.606,236.249L381.023,236.249Z" style="fill:white;fill-rule:nonzero;stroke:black;stroke-width:5px;stroke-linecap:butt;"/>
                        </g>
                    </g>
                    <g transform="matrix(1,0,0,1,1,-176.446)">
                        <g>
                            <path d="M550.29,259.772C549.232,260.301 548.391,260.733 547.766,261.07C546.516,261.694 545.627,262.223 545.098,262.656C540.772,266.117 535.845,268.7 530.317,270.407C524.79,272.113 518.853,272.966 512.508,272.966C506.452,272.966 500.443,271.404 494.483,268.28C488.234,265.011 482.875,260.445 478.404,254.58C475.376,250.639 473.057,246.205 471.447,241.278C469.836,236.351 469.031,231.364 469.031,226.317C469.031,219.539 470.353,213.11 472.997,207.029C475.64,200.949 479.534,195.746 484.677,191.419C488.955,187.862 493.113,185.147 497.151,183.272C502.246,180.917 507.389,179.739 512.581,179.739C515.224,179.739 517.543,179.859 519.538,180.099C521.533,180.34 523.66,180.604 525.919,180.893C526.4,180.893 526.736,180.869 526.929,180.821C527.361,180.772 527.842,180.64 528.371,180.424C528.899,180.208 529.885,179.715 531.327,178.946L531.327,213.266L529.741,212.401C528.203,211.584 526.52,210.887 524.694,210.31C521.954,209.445 519.31,209.012 516.762,209.012C515.849,209.012 515.032,209.036 514.311,209.084C513.59,209.132 512.845,209.253 512.076,209.445C507.75,210.31 504.325,212.197 501.801,215.105C499.278,218.013 498.016,221.558 498.016,225.74C498.016,230.883 499.602,235.065 502.775,238.285C505.755,241.314 509.72,243.14 514.671,243.765C514.912,243.813 515.296,243.837 515.825,243.837C516.738,243.837 517.832,243.681 519.106,243.369C520.379,243.056 521.209,242.852 521.593,242.756L521.593,236.627L512.725,236.627C511.811,236.579 511.09,236.555 510.562,236.555C509.552,236.555 508.471,236.699 507.317,236.988C506.981,237.084 506.62,237.228 506.236,237.42C506.043,237.516 505.707,237.709 505.226,237.997L505.226,213.699C505.611,213.939 506.079,214.216 506.632,214.528C507.185,214.84 507.762,215.057 508.363,215.177C508.963,215.297 509.913,215.429 511.211,215.573C512.508,215.718 514.047,215.79 515.825,215.79L547.838,215.79L547.838,252.057C547.838,253.211 547.922,254.172 548.091,254.941C548.259,255.71 548.403,256.335 548.523,256.816C548.643,257.296 548.92,257.849 549.352,258.474C549.641,258.907 549.953,259.339 550.29,259.772Z" style="fill:white;fill-rule:nonzero;stroke:black;stroke-width:5px;stroke-linecap:butt;"/>
                        </g>
                    </g>
                    <g transform="matrix(1,0,0,1,1,-174.716)">
                        <g>
                            <path d="M572.209,269.722L538.249,269.722C538.585,269.482 538.874,269.218 539.114,268.929C539.258,268.737 539.643,268.208 540.268,267.343C540.604,266.862 540.808,266.321 540.88,265.721C540.952,265.12 540.989,264.387 540.989,263.521L540.989,185.724C540.989,185.243 540.928,184.726 540.808,184.174C540.688,183.621 540.496,183.152 540.231,182.768C539.967,182.383 539.679,181.975 539.366,181.542C539.054,181.109 538.681,180.749 538.249,180.46L572.209,180.46C571.728,180.797 571.379,181.097 571.163,181.362C570.947,181.626 570.622,182.095 570.19,182.768C569.901,183.345 569.721,183.885 569.649,184.39C569.577,184.895 569.541,185.628 569.541,186.589L569.541,263.521C569.541,264.435 569.565,265.156 569.613,265.685C569.661,266.213 569.841,266.754 570.154,267.307C570.466,267.86 570.766,268.304 571.055,268.641C571.343,268.977 571.728,269.338 572.209,269.722Z" style="fill:white;fill-rule:nonzero;stroke:black;stroke-width:5px;stroke-linecap:butt;"/>
                        </g>
                    </g>
                    <g transform="matrix(1,0,0,1,1,-175.797)">
                        <g>
                            <path d="M652.025,225.523C652.025,238.406 647.591,249.425 638.722,258.582C629.854,267.739 618.954,272.317 606.024,272.317C593.19,272.317 582.255,267.583 573.218,258.113C564.181,248.644 559.663,237.396 559.663,224.37C559.663,211.968 564.037,201.297 572.785,192.357C581.534,183.416 592.085,178.946 604.438,178.946C617.32,178.946 628.472,183.488 637.893,192.573C647.314,201.658 652.025,212.641 652.025,225.523ZM622.752,226.605C622.752,221.51 621.214,217.304 618.137,213.987C614.869,210.478 610.494,208.724 605.015,208.724C599.92,208.724 595.858,210.526 592.83,214.131C589.994,217.496 588.576,221.75 588.576,226.893C588.576,231.316 590.246,235.149 593.587,238.394C596.927,241.638 600.833,243.26 605.303,243.26C610.062,243.26 614.16,241.638 617.596,238.394C621.033,235.149 622.752,231.219 622.752,226.605Z" style="fill:white;fill-rule:nonzero;stroke:black;stroke-width:5px;stroke-linecap:butt;"/>
                        </g>
                    </g>
                    <g transform="matrix(1,0,0,1,1,-175.509)">
                        <g>
                            <path d="M694.895,248.02C693.79,255.855 690.16,261.863 684.008,266.045C678.144,270.035 670.573,272.029 661.296,272.029C659.806,272.029 657.162,271.693 653.365,271.02C649.567,270.347 646.779,270.011 645.001,270.011C644.039,270.011 643.21,270.083 642.513,270.227C641.816,270.371 641.107,270.575 640.386,270.84C639.665,271.104 639.04,271.356 638.512,271.597L638.512,236.267L641.252,238.791C643.703,241.146 646.347,243.201 649.183,244.955C652.019,246.71 654.59,247.875 656.898,248.452C658.003,248.741 659.013,248.885 659.926,248.885C661.849,248.885 663.411,248.404 664.612,247.443C665.814,246.481 666.415,245.184 666.415,243.549C666.415,240.954 665.141,238.622 662.594,236.555C661.152,235.402 657.607,233.251 651.959,230.102C646.311,226.954 642.165,222.76 639.521,217.521C637.262,213.098 636.132,207.955 636.132,202.091C636.132,196.419 638.343,191.492 642.766,187.31C646.851,183.465 651.995,180.917 658.195,179.667C659.541,179.379 660.863,179.187 662.161,179.09C663.459,178.994 664.757,178.946 666.055,178.946C668.554,178.946 670.981,179.162 673.337,179.595C675.692,180.124 678.071,180.629 680.475,181.109C681.052,181.013 681.677,180.893 682.349,180.749C683.022,180.605 683.575,180.484 684.008,180.388L684.008,208.219L681.845,205.624C680.451,203.989 678.865,202.62 677.086,201.514C674.971,200.168 673,199.495 671.174,199.495C669.491,199.495 668.073,199.868 666.92,200.613C665.766,201.358 665.189,202.451 665.189,203.893C665.189,204.278 665.213,204.566 665.261,204.759C665.598,206.633 667.905,208.82 672.183,211.32C675.932,213.483 678.744,215.189 680.619,216.439C685.426,219.66 689.079,223.421 691.578,227.723C694.078,232.025 695.328,236.94 695.328,242.468C695.328,244.198 695.184,246.049 694.895,248.02Z" style="fill:white;fill-rule:nonzero;stroke:black;stroke-width:5px;stroke-linecap:butt;"/>
                        </g>
                    </g>
                    <g transform="matrix(1,0,0,1,1,-174.716)">
                        <g>
                            <path d="M743.894,208.868C743.413,208.436 742.897,207.955 742.344,207.426C741.791,206.898 741.214,206.513 740.613,206.273C740.012,206.032 739.376,205.888 738.703,205.84C738.03,205.792 736.708,205.768 734.737,205.768L726.445,205.768L726.445,263.521C726.445,264.579 726.481,265.312 726.554,265.721C726.626,266.129 726.806,266.634 727.094,267.235C727.383,267.836 727.659,268.304 727.923,268.641C728.188,268.977 728.584,269.338 729.113,269.722L695.153,269.722C695.634,269.338 695.994,269.001 696.235,268.713C696.475,268.424 696.776,268.004 697.136,267.451C697.497,266.898 697.713,266.321 697.785,265.721C697.857,265.12 697.893,264.387 697.893,263.521L697.893,205.768L689.025,205.768C687.727,205.768 686.537,205.852 685.456,206.02C684.374,206.189 683.497,206.465 682.824,206.85C681.814,207.426 680.829,208.099 679.868,208.868L679.868,180.46L743.894,180.46L743.894,208.868Z" style="fill:white;fill-rule:nonzero;stroke:black;stroke-width:5px;stroke-linecap:butt;"/>
                        </g>
                    </g>
                    <g transform="matrix(1,0,0,1,1,-176.59)">
                        <g>
                            <path d="M813.442,271.596L780.491,271.596C780.635,270.443 780.708,269.265 780.708,268.063C780.708,265.468 780.335,263.016 779.59,260.709C778.845,258.402 777.607,256.203 775.877,254.112C774.146,252.021 772.127,250.35 769.82,249.101C767.609,248.235 765.398,247.37 763.187,246.505L763.187,265.395C763.187,266.309 763.211,267.03 763.259,267.559C763.307,268.087 763.487,268.628 763.8,269.181C764.112,269.734 764.413,270.178 764.701,270.515C764.989,270.851 765.374,271.212 765.855,271.596L731.895,271.596C732.808,270.923 733.481,270.13 733.914,269.217C734.202,268.688 734.394,268.099 734.49,267.45C734.587,266.801 734.635,266.116 734.635,265.395L734.635,181.037C735.019,181.229 735.584,181.541 736.329,181.974C737.074,182.407 737.879,182.743 738.744,182.983C740.427,183.416 742.157,183.632 743.936,183.632C746.195,183.632 750.088,183.104 755.616,182.046C761.144,180.989 765.518,180.46 768.739,180.46C775.276,180.46 781.369,182.563 787.016,186.769C792.664,190.975 796.402,196.298 798.228,202.739C799.093,205.719 799.526,208.7 799.526,211.68C799.526,216.583 798.324,221.221 795.921,225.595C795.152,226.989 794.359,228.215 793.542,229.273C792.532,230.57 792.003,231.267 791.955,231.364C793.494,232.421 794.503,233.142 794.984,233.527C796.714,234.872 798.18,236.266 799.382,237.708C801.929,240.689 803.972,244.101 805.511,247.947C806.568,250.543 807.613,254.088 808.647,258.582C809.68,263.076 810.317,265.732 810.558,266.549C810.798,267.366 811.255,268.304 811.928,269.361C812.408,270.13 812.913,270.875 813.442,271.596ZM773.209,214.131C773.209,211.439 772.248,209.373 770.325,207.931C768.883,206.825 767.393,206.272 765.855,206.272C765.374,206.224 765.038,206.2 764.845,206.2C764.413,206.2 764.076,206.224 763.836,206.272C763.499,206.416 763.283,206.488 763.187,206.488L763.187,221.63C763.908,221.774 764.533,221.846 765.062,221.846C765.686,221.846 766.48,221.726 767.441,221.486C769.219,221.005 770.625,220.116 771.659,218.818C772.692,217.52 773.209,215.958 773.209,214.131Z" style="fill:white;fill-rule:nonzero;stroke:black;stroke-width:5px;stroke-linecap:butt;"/>
                        </g>
                    </g>
                    <g transform="matrix(1,0,0,1,1,-174.716)">
                        <g>
                            <path d="M898.563,269.722L861.359,269.722C861.792,269.145 862.128,268.593 862.368,268.064C862.609,267.535 862.765,267.054 862.837,266.622C862.909,266.189 862.945,265.66 862.945,265.036C862.945,264.026 862.849,263.173 862.657,262.476C862.465,261.779 862.32,261.238 862.224,260.854L861.215,257.032L837.565,257.032L836.412,260.71C836.22,261.334 836.075,262.079 835.979,262.945C835.883,263.81 835.835,264.603 835.835,265.324C835.835,266.093 835.895,266.67 836.015,267.054C836.135,267.439 836.292,267.86 836.484,268.316C836.676,268.773 836.941,269.242 837.277,269.722L799.496,269.722C800.121,269.242 800.782,268.689 801.479,268.064C802.176,267.439 802.788,266.67 803.317,265.757C803.846,264.843 804.507,263.473 805.3,261.647C806.093,259.82 806.73,258.21 807.211,256.816L829.778,193.871C830.74,191.18 831.365,189.221 831.653,187.995C831.942,186.769 832.062,185.82 832.014,185.147C831.869,184.138 831.569,183.26 831.112,182.515C830.656,181.77 830.115,181.085 829.49,180.46L862.945,180.46L890.632,255.302C891.257,256.936 892.17,259.051 893.372,261.647C894.333,263.666 895.078,265.156 895.607,266.117C896.521,267.8 897.506,269.001 898.563,269.722ZM854.798,235.834L849.03,216.439L843.334,235.834L854.798,235.834Z" style="fill:white;fill-rule:nonzero;stroke:black;stroke-width:5px;stroke-linecap:butt;"/>
                        </g>
                    </g>
                    <g transform="matrix(1,0,0,1,1,21.474)">
                        <g>
                            <path d="M322.071,171.627L288.111,171.627C288.448,171.387 288.736,171.122 288.977,170.834C289.121,170.642 289.505,170.113 290.13,169.248C290.467,168.767 290.671,168.226 290.743,167.625C290.815,167.025 290.851,166.292 290.851,165.426L290.851,87.629C290.851,87.148 290.791,86.631 290.671,86.078C290.551,85.526 290.359,85.057 290.094,84.672C289.83,84.288 289.541,83.879 289.229,83.447C288.917,83.014 288.544,82.654 288.111,82.365L322.071,82.365C321.591,82.702 321.242,83.002 321.026,83.267C320.809,83.531 320.485,84 320.052,84.672C319.764,85.249 319.584,85.79 319.512,86.295C319.44,86.799 319.403,87.533 319.403,88.494L319.403,165.426C319.403,166.34 319.428,167.061 319.476,167.589C319.524,168.118 319.704,168.659 320.016,169.212C320.329,169.764 320.629,170.209 320.918,170.546C321.206,170.882 321.591,171.243 322.071,171.627Z" style="fill:white;fill-rule:nonzero;stroke:black;stroke-width:5px;stroke-linecap:butt;"/>
                        </g>
                    </g>
                    <g transform="matrix(1,0,0,1,1,21.474)">
                        <g>
                            <path d="M392.052,82.365C391.571,82.702 391.222,83.002 391.006,83.267C390.79,83.531 390.465,84 390.033,84.672C389.744,85.249 389.564,85.79 389.492,86.295C389.42,86.799 389.384,87.533 389.384,88.494L389.384,159.153C389.384,161.797 389.48,163.744 389.672,164.994C389.961,166.195 390.177,167.133 390.321,167.806C390.465,168.479 390.682,169.176 390.97,169.897C391.258,170.618 391.499,171.194 391.691,171.627L365.879,171.627L343.167,138.1L343.167,165.426C343.167,166.34 343.191,167.061 343.239,167.589C343.287,168.118 343.467,168.659 343.78,169.212C344.092,169.764 344.392,170.209 344.681,170.546C344.969,170.882 345.354,171.243 345.834,171.627L311.875,171.627C312.211,171.387 312.5,171.122 312.74,170.834C312.884,170.642 313.269,170.113 313.893,169.248C314.23,168.767 314.434,168.226 314.506,167.625C314.578,167.025 314.614,166.292 314.614,165.426L314.614,91.378C314.614,89.744 314.554,88.542 314.434,87.773C314.314,87.004 314.062,86.163 313.677,85.249C313.485,84.721 313.305,84.3 313.136,83.988C312.968,83.675 312.548,83.134 311.875,82.365L338.408,82.365L360.76,115.676L360.76,87.629C360.76,86.956 360.723,86.403 360.651,85.97C360.579,85.538 360.399,85.117 360.111,84.709C359.822,84.3 359.522,83.879 359.209,83.447C358.897,83.014 358.524,82.654 358.092,82.365L392.052,82.365Z" style="fill:white;fill-rule:nonzero;stroke:black;stroke-width:5px;stroke-linecap:butt;"/>
                        </g>
                    </g>
                    <g transform="matrix(1,0,0,1,1,19.6)">
                        <g>
                            <path d="M459.436,126.058C459.436,135.96 457.417,144.396 453.38,151.366C450.063,157.038 445.232,161.965 438.887,166.147C435.138,168.646 430.692,170.545 425.549,171.843C421.271,172.948 417.209,173.501 413.363,173.501L382.143,173.501C382.72,172.924 383.081,172.54 383.225,172.347C383.465,172.011 383.694,171.566 383.91,171.014C384.126,170.461 384.33,169.86 384.523,169.211C384.715,168.562 384.811,167.685 384.811,166.579L384.811,83.374C386.301,83.951 387.455,84.359 388.272,84.6C389.089,84.84 389.786,84.996 390.363,85.068C390.94,85.141 391.372,85.177 391.661,85.177L392.67,85.177C393.92,85.177 397.765,84.552 404.206,83.302C407.427,82.677 410.191,82.365 412.498,82.365C426.005,82.365 437.301,86.835 446.386,95.776C455.086,104.332 459.436,114.426 459.436,126.058ZM431.533,128.149C431.533,123.631 430.211,119.833 427.567,116.757C424.924,113.681 421.439,111.758 417.113,110.989C416.776,110.893 416.356,110.821 415.851,110.773C415.346,110.725 414.926,110.701 414.589,110.701C413.964,110.701 413.532,110.773 413.291,110.917L413.291,145.381C413.628,145.429 414.108,145.454 414.733,145.454C416.271,145.454 417.786,145.225 419.276,144.769C420.766,144.312 422.208,143.675 423.602,142.858C425.813,141.608 427.688,139.649 429.226,136.982C430.764,134.314 431.533,131.37 431.533,128.149Z" style="fill:white;fill-rule:nonzero;stroke:black;stroke-width:5px;stroke-linecap:butt;"/>
                        </g>
                    </g>
                    <g transform="matrix(1,0,0,1,1,21.474)">
                        <g>
                            <path d="M481.253,171.627L447.293,171.627C447.629,171.387 447.918,171.122 448.158,170.834C448.302,170.642 448.687,170.113 449.312,169.248C449.648,168.767 449.853,168.226 449.925,167.625C449.997,167.025 450.033,166.292 450.033,165.426L450.033,87.629C450.033,87.148 449.973,86.631 449.853,86.078C449.732,85.526 449.54,85.057 449.276,84.672C449.011,84.288 448.723,83.879 448.411,83.447C448.098,83.014 447.726,82.654 447.293,82.365L481.253,82.365C480.772,82.702 480.424,83.002 480.207,83.267C479.991,83.531 479.667,84 479.234,84.672C478.946,85.249 478.765,85.79 478.693,86.295C478.621,86.799 478.585,87.533 478.585,88.494L478.585,165.426C478.585,166.34 478.609,167.061 478.657,167.589C478.705,168.118 478.885,168.659 479.198,169.212C479.51,169.764 479.811,170.209 480.099,170.546C480.388,170.882 480.772,171.243 481.253,171.627Z" style="fill:white;fill-rule:nonzero;stroke:black;stroke-width:5px;stroke-linecap:butt;"/>
                        </g>
                    </g>
                    <g transform="matrix(1,0,0,1,1,21.474)">
                        <g>
                            <path d="M566.302,82.365C565.389,83.086 564.764,83.615 564.428,83.951C563.707,84.672 563.058,85.466 562.481,86.331C560.799,89.071 559.357,92.243 558.155,95.848L535.371,158.144C534.361,160.932 533.809,162.47 533.712,162.759C533.184,164.393 532.919,165.715 532.919,166.724C532.919,167.637 533.088,168.611 533.424,169.644C533.761,170.678 534.073,171.339 534.361,171.627L503.214,171.627L475.959,96.786C475.046,94.238 474.325,92.339 473.796,91.09C472.931,89.119 472.066,87.46 471.2,86.115C470.624,85.249 470.023,84.408 469.398,83.591C468.965,83.014 468.605,82.606 468.316,82.365L506.602,82.365C505.881,83.519 505.389,84.576 505.124,85.538C504.86,86.499 504.728,87.436 504.728,88.35C504.728,89.599 504.944,90.921 505.377,92.315L517.129,129.015L529.458,91.666C529.651,91.138 529.795,90.477 529.891,89.684C529.987,88.89 530.035,88.157 530.035,87.484C530.035,86.331 529.939,85.49 529.747,84.961C529.362,84 528.834,83.134 528.161,82.365L566.302,82.365Z" style="fill:white;fill-rule:nonzero;stroke:black;stroke-width:5px;stroke-linecap:butt;"/>
                        </g>
                    </g>
                    <g transform="matrix(1,0,0,1,1,21.474)">
                        <g>
                            <path d="M588.479,171.627L554.52,171.627C554.856,171.387 555.144,171.122 555.385,170.834C555.529,170.642 555.914,170.113 556.538,169.248C556.875,168.767 557.079,168.226 557.151,167.625C557.223,167.025 557.259,166.292 557.259,165.426L557.259,87.629C557.259,87.148 557.199,86.631 557.079,86.078C556.959,85.526 556.767,85.057 556.502,84.672C556.238,84.288 555.95,83.879 555.637,83.447C555.325,83.014 554.952,82.654 554.52,82.365L588.479,82.365C587.999,82.702 587.65,83.002 587.434,83.267C587.218,83.531 586.893,84 586.461,84.672C586.172,85.249 585.992,85.79 585.92,86.295C585.848,86.799 585.812,87.533 585.812,88.494L585.812,165.426C585.812,166.34 585.836,167.061 585.884,167.589C585.932,168.118 586.112,168.659 586.425,169.212C586.737,169.764 587.037,170.209 587.326,170.546C587.614,170.882 587.999,171.243 588.479,171.627Z" style="fill:white;fill-rule:nonzero;stroke:black;stroke-width:5px;stroke-linecap:butt;"/>
                        </g>
                    </g>
                    <g transform="matrix(1,0,0,1,1,19.6)">
                        <g>
                            <path d="M655.864,126.058C655.864,135.96 653.845,144.396 649.808,151.366C646.491,157.038 641.66,161.965 635.315,166.147C631.566,168.646 627.12,170.545 621.976,171.843C617.698,172.948 613.637,173.501 609.791,173.501L578.571,173.501C579.148,172.924 579.509,172.54 579.653,172.347C579.893,172.011 580.121,171.566 580.338,171.014C580.554,170.461 580.758,169.86 580.951,169.211C581.143,168.562 581.239,167.685 581.239,166.579L581.239,83.374C582.729,83.951 583.883,84.359 584.7,84.6C585.517,84.84 586.214,84.996 586.791,85.068C587.368,85.141 587.8,85.177 588.089,85.177L589.098,85.177C590.348,85.177 594.193,84.552 600.634,83.302C603.855,82.677 606.619,82.365 608.926,82.365C622.433,82.365 633.729,86.835 642.814,95.776C651.514,104.332 655.864,114.426 655.864,126.058ZM627.961,128.149C627.961,123.631 626.639,119.833 623.995,116.757C621.351,113.681 617.867,111.758 613.54,110.989C613.204,110.893 612.783,110.821 612.279,110.773C611.774,110.725 611.353,110.701 611.017,110.701C610.392,110.701 609.959,110.773 609.719,110.917L609.719,145.381C610.056,145.429 610.536,145.454 611.161,145.454C612.699,145.454 614.213,145.225 615.704,144.769C617.194,144.312 618.636,143.675 620.03,142.858C622.241,141.608 624.115,139.649 625.654,136.982C627.192,134.314 627.961,131.37 627.961,128.149Z" style="fill:white;fill-rule:nonzero;stroke:black;stroke-width:5px;stroke-linecap:butt;"/>
                        </g>
                    </g>
                    <g transform="matrix(1,0,0,1,1,23.4208)">
                        <g>
                            <path d="M718.418,80.418C717.937,80.755 717.589,81.055 717.373,81.32C717.156,81.584 716.832,82.053 716.399,82.725C716.111,83.302 715.931,83.843 715.858,84.348C715.786,84.852 715.75,85.586 715.75,86.547L715.75,132.692C715.75,138.893 714.849,144.372 713.046,149.131C711.244,153.89 708.348,158.144 704.358,161.893C700.945,165.066 697.148,167.481 692.966,169.14C688.784,170.798 684.482,171.627 680.06,171.627C675.734,171.627 671.6,170.894 667.659,169.428C663.717,167.962 659.992,165.715 656.483,162.686C651.964,158.745 648.696,154.154 646.677,148.915C644.85,144.252 643.937,138.845 643.937,132.692L643.937,85.682C643.937,85.009 643.901,84.456 643.829,84.023C643.757,83.591 643.577,83.17 643.288,82.762C643,82.353 642.699,81.932 642.387,81.5C642.074,81.067 641.702,80.707 641.269,80.418L675.229,80.418C674.412,80.995 673.739,81.764 673.21,82.725C672.922,83.254 672.73,83.855 672.634,84.528C672.537,85.201 672.489,85.874 672.489,86.547L672.489,132.692C672.489,135.961 672.85,138.388 673.571,139.974C674.676,142.329 676.671,143.507 679.555,143.507C682.199,143.507 684.17,142.594 685.468,140.767C686.621,139.133 687.198,136.441 687.198,132.692L687.198,85.682C687.198,85.201 687.138,84.684 687.018,84.131C686.898,83.579 686.717,83.11 686.477,82.725C686.092,82.149 685.804,81.74 685.612,81.5C685.275,81.067 684.891,80.707 684.458,80.418L718.418,80.418Z" style="fill:white;fill-rule:nonzero;stroke:black;stroke-width:5px;stroke-linecap:butt;"/>
                        </g>
                    </g>
                    <g transform="matrix(1,0,0,1,1,21.474)">
                        <g>
                            <path d="M802.963,171.627L765.758,171.627C766.191,171.05 766.528,170.497 766.768,169.969C767.008,169.44 767.164,168.959 767.237,168.527C767.309,168.094 767.345,167.565 767.345,166.94C767.345,165.931 767.249,165.078 767.056,164.381C766.864,163.684 766.72,163.143 766.624,162.759L765.614,158.937L741.965,158.937L740.811,162.614C740.619,163.239 740.475,163.984 740.379,164.85C740.283,165.715 740.235,166.508 740.235,167.229C740.235,167.998 740.295,168.575 740.415,168.959C740.535,169.344 740.691,169.764 740.883,170.221C741.076,170.678 741.34,171.146 741.677,171.627L703.895,171.627C704.52,171.146 705.181,170.594 705.878,169.969C706.575,169.344 707.188,168.575 707.717,167.661C708.245,166.748 708.906,165.378 709.699,163.552C710.493,161.725 711.13,160.115 711.61,158.721L734.178,95.776C735.139,93.084 735.764,91.126 736.053,89.9C736.341,88.674 736.461,87.725 736.413,87.052C736.269,86.042 735.969,85.165 735.512,84.42C735.055,83.675 734.514,82.99 733.89,82.365L767.345,82.365L795.032,157.207C795.657,158.841 796.57,160.956 797.772,163.552C798.733,165.571 799.478,167.061 800.007,168.022C800.92,169.704 801.905,170.906 802.963,171.627ZM759.197,137.739L753.429,118.344L747.733,137.739L759.197,137.739Z" style="fill:white;fill-rule:nonzero;stroke:black;stroke-width:5px;stroke-linecap:butt;"/>
                        </g>
                    </g>
                    <g transform="matrix(1,0,0,1,1,21.474)">
                        <g>
                            <path d="M852.322,171.627L791.324,171.627C791.661,171.387 791.949,171.122 792.189,170.834C792.334,170.642 792.718,170.113 793.343,169.248C793.583,168.911 793.752,168.455 793.848,167.878C793.944,167.301 793.992,166.772 793.992,166.292L793.992,87.629C793.992,86.956 793.956,86.403 793.884,85.97C793.812,85.538 793.632,85.117 793.343,84.709C793.055,84.3 792.754,83.879 792.442,83.447C792.129,83.014 791.757,82.654 791.324,82.365L825.284,82.365C824.467,82.942 823.794,83.711 823.265,84.672C822.977,85.201 822.785,85.802 822.688,86.475C822.592,87.148 822.544,87.821 822.544,88.494L822.544,146.031L841.795,146.031C843.574,146.031 845.052,145.935 846.23,145.743C847.407,145.55 848.345,145.322 849.042,145.058C849.739,144.793 850.315,144.505 850.772,144.192C851.229,143.88 851.745,143.459 852.322,142.931L852.322,171.627Z" style="fill:white;fill-rule:nonzero;stroke:black;stroke-width:5px;stroke-linecap:butt;"/>
                        </g>
                    </g>
                    <g transform="matrix(1,0,0,1,1,21.474)">
                        <g>
                            <path d="M898.437,171.627L840.179,171.627C840.948,171.002 841.621,170.209 842.198,169.248C842.486,168.671 842.666,168.142 842.738,167.661C842.811,167.181 842.847,166.436 842.847,165.426L842.847,88.494C842.847,87.629 842.811,86.932 842.738,86.403C842.666,85.874 842.486,85.297 842.198,84.672C841.669,83.807 840.996,83.038 840.179,82.365L898.437,82.365L898.437,110.341C897.908,109.86 897.428,109.475 896.995,109.187C896.418,108.754 895.913,108.49 895.481,108.394C893.798,107.913 891.683,107.673 889.136,107.673L871.399,107.673L871.399,115.892L881.781,115.892C883.031,115.892 883.921,115.856 884.449,115.784C884.978,115.712 885.663,115.484 886.504,115.099C887.345,114.715 888.102,114.21 888.775,113.585L888.775,139.326C887.91,138.508 887.117,137.98 886.396,137.739C885.675,137.499 884.93,137.331 884.161,137.235C883.392,137.138 882.743,137.09 882.214,137.09L871.399,137.09L871.399,145.598L889.136,145.598C890.77,145.598 891.948,145.574 892.669,145.526C893.39,145.478 894.099,145.346 894.796,145.13C895.493,144.913 896.142,144.625 896.743,144.264C897.343,143.904 897.908,143.531 898.437,143.147L898.437,171.627Z" style="fill:white;fill-rule:nonzero;stroke:black;stroke-width:5px;stroke-linecap:butt;"/>
                        </g>
                    </g>
                    <g transform="matrix(1,0,0,1,1,-195.073)">
                        <g>
                            <path d="M437.084,197.573L443.937,218.156L456.678,212.28L455.027,226.213L476.72,226.371L459.263,239.249L468.789,249.551L455.027,252.286L461.581,272.966L443.937,260.343L437.084,272.586L430.23,260.343L412.587,272.966L419.141,252.286L405.379,249.551L414.905,239.249L397.447,226.371L419.141,226.213L417.489,212.28L430.23,218.156L437.084,197.573Z" style="fill:white;stroke:black;stroke-width:5px;"/>
                        </g>
                    </g>
                    <g transform="matrix(-0.726266,0,0,0.726266,264.194,175.797)">
                        <g>
                            <ellipse cx="131.539" cy="17.176" rx="21.563" ry="13.571" style="fill:white;stroke:black;stroke-width:4px;stroke-linejoin:miter;stroke-miterlimit:1.5;"/>
                        </g>
                    </g>
                    <g transform="matrix(0.726266,0,0,0.726266,73.1283,109.467)">
                        <g>
                            <path d="M153.103,108.506L153.103,17.176L109.976,17.176L109.976,108.506" style="fill:white;stroke:black;stroke-width:4px;stroke-linejoin:miter;stroke-miterlimit:1.5;"/>
                        </g>
                    </g>
                    <g transform="matrix(-0.726266,0,0,0.726266,264.194,43.1372)">
                        <g>
                            <ellipse cx="131.539" cy="108.506" rx="21.563" ry="13.571" style="fill:white;stroke:black;stroke-width:4px;stroke-linejoin:miter;stroke-miterlimit:1.5;"/>
                        </g>
                    </g>
                </g>
            </g>
        </g>
    </g>
</svg>
