<?xml version="1.0" encoding="UTF-8" standalone="no"?>
<!DOCTYPE svg PUBLIC "-//W3C//DTD SVG 1.1//EN" "http://www.w3.org/Graphics/SVG/1.1/DTD/svg11.dtd">
<svg width="100%" height="100%" viewBox="0 0 519 465" version="1.1" xmlns="http://www.w3.org/2000/svg" xmlns:xlink="http://www.w3.org/1999/xlink" xml:space="preserve" xmlns:serif="http://www.serif.com/" style="fill-rule:evenodd;clip-rule:evenodd;stroke-linecap:round;stroke-miterlimit:1.5;">
    <g transform="matrix(1,0,0,1,-273.799,-16.0001)">
        <g transform="matrix(1.04104,0,0,1,242.103,15.853)">
            <g transform="matrix(0.960576,0,0,1,30.4467,-37.4894)">
                <path d="M469.353,54.111C469.353,47.003 463.592,41.242 456.485,41.242L62.4,41.242C55.293,41.242 49.532,47.003 49.532,54.111L49.532,448.196C49.532,455.303 55.293,461.064 62.4,461.064L456.485,461.064C463.592,461.064 469.353,455.303 469.353,448.196L469.353,54.111Z" style="stroke:black;stroke-width:4px;"/>
            </g>
        </g>
        <g transform="matrix(1.04104,0,0,1,242.103,15.853)">
            <g transform="matrix(0.960576,0,0,1,30.4467,-315.588)">
                <path d="M50.053,424.407L3.305,424.407C3.563,424.223 3.784,424.02 3.968,423.799C4.078,423.652 4.373,423.246 4.852,422.583C5.036,422.326 5.165,421.976 5.239,421.533C5.312,421.091 5.349,420.686 5.349,420.318L5.349,360.032C5.349,359.516 5.322,359.092 5.266,358.761C5.211,358.429 5.073,358.107 4.852,357.794C4.631,357.48 4.401,357.158 4.161,356.827C3.922,356.495 3.636,356.219 3.305,355.998L29.331,355.998C28.705,356.44 28.189,357.029 27.784,357.766C27.563,358.171 27.415,358.632 27.342,359.147C27.268,359.663 27.231,360.179 27.231,360.695L27.231,404.79L41.985,404.79C43.348,404.79 44.481,404.717 45.384,404.569C46.286,404.422 47.004,404.247 47.539,404.044C48.073,403.842 48.515,403.621 48.865,403.381C49.215,403.142 49.611,402.82 50.053,402.414L50.053,424.407Z" style="fill:rgb(0,188,195);fill-rule:nonzero;stroke:black;stroke-width:4px;stroke-linecap:butt;stroke-linejoin:round;"/>
            </g>
        </g>
        <g transform="matrix(1.04104,0,0,1,242.103,15.853)">
            <g transform="matrix(0.960576,0,0,1,30.4467,-315.588)">
                <path d="M113.908,424.407L85.395,424.407C85.726,423.965 85.984,423.541 86.168,423.136C86.352,422.731 86.472,422.362 86.527,422.031C86.583,421.699 86.61,421.294 86.61,420.815C86.61,420.042 86.537,419.388 86.389,418.853C86.242,418.319 86.131,417.905 86.058,417.61L85.284,414.682L67.16,414.682L66.275,417.5C66.128,417.979 66.018,418.55 65.944,419.213C65.87,419.876 65.833,420.484 65.833,421.036C65.833,421.626 65.879,422.068 65.971,422.362C66.064,422.657 66.183,422.979 66.331,423.329C66.478,423.679 66.681,424.039 66.938,424.407L37.983,424.407C38.462,424.039 38.969,423.615 39.503,423.136C40.037,422.657 40.507,422.068 40.912,421.368C41.317,420.668 41.824,419.618 42.432,418.218C43.039,416.818 43.528,415.584 43.896,414.516L61.192,366.276C61.928,364.213 62.407,362.712 62.628,361.772C62.849,360.833 62.941,360.105 62.905,359.59C62.794,358.816 62.564,358.144 62.214,357.573C61.864,357.002 61.45,356.477 60.971,355.998L86.61,355.998L107.829,413.355C108.308,414.608 109.008,416.229 109.929,418.218C110.666,419.765 111.237,420.907 111.642,421.644C112.342,422.933 113.097,423.854 113.908,424.407ZM80.366,398.436L75.945,383.571L71.58,398.436L80.366,398.436Z" style="fill:rgb(0,188,195);fill-rule:nonzero;stroke:black;stroke-width:4px;stroke-linecap:butt;stroke-linejoin:round;"/>
            </g>
        </g>
        <g transform="matrix(1.04104,0,0,1,242.103,15.853)">
            <g transform="matrix(0.960576,0,0,1,30.4467,-314.692)">
                <path d="M223.134,418.277C222.242,418.722 221.533,419.087 221.006,419.371C219.951,419.898 219.201,420.344 218.755,420.709C215.107,423.628 210.951,425.807 206.289,427.247C201.626,428.686 196.619,429.405 191.267,429.405C186.159,429.405 181.091,428.088 176.064,425.453C170.793,422.696 166.273,418.844 162.502,413.898C159.948,410.573 157.992,406.833 156.634,402.678C155.276,398.522 154.597,394.316 154.597,390.059C154.597,384.342 155.712,378.92 157.941,373.791C160.171,368.662 163.455,364.274 167.793,360.625C171.402,357.625 174.909,355.334 178.314,353.753C182.612,351.766 186.95,350.773 191.328,350.773C193.558,350.773 195.514,350.874 197.197,351.077C198.879,351.28 200.673,351.503 202.579,351.746C202.984,351.746 203.268,351.726 203.43,351.685C203.795,351.645 204.201,351.533 204.647,351.351C205.093,351.168 205.924,350.753 207.14,350.104L207.14,379.051L205.802,378.322C204.505,377.632 203.086,377.045 201.545,376.558C199.234,375.828 197.004,375.463 194.856,375.463C194.085,375.463 193.396,375.484 192.788,375.524C192.18,375.565 191.551,375.666 190.903,375.828C187.254,376.558 184.365,378.149 182.237,380.602C180.108,383.055 179.044,386.045 179.044,389.572C179.044,393.91 180.382,397.438 183.058,400.154C185.571,402.708 188.916,404.249 193.092,404.776C193.295,404.816 193.619,404.837 194.065,404.837C194.835,404.837 195.758,404.705 196.832,404.441C197.906,404.178 198.606,404.006 198.93,403.924L198.93,398.755L191.45,398.755C190.68,398.715 190.071,398.694 189.625,398.694C188.774,398.694 187.862,398.816 186.889,399.059C186.605,399.14 186.301,399.262 185.977,399.424C185.814,399.505 185.531,399.667 185.125,399.911L185.125,379.416C185.45,379.619 185.845,379.852 186.311,380.116C186.777,380.379 187.264,380.562 187.771,380.663C188.277,380.764 189.078,380.876 190.173,380.998C191.267,381.119 192.565,381.18 194.065,381.18L221.066,381.18L221.066,411.769C221.066,412.742 221.137,413.553 221.279,414.202C221.421,414.851 221.543,415.378 221.644,415.783C221.745,416.189 221.979,416.655 222.343,417.182C222.587,417.547 222.85,417.912 223.134,418.277Z" style="fill:rgb(0,188,195);fill-rule:nonzero;stroke:black;stroke-width:4px;stroke-linecap:butt;stroke-linejoin:round;"/>
            </g>
        </g>
        <g transform="matrix(1.04104,0,0,1,242.103,15.853)">
            <g transform="matrix(0.960576,0,0,1,30.4467,-313.232)">
                <path d="M241.621,426.668L212.978,426.668C213.262,426.466 213.505,426.243 213.708,425.999C213.829,425.837 214.154,425.391 214.681,424.662C214.965,424.256 215.137,423.8 215.198,423.293C215.259,422.786 215.289,422.168 215.289,421.438L215.289,355.82C215.289,355.415 215.238,354.979 215.137,354.513C215.036,354.046 214.873,353.651 214.65,353.327C214.427,353.002 214.184,352.658 213.921,352.293C213.657,351.928 213.343,351.624 212.978,351.381L241.621,351.381C241.216,351.664 240.922,351.918 240.74,352.141C240.557,352.364 240.284,352.759 239.919,353.327C239.675,353.813 239.523,354.269 239.463,354.695C239.402,355.121 239.371,355.739 239.371,356.55L239.371,421.438C239.371,422.209 239.392,422.817 239.432,423.263C239.473,423.709 239.625,424.165 239.888,424.631C240.152,425.097 240.405,425.472 240.648,425.756C240.892,426.04 241.216,426.344 241.621,426.668Z" style="fill:rgb(0,188,195);fill-rule:nonzero;stroke:black;stroke-width:4px;stroke-linecap:butt;stroke-linejoin:round;"/>
            </g>
        </g>
        <g transform="matrix(1.04104,0,0,1,242.103,15.853)">
            <g transform="matrix(0.960576,0,0,1,30.4467,-314.145)">
                <path d="M308.943,389.39C308.943,400.256 305.203,409.55 297.722,417.273C290.242,424.997 281.049,428.858 270.143,428.858C259.318,428.858 250.095,424.865 242.473,416.878C234.851,408.891 231.04,399.404 231.04,388.417C231.04,377.957 234.729,368.957 242.108,361.416C249.487,353.875 258.386,350.104 268.805,350.104C279.671,350.104 289.077,353.936 297.023,361.598C304.969,369.261 308.943,378.525 308.943,389.39ZM284.252,390.302C284.252,386.005 282.955,382.457 280.36,379.66C277.603,376.7 273.914,375.221 269.292,375.221C264.994,375.221 261.568,376.741 259.014,379.782C256.622,382.62 255.426,386.208 255.426,390.546C255.426,394.276 256.835,397.509 259.653,400.245C262.471,402.982 265.765,404.35 269.535,404.35C273.549,404.35 277.005,402.982 279.904,400.245C282.803,397.509 284.252,394.194 284.252,390.302Z" style="fill:rgb(0,188,195);fill-rule:nonzero;stroke:black;stroke-width:4px;stroke-linecap:butt;stroke-linejoin:round;"/>
            </g>
        </g>
        <g transform="matrix(1.04104,0,0,1,242.103,15.853)">
            <g transform="matrix(0.960576,0,0,1,30.4467,-313.901)">
                <path d="M345.101,408.363C344.169,414.972 341.108,420.04 335.919,423.567C330.972,426.932 324.587,428.614 316.762,428.614C315.505,428.614 313.275,428.331 310.073,427.763C306.87,427.196 304.518,426.912 303.018,426.912C302.207,426.912 301.508,426.973 300.92,427.094C300.332,427.216 299.734,427.388 299.126,427.611C298.518,427.834 297.991,428.047 297.545,428.25L297.545,398.451L299.856,400.579C301.923,402.566 304.153,404.299 306.545,405.779C308.937,407.259 311.106,408.242 313.052,408.728C313.985,408.972 314.836,409.093 315.607,409.093C317.228,409.093 318.546,408.688 319.56,407.877C320.573,407.066 321.08,405.971 321.08,404.593C321.08,402.404 320.006,400.437 317.857,398.694C316.64,397.721 313.65,395.907 308.887,393.251C304.123,390.596 300.626,387.058 298.396,382.639C296.491,378.909 295.538,374.571 295.538,369.625C295.538,364.841 297.403,360.685 301.133,357.158C304.579,353.915 308.917,351.766 314.147,350.712C315.282,350.468 316.397,350.306 317.492,350.225C318.587,350.144 319.681,350.104 320.776,350.104C322.884,350.104 324.931,350.286 326.918,350.651C328.905,351.097 330.911,351.523 332.939,351.928C333.425,351.847 333.952,351.746 334.52,351.624C335.087,351.502 335.554,351.401 335.919,351.32L335.919,374.794L334.094,372.605C332.918,371.226 331.58,370.071 330.08,369.138C328.296,368.003 326.634,367.436 325.094,367.436C323.675,367.436 322.479,367.75 321.506,368.378C320.533,369.007 320.046,369.929 320.046,371.145C320.046,371.47 320.066,371.713 320.107,371.875C320.391,373.456 322.337,375.301 325.945,377.409C329.107,379.234 331.479,380.673 333.06,381.727C337.115,384.443 340.196,387.616 342.304,391.244C344.412,394.873 345.466,399.018 345.466,403.681C345.466,405.14 345.345,406.701 345.101,408.363Z" style="fill:rgb(0,188,195);fill-rule:nonzero;stroke:black;stroke-width:4px;stroke-linecap:butt;stroke-linejoin:round;"/>
            </g>
        </g>
        <g transform="matrix(1.04104,0,0,1,242.103,15.853)">
            <g transform="matrix(0.960576,0,0,1,30.4467,-313.232)">
                <path d="M386.429,375.341C386.024,374.976 385.588,374.571 385.122,374.125C384.656,373.679 384.169,373.355 383.662,373.152C383.156,372.949 382.618,372.828 382.051,372.787C381.483,372.747 380.368,372.726 378.706,372.726L371.712,372.726L371.712,421.438C371.712,422.33 371.743,422.949 371.804,423.293C371.864,423.638 372.016,424.064 372.26,424.57C372.503,425.077 372.736,425.472 372.959,425.756C373.182,426.04 373.517,426.344 373.963,426.668L345.319,426.668C345.725,426.344 346.029,426.06 346.231,425.817C346.434,425.574 346.687,425.219 346.992,424.753C347.296,424.287 347.478,423.8 347.539,423.293C347.6,422.786 347.63,422.168 347.63,421.438L347.63,372.726L340.15,372.726C339.055,372.726 338.052,372.797 337.14,372.939C336.227,373.081 335.488,373.314 334.92,373.639C334.069,374.125 333.237,374.693 332.427,375.341L332.427,351.381L386.429,351.381L386.429,375.341Z" style="fill:rgb(0,188,195);fill-rule:nonzero;stroke:black;stroke-width:4px;stroke-linecap:butt;stroke-linejoin:round;"/>
            </g>
        </g>
        <g transform="matrix(1.04104,0,0,1,242.103,15.853)">
            <g transform="matrix(0.960576,0,0,1,30.4467,-314.814)">
                <path d="M445.089,428.25L417.297,428.25C417.419,427.277 417.48,426.284 417.48,425.271C417.48,423.081 417.166,421.014 416.537,419.067C415.909,417.121 414.865,415.267 413.405,413.503C411.946,411.739 410.243,410.331 408.297,409.276C406.432,408.547 404.567,407.817 402.702,407.087L402.702,423.02C402.702,423.791 402.722,424.399 402.763,424.845C402.803,425.291 402.955,425.747 403.219,426.213C403.482,426.679 403.736,427.054 403.979,427.338C404.222,427.622 404.547,427.926 404.952,428.25L376.309,428.25C377.079,427.683 377.647,427.014 378.012,426.244C378.255,425.798 378.417,425.301 378.498,424.754C378.579,424.206 378.62,423.629 378.62,423.02L378.62,351.868C378.944,352.03 379.42,352.294 380.049,352.659C380.677,353.023 381.356,353.307 382.086,353.51C383.505,353.875 384.965,354.057 386.465,354.057C388.37,354.057 391.654,353.611 396.317,352.719C400.979,351.827 404.668,351.381 407.385,351.381C412.899,351.381 418.037,353.155 422.801,356.703C427.565,360.25 430.717,364.74 432.258,370.173C432.987,372.687 433.352,375.2 433.352,377.714C433.352,381.849 432.339,385.762 430.312,389.451C429.663,390.627 428.994,391.661 428.305,392.553C427.453,393.647 427.007,394.235 426.967,394.316C428.264,395.208 429.116,395.816 429.521,396.141C430.981,397.276 432.217,398.452 433.231,399.668C435.379,402.181 437.103,405.06 438.4,408.303C439.292,410.493 440.174,413.483 441.045,417.273C441.917,421.064 442.454,423.304 442.657,423.993C442.86,424.683 443.245,425.473 443.812,426.365C444.218,427.014 444.643,427.642 445.089,428.25ZM411.155,379.782C411.155,377.511 410.344,375.768 408.723,374.552C407.506,373.619 406.25,373.153 404.952,373.153C404.547,373.112 404.263,373.092 404.101,373.092C403.736,373.092 403.452,373.112 403.249,373.153C402.966,373.275 402.783,373.335 402.702,373.335L402.702,386.106C403.31,386.228 403.837,386.289 404.283,386.289C404.81,386.289 405.479,386.187 406.29,385.985C407.79,385.579 408.976,384.829 409.848,383.735C410.719,382.64 411.155,381.322 411.155,379.782Z" style="fill:rgb(0,188,195);fill-rule:nonzero;stroke:black;stroke-width:4px;stroke-linecap:butt;stroke-linejoin:round;"/>
            </g>
        </g>
        <g transform="matrix(1.04104,0,0,1,242.103,15.853)">
            <g transform="matrix(0.960576,0,0,1,30.4467,-313.232)">
                <path d="M516.885,426.668L485.505,426.668C485.87,426.182 486.154,425.716 486.357,425.27C486.559,424.824 486.691,424.418 486.752,424.053C486.813,423.689 486.843,423.243 486.843,422.715C486.843,421.864 486.762,421.144 486.6,420.557C486.438,419.969 486.316,419.513 486.235,419.188L485.384,415.965L465.437,415.965L464.464,419.067C464.301,419.594 464.18,420.222 464.099,420.952C464.018,421.682 463.977,422.351 463.977,422.959C463.977,423.607 464.028,424.094 464.129,424.418C464.23,424.743 464.362,425.097 464.524,425.483C464.687,425.868 464.91,426.263 465.193,426.668L433.327,426.668C433.854,426.263 434.411,425.797 434.999,425.27C435.587,424.743 436.104,424.094 436.55,423.324C436.996,422.553 437.553,421.398 438.222,419.857C438.891,418.317 439.428,416.958 439.834,415.783L458.869,362.692C459.68,360.422 460.207,358.77 460.45,357.736C460.693,356.702 460.794,355.901 460.754,355.334C460.632,354.482 460.379,353.742 459.994,353.114C459.609,352.485 459.152,351.908 458.625,351.381L486.843,351.381L510.196,414.506C510.723,415.884 511.493,417.668 512.507,419.857C513.317,421.56 513.946,422.817 514.392,423.628C515.162,425.047 515.993,426.06 516.885,426.668ZM479.971,398.086L475.106,381.727L470.302,398.086L479.971,398.086Z" style="fill:rgb(0,188,195);fill-rule:nonzero;stroke:black;stroke-width:4px;stroke-linecap:butt;stroke-linejoin:round;"/>
            </g>
        </g>
        <g transform="matrix(1.04104,0,0,1,242.103,15.853)">
            <g transform="matrix(0.960576,0,0,1,30.4467,-147.756)">
                <path d="M30.643,343.93L2,343.93C2.284,343.728 2.527,343.505 2.73,343.261C2.851,343.099 3.176,342.653 3.703,341.924C3.987,341.518 4.159,341.062 4.22,340.555C4.281,340.048 4.311,339.43 4.311,338.7L4.311,273.082C4.311,272.677 4.26,272.241 4.159,271.775C4.057,271.308 3.895,270.913 3.672,270.589C3.449,270.264 3.206,269.92 2.943,269.555C2.679,269.19 2.365,268.886 2,268.643L30.643,268.643C30.238,268.926 29.944,269.18 29.762,269.403C29.579,269.626 29.305,270.021 28.941,270.589C28.697,271.075 28.545,271.531 28.484,271.957C28.424,272.383 28.393,273.001 28.393,273.812L28.393,338.7C28.393,339.471 28.414,340.079 28.454,340.525C28.495,340.971 28.647,341.427 28.91,341.893C29.174,342.359 29.427,342.734 29.67,343.018C29.914,343.302 30.238,343.606 30.643,343.93Z" style="fill:rgb(0,188,195);fill-rule:nonzero;stroke:black;stroke-width:4px;stroke-linecap:butt;stroke-linejoin:round;"/>
            </g>
        </g>
        <g transform="matrix(1.04104,0,0,1,242.103,15.853)">
            <g transform="matrix(0.960576,0,0,1,30.4467,-147.756)">
                <path d="M89.668,268.643C89.263,268.926 88.969,269.18 88.787,269.403C88.604,269.626 88.33,270.021 87.966,270.589C87.722,271.075 87.57,271.531 87.509,271.957C87.449,272.383 87.418,273.001 87.418,273.812L87.418,333.41C87.418,335.639 87.499,337.281 87.661,338.335C87.905,339.349 88.087,340.14 88.209,340.707C88.33,341.275 88.513,341.863 88.756,342.471C88.999,343.079 89.202,343.565 89.364,343.93L67.593,343.93L48.436,315.652L48.436,338.7C48.436,339.471 48.457,340.079 48.497,340.525C48.538,340.971 48.69,341.427 48.953,341.893C49.217,342.359 49.47,342.734 49.714,343.018C49.957,343.302 50.281,343.606 50.687,343.93L22.043,343.93C22.327,343.728 22.57,343.505 22.773,343.261C22.895,343.099 23.219,342.653 23.746,341.924C24.03,341.518 24.202,341.062 24.263,340.555C24.324,340.048 24.354,339.43 24.354,338.7L24.354,276.244C24.354,274.866 24.303,273.852 24.202,273.204C24.101,272.555 23.888,271.845 23.563,271.075C23.401,270.629 23.249,270.274 23.107,270.011C22.965,269.747 22.611,269.291 22.043,268.643L44.423,268.643L63.275,296.739L63.275,273.082C63.275,272.514 63.245,272.048 63.184,271.683C63.123,271.318 62.971,270.964 62.728,270.619C62.484,270.274 62.231,269.92 61.968,269.555C61.704,269.19 61.39,268.886 61.025,268.643L89.668,268.643Z" style="fill:rgb(0,188,195);fill-rule:nonzero;stroke:black;stroke-width:4px;stroke-linecap:butt;stroke-linejoin:round;"/>
            </g>
        </g>
        <g transform="matrix(1.04104,0,0,1,242.103,15.853)">
            <g transform="matrix(0.960576,0,0,1,30.4467,-149.338)">
                <path d="M146.504,305.497C146.504,313.849 144.801,320.964 141.395,326.842C138.598,331.627 134.523,335.782 129.172,339.309C126.01,341.418 122.259,343.019 117.921,344.114C114.313,345.046 110.887,345.512 107.644,345.512L81.311,345.512C81.798,345.026 82.102,344.702 82.223,344.539C82.426,344.256 82.619,343.881 82.801,343.414C82.984,342.948 83.156,342.441 83.318,341.894C83.48,341.347 83.561,340.607 83.561,339.674L83.561,269.495C84.818,269.981 85.791,270.326 86.48,270.529C87.17,270.731 87.758,270.863 88.244,270.924C88.731,270.985 89.095,271.015 89.339,271.015L90.19,271.015C91.244,271.015 94.488,270.488 99.92,269.434C102.637,268.907 104.968,268.643 106.914,268.643C118.306,268.643 127.834,272.414 135.497,279.955C142.835,287.171 146.504,295.685 146.504,305.497ZM122.969,307.26C122.969,303.449 121.854,300.246 119.624,297.652C117.394,295.057 114.455,293.435 110.806,292.787C110.522,292.706 110.167,292.645 109.742,292.604C109.316,292.564 108.961,292.543 108.678,292.543C108.15,292.543 107.786,292.604 107.583,292.726L107.583,321.795C107.867,321.835 108.272,321.856 108.799,321.856C110.097,321.856 111.374,321.663 112.63,321.278C113.887,320.893 115.104,320.356 116.279,319.666C118.144,318.612 119.725,316.96 121.023,314.71C122.32,312.46 122.969,309.977 122.969,307.26Z" style="fill:rgb(0,188,195);fill-rule:nonzero;stroke:black;stroke-width:4px;stroke-linecap:butt;stroke-linejoin:round;"/>
            </g>
        </g>
        <g transform="matrix(1.04104,0,0,1,242.103,15.853)">
            <g transform="matrix(0.960576,0,0,1,30.4467,-147.756)">
                <path d="M164.905,343.93L136.262,343.93C136.545,343.728 136.789,343.505 136.991,343.261C137.113,343.099 137.437,342.653 137.964,341.924C138.248,341.518 138.42,341.062 138.481,340.555C138.542,340.048 138.572,339.43 138.572,338.7L138.572,273.082C138.572,272.677 138.522,272.241 138.42,271.775C138.319,271.308 138.157,270.913 137.934,270.589C137.711,270.264 137.468,269.92 137.204,269.555C136.941,269.19 136.626,268.886 136.262,268.643L164.905,268.643C164.5,268.926 164.206,269.18 164.023,269.403C163.841,269.626 163.567,270.021 163.202,270.589C162.959,271.075 162.807,271.531 162.746,271.957C162.685,272.383 162.655,273.001 162.655,273.812L162.655,338.7C162.655,339.471 162.675,340.079 162.716,340.525C162.756,340.971 162.908,341.427 163.172,341.893C163.435,342.359 163.689,342.734 163.932,343.018C164.175,343.302 164.5,343.606 164.905,343.93Z" style="fill:rgb(0,188,195);fill-rule:nonzero;stroke:black;stroke-width:4px;stroke-linecap:butt;stroke-linejoin:round;"/>
            </g>
        </g>
        <g transform="matrix(1.04104,0,0,1,242.103,15.853)">
            <g transform="matrix(0.960576,0,0,1,30.4467,-147.756)">
                <path d="M236.64,268.643C235.87,269.251 235.343,269.697 235.059,269.981C234.451,270.589 233.903,271.258 233.417,271.987C231.998,274.298 230.782,276.974 229.768,280.015L210.551,332.558C209.699,334.91 209.233,336.207 209.152,336.45C208.706,337.829 208.483,338.944 208.483,339.795C208.483,340.565 208.625,341.386 208.909,342.258C209.193,343.13 209.456,343.687 209.699,343.93L183.428,343.93L160.44,280.805C159.67,278.657 159.062,277.055 158.616,276.001C157.886,274.339 157.156,272.94 156.426,271.805C155.94,271.075 155.433,270.366 154.906,269.676C154.541,269.19 154.237,268.845 153.994,268.643L186.286,268.643C185.678,269.616 185.262,270.508 185.039,271.318C184.816,272.129 184.705,272.92 184.705,273.69C184.705,274.744 184.887,275.859 185.252,277.035L195.165,307.989L205.564,276.488C205.726,276.042 205.848,275.484 205.929,274.815C206.01,274.146 206.051,273.528 206.051,272.96C206.051,271.987 205.969,271.278 205.807,270.832C205.483,270.021 205.037,269.291 204.469,268.643L236.64,268.643Z" style="fill:rgb(0,188,195);fill-rule:nonzero;stroke:black;stroke-width:4px;stroke-linecap:butt;stroke-linejoin:round;"/>
            </g>
        </g>
        <g transform="matrix(1.04104,0,0,1,242.103,15.853)">
            <g transform="matrix(0.960576,0,0,1,30.4467,-147.756)">
                <path d="M255.345,343.93L226.702,343.93C226.986,343.728 227.229,343.505 227.432,343.261C227.553,343.099 227.877,342.653 228.405,341.924C228.688,341.518 228.861,341.062 228.921,340.555C228.982,340.048 229.013,339.43 229.013,338.7L229.013,273.082C229.013,272.677 228.962,272.241 228.861,271.775C228.759,271.308 228.597,270.913 228.374,270.589C228.151,270.264 227.908,269.92 227.644,269.555C227.381,269.19 227.067,268.886 226.702,268.643L255.345,268.643C254.94,268.926 254.646,269.18 254.463,269.403C254.281,269.626 254.007,270.021 253.642,270.589C253.399,271.075 253.247,271.531 253.186,271.957C253.125,272.383 253.095,273.001 253.095,273.812L253.095,338.7C253.095,339.471 253.115,340.079 253.156,340.525C253.196,340.971 253.348,341.427 253.612,341.893C253.875,342.359 254.129,342.734 254.372,343.018C254.615,343.302 254.94,343.606 255.345,343.93Z" style="fill:rgb(0,188,195);fill-rule:nonzero;stroke:black;stroke-width:4px;stroke-linecap:butt;stroke-linejoin:round;"/>
            </g>
        </g>
        <g transform="matrix(1.04104,0,0,1,242.103,15.853)">
            <g transform="matrix(0.960576,0,0,1,30.4467,-149.338)">
                <path d="M312.181,305.497C312.181,313.849 310.478,320.964 307.072,326.842C304.275,331.627 300.2,335.782 294.849,339.309C291.686,341.418 287.936,343.019 283.598,344.114C279.99,345.046 276.564,345.512 273.321,345.512L246.988,345.512C247.475,345.026 247.779,344.702 247.9,344.539C248.103,344.256 248.296,343.881 248.478,343.414C248.66,342.948 248.833,342.441 248.995,341.894C249.157,341.347 249.238,340.607 249.238,339.674L249.238,269.495C250.495,269.981 251.468,270.326 252.157,270.529C252.847,270.731 253.434,270.863 253.921,270.924C254.407,270.985 254.772,271.015 255.016,271.015L255.867,271.015C256.921,271.015 260.164,270.488 265.597,269.434C268.314,268.907 270.645,268.643 272.591,268.643C283.983,268.643 293.511,272.414 301.173,279.955C308.512,287.171 312.181,295.685 312.181,305.497ZM288.646,307.26C288.646,303.449 287.531,300.246 285.301,297.652C283.071,295.057 280.132,293.435 276.483,292.787C276.199,292.706 275.844,292.645 275.419,292.604C274.993,292.564 274.638,292.543 274.354,292.543C273.827,292.543 273.462,292.604 273.26,292.726L273.26,321.795C273.544,321.835 273.949,321.856 274.476,321.856C275.773,321.856 277.051,321.663 278.307,321.278C279.564,320.893 280.78,320.356 281.956,319.666C283.821,318.612 285.402,316.96 286.7,314.71C287.997,312.46 288.646,309.977 288.646,307.26Z" style="fill:rgb(0,188,195);fill-rule:nonzero;stroke:black;stroke-width:4px;stroke-linecap:butt;stroke-linejoin:round;"/>
            </g>
        </g>
        <g transform="matrix(1.04104,0,0,1,242.103,15.853)">
            <g transform="matrix(0.960576,0,0,1,30.4467,-146.114)">
                <path d="M364.942,267.001C364.536,267.284 364.242,267.538 364.06,267.761C363.878,267.984 363.604,268.379 363.239,268.947C362.996,269.433 362.844,269.889 362.783,270.315C362.722,270.741 362.692,271.359 362.692,272.17L362.692,311.091C362.692,316.321 361.931,320.943 360.411,324.956C358.891,328.97 356.448,332.558 353.083,335.72C350.205,338.396 347.002,340.434 343.474,341.832C339.947,343.231 336.319,343.93 332.589,343.93C328.94,343.93 325.453,343.312 322.129,342.076C318.804,340.839 315.662,338.944 312.703,336.389C308.892,333.065 306.135,329.193 304.432,324.774C302.891,320.841 302.121,316.28 302.121,311.091L302.121,271.44C302.121,270.872 302.09,270.406 302.03,270.041C301.969,269.676 301.817,269.322 301.574,268.977C301.33,268.632 301.077,268.278 300.813,267.913C300.55,267.548 300.236,267.244 299.871,267.001L328.514,267.001C327.825,267.487 327.257,268.136 326.811,268.947C326.568,269.393 326.406,269.899 326.325,270.467C326.244,271.035 326.203,271.602 326.203,272.17L326.203,311.091C326.203,313.848 326.507,315.895 327.115,317.233C328.048,319.22 329.73,320.213 332.163,320.213C334.393,320.213 336.055,319.443 337.15,317.902C338.123,316.524 338.609,314.253 338.609,311.091L338.609,271.44C338.609,271.035 338.559,270.599 338.457,270.133C338.356,269.666 338.204,269.271 338.001,268.947C337.677,268.46 337.434,268.116 337.271,267.913C336.988,267.548 336.663,267.244 336.298,267.001L364.942,267.001Z" style="fill:rgb(0,188,195);fill-rule:nonzero;stroke:black;stroke-width:4px;stroke-linecap:butt;stroke-linejoin:round;"/>
            </g>
        </g>
        <g transform="matrix(1.04104,0,0,1,242.103,15.853)">
            <g transform="matrix(0.960576,0,0,1,30.4467,-147.756)">
                <path d="M436.251,343.93L404.871,343.93C405.236,343.444 405.52,342.978 405.722,342.532C405.925,342.086 406.057,341.68 406.118,341.315C406.179,340.95 406.209,340.505 406.209,339.977C406.209,339.126 406.128,338.406 405.966,337.819C405.804,337.231 405.682,336.775 405.601,336.45L404.749,333.227L384.802,333.227L383.829,336.329C383.667,336.856 383.546,337.484 383.465,338.214C383.383,338.944 383.343,339.613 383.343,340.221C383.343,340.869 383.394,341.356 383.495,341.68C383.596,342.005 383.728,342.359 383.89,342.745C384.052,343.13 384.275,343.525 384.559,343.93L352.693,343.93C353.22,343.525 353.777,343.059 354.365,342.532C354.953,342.005 355.47,341.356 355.916,340.586C356.362,339.815 356.919,338.66 357.588,337.119C358.257,335.579 358.794,334.22 359.2,333.045L378.235,279.954C379.045,277.684 379.572,276.032 379.816,274.998C380.059,273.964 380.16,273.163 380.12,272.596C379.998,271.744 379.745,271.004 379.36,270.376C378.974,269.747 378.518,269.17 377.991,268.643L406.209,268.643L429.562,331.768C430.089,333.146 430.859,334.93 431.872,337.119C432.683,338.822 433.312,340.079 433.758,340.89C434.528,342.309 435.359,343.322 436.251,343.93ZM399.337,315.348L394.472,298.989L389.668,315.348L399.337,315.348Z" style="fill:rgb(0,188,195);fill-rule:nonzero;stroke:black;stroke-width:4px;stroke-linecap:butt;stroke-linejoin:round;"/>
            </g>
        </g>
        <g transform="matrix(1.04104,0,0,1,242.103,15.853)">
            <g transform="matrix(0.960576,0,0,1,30.4467,-147.756)">
                <path d="M477.883,343.93L426.434,343.93C426.718,343.728 426.962,343.505 427.164,343.261C427.286,343.099 427.61,342.653 428.137,341.924C428.34,341.64 428.482,341.255 428.563,340.768C428.644,340.282 428.685,339.836 428.685,339.43L428.685,273.082C428.685,272.514 428.654,272.048 428.593,271.683C428.533,271.318 428.381,270.964 428.137,270.619C427.894,270.274 427.641,269.92 427.377,269.555C427.114,269.19 426.799,268.886 426.434,268.643L455.078,268.643C454.389,269.129 453.821,269.778 453.375,270.589C453.132,271.035 452.97,271.541 452.889,272.109C452.808,272.677 452.767,273.244 452.767,273.812L452.767,322.341L469.004,322.341C470.504,322.341 471.751,322.26 472.744,322.098C473.738,321.936 474.528,321.743 475.116,321.52C475.704,321.297 476.19,321.054 476.576,320.791C476.961,320.527 477.397,320.172 477.883,319.726L477.883,343.93Z" style="fill:rgb(0,188,195);fill-rule:nonzero;stroke:black;stroke-width:4px;stroke-linecap:butt;stroke-linejoin:round;"/>
            </g>
        </g>
        <g transform="matrix(1.04104,0,0,1,242.103,15.853)">
            <g transform="matrix(0.960576,0,0,1,30.4467,-147.756)">
                <path d="M516.779,343.93L467.641,343.93C468.29,343.403 468.857,342.734 469.344,341.924C469.587,341.437 469.739,340.991 469.8,340.586C469.861,340.18 469.891,339.552 469.891,338.7L469.891,273.812C469.891,273.082 469.861,272.494 469.8,272.048C469.739,271.602 469.587,271.116 469.344,270.589C468.898,269.859 468.33,269.21 467.641,268.643L516.779,268.643L516.779,292.238C516.333,291.833 515.927,291.509 515.562,291.265C515.076,290.901 514.65,290.678 514.285,290.596C512.866,290.191 511.082,289.988 508.934,289.988L493.973,289.988L493.973,296.921L502.731,296.921C503.785,296.921 504.535,296.891 504.981,296.83C505.427,296.769 506.004,296.577 506.714,296.252C507.423,295.928 508.062,295.502 508.63,294.975L508.63,316.686C507.9,315.996 507.231,315.551 506.623,315.348C506.015,315.145 505.386,315.003 504.737,314.922C504.089,314.841 503.541,314.8 503.095,314.8L493.973,314.8L493.973,321.977L508.934,321.977C510.312,321.977 511.305,321.956 511.913,321.916C512.522,321.875 513.12,321.764 513.707,321.581C514.295,321.399 514.843,321.156 515.349,320.851C515.856,320.547 516.333,320.233 516.779,319.909L516.779,343.93Z" style="fill:rgb(0,188,195);fill-rule:nonzero;stroke:black;stroke-width:4px;stroke-linecap:butt;stroke-linejoin:round;"/>
            </g>
        </g>
        <g transform="matrix(1.04104,0,0,1,242.103,15.853)">
            <g transform="matrix(0.960576,0,0,1,30.4467,-330.402)">
                <path d="M126.612,365.814L132.393,383.175L143.139,378.218L141.746,389.97L160.043,390.103L145.319,400.966L153.353,409.655L141.746,411.962L147.274,429.405L132.393,418.757L126.612,429.084L120.831,418.757L105.95,429.405L111.478,411.962L99.87,409.655L107.905,400.966L93.18,390.103L111.478,389.97L110.085,378.218L120.831,383.175L126.612,365.814Z" style="fill:rgb(255,255,135);stroke:black;stroke-width:4px;stroke-linejoin:round;"/>
            </g>
        </g>
        <g transform="matrix(1.04104,0,0,1,242.103,15.853)">
            <g transform="matrix(0.960576,0,0,1,30.4467,152.937)">
                <path d="M162.677,41.242L349.316,41.242C426.816,41.242 432.853,106.064 428.43,118.53C426.252,124.671 425.344,128.277 428.43,138.077C431.531,147.925 436.54,159.856 439.605,170.31C443.874,184.875 424.534,180.738 424.534,180.738C424.534,180.738 422.553,183.19 424.534,185.172C426.779,187.417 426.34,189.949 424.534,192.206C424.534,192.206 425.95,193.056 426.144,194.815C426.27,195.955 425.674,197.741 424.534,198.629C422.264,200.398 422.006,201.998 422.006,201.998C422.006,201.998 429.929,210.934 424.534,219.604C419.973,226.934 404.406,228.807 385.012,228.807C371.423,228.807 369.794,246.04 374.194,256.188C376.354,261.169 388.238,270.638 388.238,270.638L129.881,270.638C129.881,270.638 141.765,261.169 143.925,256.188C148.148,246.448 146.696,228.807 133.107,228.807C113.713,228.807 98.145,226.934 93.584,219.604C88.19,210.934 96.113,201.998 96.113,201.998C96.113,201.998 95.855,200.398 93.584,198.629C92.445,197.741 91.849,195.955 91.975,194.815C92.169,193.056 93.584,192.206 93.584,192.206C91.779,189.949 91.339,187.417 93.584,185.172C95.566,183.19 93.584,180.738 93.584,180.738C93.584,180.738 74.245,184.875 78.514,170.31C81.578,159.856 86.587,147.925 89.688,138.077C92.775,128.277 91.867,124.671 89.688,118.53C85.385,106.4 90.985,44.704 162.677,41.381L162.677,41.242Z" style="fill:rgb(255,43,83);stroke:black;stroke-width:4px;stroke-linejoin:round;"/>
            </g>
        </g>
        <g transform="matrix(1.04104,0,0,1,242.103,15.853)">
            <g transform="matrix(-0.841846,-0.48159,-0.462604,0.876397,419.203,480.507)">
                <ellipse cx="204.369" cy="44.091" rx="56.966" ry="33.984" style="fill:rgb(255,242,199);stroke:black;stroke-width:4px;"/>
            </g>
        </g>
        <g transform="matrix(1.04104,0,0,1,242.103,15.853)">
            <g transform="matrix(0.960576,0,0,1,30.4467,176.19)">
                <path d="M254.295,271.97L364.44,71.525L264.591,16.657L154.445,217.102" style="fill:rgb(255,242,199);stroke:black;stroke-width:4px;"/>
            </g>
        </g>
        <g transform="matrix(1.04104,0,0,1,242.103,15.853)">
            <g transform="matrix(-0.841846,-0.481587,-0.462601,0.876398,710.459,157.436)">
                <ellipse cx="314.515" cy="244.536" rx="56.966" ry="33.985" style="fill:rgb(255,242,199);stroke:black;stroke-width:4px;"/>
            </g>
        </g>
        <g transform="matrix(1.04104,0,0,1,242.103,15.853)">
            <g transform="matrix(-0.960576,0,0,1,528.876,199.443)">
                <circle cx="259.443" cy="132.687" r="77.698" style="fill:rgb(255,255,135);stroke:black;stroke-width:4px;"/>
            </g>
        </g>
        <g transform="matrix(1.04104,0,0,1,242.103,15.853)">
            <g transform="matrix(-0.960576,0,0,1,436.863,181.836)">
                <circle cx="211.549" cy="141.491" r="15.964" style="fill:rgb(255,242,199);stroke:black;stroke-width:4px;stroke-linejoin:round;"/>
            </g>
        </g>
        <g transform="matrix(1.04104,0,0,1,242.103,15.853)">
            <g transform="matrix(-0.960576,0,0,1,498.205,181.836)">
                <circle cx="243.478" cy="141.491" r="15.965" style="fill:rgb(255,242,199);stroke:black;stroke-width:4px;stroke-linejoin:round;"/>
            </g>
        </g>
        <g transform="matrix(1.04104,0,0,1,242.103,15.853)">
            <g transform="matrix(-0.960576,0,0,1,467.535,126.278)">
                <circle cx="227.514" cy="169.27" r="15.965" style="fill:rgb(255,242,199);stroke:black;stroke-width:4px;stroke-linejoin:round;"/>
            </g>
        </g>
        <g transform="matrix(1.04104,0,0,1,242.103,15.853)">
            <g transform="matrix(-0.960576,0,0,1,467.535,237.396)">
                <circle cx="227.514" cy="113.711" r="15.965" style="fill:rgb(255,242,199);stroke:black;stroke-width:4px;stroke-linejoin:round;"/>
            </g>
        </g>
        <g transform="matrix(1.04104,0,0,1,242.103,15.853)">
            <g transform="matrix(-0.960576,0,0,1,559.546,181.836)">
                <circle cx="275.408" cy="141.491" r="15.965" style="fill:rgb(255,242,199);stroke:black;stroke-width:4px;stroke-linejoin:round;"/>
            </g>
        </g>
        <g transform="matrix(1.04104,0,0,1,242.103,15.853)">
            <g transform="matrix(-0.960576,0,0,1,528.875,126.278)">
                <circle cx="259.443" cy="169.27" r="15.964" style="fill:rgb(255,242,199);stroke:black;stroke-width:4px;stroke-linejoin:round;"/>
            </g>
        </g>
        <g transform="matrix(1.04104,0,0,1,242.103,15.853)">
            <g transform="matrix(-0.960576,0,0,1,528.875,237.396)">
                <circle cx="259.443" cy="113.711" r="15.964" style="fill:rgb(255,242,199);stroke:black;stroke-width:4px;stroke-linejoin:round;"/>
            </g>
        </g>
        <g transform="matrix(1.04104,0,0,1,242.103,15.853)">
            <g transform="matrix(-0.960576,0,0,1,498.371,292.963)">
                <ellipse cx="243.565" cy="85.927" rx="15.964" ry="15.965" style="fill:rgb(255,242,199);stroke:black;stroke-width:4px;stroke-linejoin:round;"/>
            </g>
        </g>
        <g transform="matrix(1.04104,0,0,1,242.103,15.853)">
            <g transform="matrix(-0.960576,0,0,1,620.887,181.836)">
                <circle cx="307.337" cy="141.491" r="15.964" style="fill:rgb(255,242,199);stroke:black;stroke-width:4px;stroke-linejoin:round;"/>
            </g>
        </g>
        <g transform="matrix(1.04104,0,0,1,242.103,15.853)">
            <g transform="matrix(-0.960576,0,0,1,590.216,126.278)">
                <ellipse cx="291.372" cy="169.27" rx="15.965" ry="15.964" style="fill:rgb(255,242,199);stroke:black;stroke-width:4px;stroke-linejoin:round;"/>
            </g>
        </g>
        <g transform="matrix(1.04104,0,0,1,242.103,15.853)">
            <g transform="matrix(-0.960576,0,0,1,590.216,237.396)">
                <ellipse cx="291.372" cy="113.711" rx="15.965" ry="15.964" style="fill:rgb(255,242,199);stroke:black;stroke-width:4px;stroke-linejoin:round;"/>
            </g>
        </g>
        <g transform="matrix(1.04104,0,0,1,242.103,15.853)">
            <g transform="matrix(-0.960576,0,0,1,559.712,292.963)">
                <circle cx="275.494" cy="85.927" r="15.965" style="fill:rgb(255,242,199);stroke:black;stroke-width:4px;stroke-linejoin:round;"/>
            </g>
        </g>
    </g>
</svg>
